<svg version="1.1" id="Layer_1" xmlns="http://www.w3.org/2000/svg" xmlns:xlink="http://www.w3.org/1999/xlink" x="0px" y="0px"
	 width="100%" viewBox="0 0 50 50" enable-background="new 0 0 50 50" xml:space="preserve">
<path fill="#000000" opacity="1.000000" stroke="none" 
	d="
M27.000084,51.000000 
	C18.000072,51.000000 9.500073,51.000000 1.000056,51.000000 
	C1.000038,34.333363 1.000038,17.666723 1.000019,1.000063 
	C17.666636,1.000042 34.333271,1.000042 50.999931,1.000021 
	C50.999954,17.666632 50.999954,34.333263 50.999977,50.999947 
	C43.166698,51.000000 35.333401,51.000000 27.000084,51.000000 
M17.224075,16.248129 
	C16.048706,18.355255 15.362072,21.602375 13.606091,22.355194 
	C8.393562,24.589886 10.174176,28.744234 10.115352,32.306862 
	C10.090884,33.788616 11.551744,35.233494 11.953526,36.793922 
	C14.118932,45.203842 30.070574,50.175503 36.868343,44.501064 
	C42.778748,39.567356 44.291851,26.181137 39.505119,19.994097 
	C37.287895,17.128242 34.635593,14.599631 32.409195,11.740099 
	C27.766518,5.777159 26.154512,5.454146 20.286438,10.196121 
	C19.486891,12.106739 18.687342,14.017356 17.224075,16.248129 
z"/>
<path fill="#D9BA94" opacity="1.000000" stroke="none" 
	d="
M20.931496,9.885077 
	C26.154512,5.454146 27.766518,5.777159 32.409195,11.740099 
	C34.635593,14.599631 37.287895,17.128242 39.505119,19.994097 
	C44.291851,26.181137 42.778748,39.567356 36.868343,44.501064 
	C30.070574,50.175503 14.118932,45.203842 11.953526,36.793922 
	C11.551744,35.233494 10.090884,33.788616 10.115352,32.306862 
	C10.174176,28.744234 8.393562,24.589886 13.606091,22.355194 
	C15.362072,21.602375 16.048706,18.355255 17.549953,16.476101 
	C17.656277,18.689642 17.436724,20.675211 17.217169,22.660782 
	C19.939308,21.764193 21.406422,20.724941 22.548399,19.404495 
	C25.243320,16.288410 24.319094,11.239360 20.931496,9.885077 
z"/>
<path fill="#F3F2F1" opacity="1.000000" stroke="none" 
	d="
M20.608967,10.040600 
	C24.319094,11.239360 25.243320,16.288410 22.548399,19.404495 
	C21.406422,20.724941 19.939308,21.764193 17.217169,22.660782 
	C17.436724,20.675211 17.656277,18.689642 17.881813,16.316023 
	C18.687342,14.017356 19.486891,12.106739 20.608967,10.040600 
z"/>
</svg>