<svg version="1.1" id="Layer_1" xmlns="http://www.w3.org/2000/svg" xmlns:xlink="http://www.w3.org/1999/xlink" x="0px" y="0px"
	 width="100%" viewBox="0 0 50 50" enable-background="new 0 0 50 50" xml:space="preserve">
<path fill="#000000" opacity="1.000000" stroke="none" 
	d="
M21.250984,50.679146 
	C15.013788,51.000000 9.026449,50.936356 3.042118,51.042408 
	C1.441335,51.070778 0.924192,50.909348 0.937617,49.050110 
	C1.048074,33.752811 1.055716,18.453928 0.934904,3.156786 
	C0.918373,1.063646 1.670661,0.962777 3.333497,0.968648 
	C18.465120,1.022074 33.597183,1.033667 48.728592,0.955656 
	C50.537220,0.946332 51.067184,1.280851 51.054558,3.218836 
	C50.955956,18.350006 50.928146,33.482800 51.074989,48.613186 
	C51.097858,50.969810 50.312012,51.089546 48.396530,51.046902 
	C42.579498,50.917385 36.757740,51.000000 30.468912,51.000000 
	C27.839737,45.360561 33.115730,47.184872 35.543159,45.648102 
	C36.103893,45.390831 36.328220,45.297878 36.903961,45.148464 
	C38.405907,44.974037 39.255596,45.912846 40.623291,45.981159 
	C41.357185,45.851128 41.730976,45.651524 41.359318,44.851341 
	C41.060341,44.507565 40.929867,44.369869 40.591961,44.023510 
	C38.435417,42.696781 36.182156,42.141373 34.258823,40.317024 
	C32.807755,36.053265 35.045994,33.857304 38.034546,31.905416 
	C42.313641,29.110653 43.988766,23.932398 42.509911,18.583149 
	C40.555656,23.565504 38.472580,24.155535 34.814777,20.762787 
	C30.724354,16.968767 23.535177,17.072475 19.593426,21.092888 
	C18.194784,22.519440 16.971405,24.093594 14.590816,24.737204 
	C13.469378,24.761675 12.807125,24.457966 11.904257,23.825924 
	C10.364837,21.974285 10.998367,20.052589 10.621659,17.776785 
	C9.547177,20.230572 7.479364,21.725546 7.528224,24.691589 
	C7.772023,27.677816 9.488766,28.959440 11.672064,30.101484 
	C14.726995,31.699461 17.752365,33.480377 19.262341,36.854397 
	C20.027246,38.563568 20.338202,40.317169 18.970329,42.260223 
	C18.000992,42.928116 17.140501,42.898521 16.211445,43.412941 
	C15.596613,46.158779 17.143908,46.317341 19.364155,46.118713 
	C20.238558,46.210396 20.700233,46.405685 21.381348,47.000751 
	C22.171949,48.344707 22.131540,49.365112 21.250984,50.679146 
z"/>
<path fill="#D8B993" opacity="1.000000" stroke="none" 
	d="
M21.449980,51.000000 
	C22.436340,50.156384 20.247437,48.909645 21.317839,47.267120 
	C21.468971,46.085423 21.707895,45.710037 22.279480,45.170845 
	C22.753584,44.878273 22.958508,44.789009 23.490955,44.639038 
	C25.563004,44.453346 27.309891,44.518108 29.378944,44.513321 
	C30.130766,44.514553 30.559526,44.518364 31.307129,44.532249 
	C31.837858,44.548851 32.049721,44.558250 32.579567,44.584835 
	C34.103313,44.916122 35.311573,45.221771 36.672249,45.908821 
	C37.000477,49.240738 34.591625,47.968182 33.369106,47.908150 
	C31.251371,47.804146 29.960096,48.463688 29.637831,50.708740 
	C27.299986,51.000000 24.599974,51.000000 21.449980,51.000000 
z"/>
<path fill="#CA09A6" opacity="1.000000" stroke="none" 
	d="
M17.648180,42.386189 
	C19.674631,36.203587 15.073114,33.860046 11.025102,32.085220 
	C7.835272,30.686663 6.370165,28.939260 6.171304,25.371185 
	C6.346438,24.839754 6.457006,24.685762 7.069105,24.264208 
	C7.758025,23.957010 7.945413,23.917376 8.417042,23.845144 
	C9.082598,23.765198 9.465336,23.735771 10.142685,23.715191 
	C10.632380,23.726889 10.828662,23.744783 11.315194,23.824963 
	C12.197321,23.982000 12.794876,23.998877 13.692766,24.029604 
	C18.008455,18.589479 22.716227,14.985594 30.189856,16.003485 
	C33.371346,16.436798 35.765953,17.332144 36.674282,20.177477 
	C37.412457,22.489809 38.087566,22.129522 39.736568,21.285902 
	C41.866116,20.196438 41.511478,19.051060 39.953789,18.083832 
	C37.234497,16.395325 38.876503,14.173158 39.964592,13.345105 
	C41.862038,11.901123 42.143459,14.511760 42.853470,15.524971 
	C47.511169,22.171686 45.326729,30.571983 38.091808,33.862576 
	C35.605297,34.993488 35.089176,37.078857 34.973118,39.828934 
	C36.119225,41.287666 37.644917,42.012474 37.564770,44.200645 
	C36.120628,45.922863 34.558636,46.696423 32.270943,46.229019 
	C31.941196,46.022842 32.000130,46.005661 31.996416,46.036129 
	C31.553434,45.519779 30.994730,45.160118 29.990055,44.887215 
	C29.486334,44.649036 29.304914,44.517879 28.917904,44.126759 
	C27.675934,42.139091 26.669741,39.895359 25.162561,43.968178 
	C24.584154,44.816811 23.955956,45.126682 23.206337,45.830055 
	C22.967997,46.083351 22.973379,45.967583 23.031307,45.969147 
	C22.611214,46.400967 21.990395,46.488712 21.217535,46.911678 
	C21.025995,47.152161 21.110842,47.077892 21.147141,47.121155 
	C20.677086,47.075699 20.170732,46.986973 19.283894,46.984180 
	C17.548973,47.861156 16.370741,47.752258 15.316940,46.006508 
	C15.209259,44.132652 15.811056,43.028053 17.648180,42.386189 
z"/>
<path fill="#CD0AA9" opacity="1.000000" stroke="none" 
	d="
M6.870165,24.831264 
	C6.645285,25.029964 6.441068,25.006311 6.338470,25.000031 
	C6.103095,23.883518 1.764484,24.027716 5.555376,21.482557 
	C7.589887,20.116610 9.355959,17.293510 9.942874,14.428504 
	C10.227975,13.036790 10.980831,12.995603 12.067308,13.085748 
	C13.278522,13.186244 14.368609,14.242057 13.706517,14.891742 
	C11.419167,17.136232 14.301519,20.152664 12.184753,22.620838 
	C12.120844,23.621414 11.873819,24.150023 11.194199,24.801575 
	C10.977871,25.015079 11.006288,25.004692 11.016720,24.993736 
	C10.335513,25.609310 9.502767,25.515568 8.329397,25.210590 
	C7.984483,24.977459 7.998137,25.002281 8.011353,25.007374 
	C7.827583,24.609709 7.523764,24.468340 6.870165,24.831264 
z"/>
<path fill="#D2B085" opacity="1.000000" stroke="none" 
	d="
M37.165443,44.214977 
	C36.390675,42.872314 35.752613,41.853123 35.086639,40.529922 
	C36.990547,39.661869 38.833252,42.798424 41.040699,40.172569 
	C41.599335,39.508045 41.892952,41.373569 42.080666,42.592697 
	C41.665215,44.500210 40.515274,45.201050 38.700226,45.468670 
	C37.905640,45.238461 37.550747,44.951996 37.165443,44.214977 
z"/>
<path fill="#B98A50" opacity="1.000000" stroke="none" 
	d="
M37.866348,45.239662 
	C39.258991,44.416553 40.372963,43.763180 41.805115,43.038250 
	C42.123291,42.966698 42.583141,43.002060 42.801476,43.076271 
	C44.047554,45.162621 42.799290,46.477848 41.238010,47.945610 
	C39.874756,47.726421 38.472095,48.170532 37.925629,46.346657 
	C37.746952,45.814243 37.667313,45.611820 37.866348,45.239662 
z"/>
<path fill="#D8B993" opacity="1.000000" stroke="none" 
	d="
M16.213762,44.852165 
	C15.915575,46.847744 16.981455,47.042789 18.562515,47.045280 
	C18.317368,50.664566 16.433228,48.313656 15.293348,47.691154 
	C13.341464,46.625217 14.151007,44.529732 13.900322,42.421677 
	C15.926236,41.527142 16.342016,42.829750 16.213762,44.852165 
z"/>
<path fill="#C69C68" opacity="1.000000" stroke="none" 
	d="
M16.243839,45.057457 
	C15.897469,44.036102 15.497148,43.009235 14.122313,42.186787 
	C13.052834,42.004925 12.124455,42.181004 12.045324,41.029972 
	C11.990684,40.235172 12.576891,40.035557 13.279222,39.954391 
	C15.079702,39.746311 16.317177,40.648121 17.717064,42.112812 
	C17.528910,43.162186 17.013529,44.023075 16.243839,45.057457 
z"/>
<path fill="#D8B993" opacity="1.000000" stroke="none" 
	d="
M41.072876,48.411270 
	C41.546833,46.661499 42.211857,45.238075 42.948345,43.482567 
	C46.318008,44.126263 43.628796,46.346203 43.823788,47.893311 
	C44.046894,49.663445 42.296341,48.859978 41.072876,48.411270 
z"/>
<path fill="#99037D" opacity="1.000000" stroke="none" 
	d="
M38.025085,44.815842 
	C38.145016,45.069927 37.984680,45.543056 37.905640,45.779861 
	C37.826595,46.016670 37.345928,46.088943 37.105125,46.122524 
	C35.417049,47.081036 33.896400,47.288361 32.113914,46.323509 
	C33.669075,46.015560 35.278660,45.650188 36.825031,44.184158 
	C37.320877,44.114918 37.613018,44.338333 38.025085,44.815842 
z"/>
<path fill="#99037D" opacity="1.000000" stroke="none" 
	d="
M11.306342,24.988592 
	C11.185512,24.458191 11.393152,23.901304 11.843430,23.159611 
	C12.659624,23.136040 13.233181,23.297276 13.899984,23.750097 
	C13.207091,24.348492 12.420953,24.655298 11.306342,24.988592 
z"/>
<path fill="#000000" opacity="1.000000" stroke="none" 
	d="
M23.366484,46.045761 
	C23.094704,45.447609 23.221411,44.811863 23.651697,44.021790 
	C25.597616,42.195240 27.260725,41.034187 29.167320,44.042015 
	C29.256973,44.424686 29.339106,44.643326 29.445930,44.690498 
	C30.101456,44.575119 30.393774,44.795395 30.313404,45.675304 
	C28.030394,46.004635 25.897682,46.006405 23.366484,46.045761 
z"/>
<path fill="#99037D" opacity="1.000000" stroke="none" 
	d="
M30.468273,46.002838 
	C30.048248,45.711796 29.912754,45.430676 29.654690,44.948586 
	C30.501423,44.309521 31.314037,44.353046 31.915417,45.731731 
	C31.586283,46.045334 31.179863,46.024071 30.468273,46.002838 
z"/>
<path fill="#000000" opacity="1.000000" stroke="none" 
	d="
M21.302109,47.442284 
	C20.977543,46.205498 21.551712,45.919754 22.727844,45.930042 
	C22.585562,46.557941 22.081890,47.145176 21.302109,47.442284 
z"/>
<path fill="#99037D" opacity="1.000000" stroke="none" 
	d="
M29.395191,44.079437 
	C27.866238,42.793816 26.264256,43.200203 24.291248,43.906040 
	C22.848986,40.913101 24.196108,40.006096 27.009615,39.730667 
	C30.869699,39.352783 28.625034,42.461845 29.395191,44.079437 
z"/>
<path fill="#0E010C" opacity="1.000000" stroke="none" 
	d="
M25.639606,29.247885 
	C25.676540,25.163610 28.466993,27.441803 30.031866,27.247553 
	C31.211895,27.101076 31.124958,28.672226 30.675461,29.521114 
	C29.156950,32.388866 27.501312,30.276512 25.639606,29.247885 
z"/>
<path fill="#99037D" opacity="1.000000" stroke="none" 
	d="
M15.675850,28.152382 
	C16.285589,27.505247 16.802576,27.077368 17.349400,27.807331 
	C17.461054,27.956379 17.313866,28.537189 17.146374,28.613827 
	C16.597759,28.864849 15.803351,29.944805 15.675850,28.152382 
z"/>
<path fill="#99037D" opacity="1.000000" stroke="none" 
	d="
M8.010082,25.236065 
	C8.745167,24.965557 9.505850,24.953655 10.646843,24.962269 
	C10.130714,25.742008 9.312951,26.961010 8.010082,25.236065 
z"/>
<path fill="#99037D" opacity="1.000000" stroke="none" 
	d="
M6.990420,25.050327 
	C7.092709,24.936729 6.955142,23.115911 7.979512,24.802948 
	C7.794899,25.031876 7.565227,25.051281 6.990420,25.050327 
z"/>
</svg>