<?xml version="1.0" encoding="utf-8"?>
<!-- Generator: Adobe Illustrator 28.3.0, SVG Export Plug-In . SVG Version: 6.00 Build 0)  -->
<svg version="1.1" id="Layer_1" xmlns="http://www.w3.org/2000/svg" xmlns:xlink="http://www.w3.org/1999/xlink" x="0px" y="0px"
	 viewBox="0 0 80 200" style="enable-background:new 0 0 80 200;" xml:space="preserve">
<style type="text/css">
	.st0{fill:#010101;}
	.st1{fill:#D8BA94;}
	.st2{fill:#F3F2F1;}
</style>
<path class="st0" d="M41.6,200c-14.4,0-28,0-41.6,0C0,133.33,0,66.67,0,0c26.67,0,53.33,0,80,0c0,66.67,0,133.33,0,200
	C67.47,200,54.93,200,41.6,200 M25.96,60.99c-1.88,8.43-2.98,21.42-5.79,24.43c-8.34,8.94-5.49,25.56-5.59,39.81
	c-0.04,5.93,2.3,11.71,2.94,17.95c3.46,33.64,28.99,53.53,39.86,30.83c9.46-19.73,11.88-73.28,4.22-98.03
	c-3.55-11.46-7.79-21.58-11.35-33.02c-7.43-23.85-10.01-25.14-19.4-6.18C29.58,44.43,28.3,52.07,25.96,60.99z"/>
<g>
	<g>
		<path class="st0" d="M37.69,27.2c-1.23,1.18-2.47,2.37-3.7,3.55c-2.33,2.24,1.18,5.72,3.54,3.54c3.48-3.22,7.14-6.23,10.99-8.99
			c1.01-0.72,1.55-1.92,1.02-3.12c-0.47-1.07-1.75-1.87-2.95-1.45c-3.86,1.36-7.64,2.95-11.3,4.76c0.84,1.44,1.68,2.88,2.52,4.32
			c0.67-0.37,1.34-0.73,2.02-1.1c-1.14-1.14-2.28-2.28-3.42-3.42c-2.66,5.8-4.95,11.77-6.79,17.88c-0.94,3.1,3.79,4.35,4.82,1.33
			c1.83-5.39,3.21-10.92,4.12-16.54c0.2-1.23-0.21-2.45-1.45-2.95c-1.11-0.45-2.53-0.1-3.12,1.02c-3.92,7.39-6.34,15.35-7.29,23.65
			c-0.14,1.22,1.06,2.32,2.17,2.46c1.23,0.15,2.39-0.57,2.74-1.79c1.61-5.52,3.22-11.05,4.82-16.57c-1.64-0.22-3.27-0.44-4.91-0.66
			c-2.32,17.97-4.64,35.94-6.96,53.91c-0.66,5.11-1.32,10.22-1.98,15.33c1.67,0,3.33,0,5,0c-0.33-11.25,1.14-22.43,4.36-33.22
			c-1.64-0.22-3.27-0.44-4.91-0.66c-0.37,13.04-1.3,26.05-2.79,39.01c1.67,0,3.33,0,5,0c-0.2-10.23,0.08-20.46,0.84-30.67
			c0.37-5.03,0.86-10.06,1.48-15.06c0.57-4.59,1.33-9.31,3.19-13.58c-1.55-0.42-3.11-0.84-4.66-1.26
			c0.69,16.06,0.9,32.15,0.65,48.22c1.67,0,3.33,0,5,0c-0.1-5.52,0.23-11.05,1.1-16.5c0.43-2.72,0.98-5.42,1.65-8.09
			c0.32-1.3,0.67-2.59,1.05-3.87c0.09-0.31,0.43-1.84,0.76-1.94c-1.03-0.58-2.05-1.16-3.08-1.75c3.16,7.79,4.54,16.15,3.91,24.54
			c-0.05,0.73-0.03,1.61-0.3,2.3c-0.03,0.09-0.3,0.53-0.29,0.54c-0.11-0.21,2-0.08,0.75-0.08c0.4-0.17,0.69-0.09,0.86,0.24
			c0.2,0.3,0.25,0.33,0.15,0.08c0.08-0.28-0.26-1.06-0.32-1.37c-0.11-0.52-0.21-1.04-0.29-1.56c-0.16-0.97-0.28-1.95-0.36-2.94
			c-0.34-4.16-0.09-8.35,0.83-12.42c0.47-2.06,1.02-4.2,1.91-6.13c0.66-1.42,1.45-2.76,3.06-3.02c-1.03-0.58-2.05-1.16-3.08-1.75
			c2.13,5.35,2.9,11.19,2.06,16.9c-0.41,2.8-1.17,5.6-2.29,8.2c-0.54,1.25-1.16,2.47-1.87,3.63c-0.41,0.67-1.19,2.06-2.06,2.19
			c-1.75,0.27-3.04-3.87-3.45-5.1c-0.96-2.85-1.36-5.8-1.21-8.8c0.13-2.57,0.61-5.56,1.89-7.83c0.19-0.33,0.55-0.64,0.71-0.96
			c0.34-0.69,0.44,0.38-0.08-0.13c0.1,0.09,0.23,0.1,0.3,0.25c0.25,0.54,0.75,1.08,1.06,1.61c0.41,0.7,0.79,1.41,1.14,2.14
			c2.44,5.04,3.31,10.91,2.6,16.46c-0.16,1.25-0.42,2.49-0.75,3.7c-0.17,0.65-0.37,1.3-0.59,1.93c-0.1,0.29-0.21,0.57-0.31,0.86
			c-0.26,0.74-0.01,0.29-0.02,0.35c0.12,0,0.24,0.01,0.36,0.01c-0.04,0-0.08-0.01-0.11-0.02c0-0.03-0.56-0.55-0.59-0.59
			c-0.42-0.52-0.7-1.15-0.98-1.75c-0.58-1.23-1.06-2.5-1.48-3.8C35.06,80.32,36.37,68,42.72,58.98c0.87-1.24,3.65-4.34,4.81-2
			c0.53,1.07,0.64,2.45,0.8,3.62c0.19,1.44,0.3,2.9,0.33,4.36c0.13,5.43-0.91,11.13-5.34,14.72c0.81-0.21,1.62-0.43,2.43-0.64
			c-2.27-0.48-3.59-2.38-4.44-4.45c-1.21-2.93-1.62-6.27-1.79-9.41c-0.18-3.5,0.06-7.02,0.78-10.46c0.52-2.48,1.11-6.2,3.41-7.73
			c-1.22-0.5-2.45-1-3.67-1.49c1.5,4.71,1.76,9.72,0.63,14.54c-0.54,2.3-1.3,4.77-2.61,6.76c-0.02,0.03-0.05,0.05-0.07,0.08
			c-0.31,0.26-0.36,0.32-0.14,0.19c0.04-0.02,0.08-0.04,0.12-0.06c0.96,0.19,1.27,0.28,0.94,0.27c0.04-0.14-0.48-0.94-0.56-1.15
			c-0.46-1.15-0.78-2.41-0.94-3.64c-0.31-2.36-0.15-4.81,0.25-7.15c0.41-2.4,0.9-4.97,1.81-7.23c0.28-0.71,0.68-1.48,1.23-2
			c0.11-0.11,0.48-0.33,0.36-0.29c0.79-0.3,0.19-0.02,0.18-0.02c-0.23-0.08,0.16,0.08,0.19,0.12c0.76,1.39,1.15,3.22,1.48,4.93
			c0.81,4.27,1.5,9.72-1.65,13.24c1.18,0,2.36,0,3.54,0c-3.99-4.65-5.78-10.89-5.36-16.96c0.21-3,1.08-5.91,2.44-8.59
			c1.68-3.3,3.49-6.42,3.81-10.19c-1.64,0.22-3.27,0.44-4.91,0.66c1.27,6.37,0.94,12.94-0.84,19.19c1.61,0,3.21,0,4.82,0
			c-1.55-5.64-1.98-11.45-1.33-17.26c0.31-2.78-4.44-3.44-4.91-0.66c-1.19,7.1-2.1,14.25-2.69,21.43c1.67,0,3.33,0,5,0
			c-0.4-3.5-0.79-6.99-1.19-10.49c-0.32-2.79-3.9-3.41-4.91-0.66C31,50.68,29.76,61.53,28.12,72.13
			c-1.71,11.09-3.42,22.17-5.13,33.26c-0.98,6.32-1.95,12.65-2.93,18.97c1.61,0,3.21,0,4.82,0c-1.61-10.82-0.69-21.94,2.48-32.4
			c-1.64-0.22-3.27-0.44-4.91-0.66c-0.02,4.73-0.71,9.36-2.04,13.91c1.64,0.22,3.27,0.44,4.91,0.66
			c-0.04-16.59,0.78-33.18,2.45-49.69c0.29-2.88-4.13-3.27-4.91-0.66c-5.42,18.07-8.91,36.69-10.47,55.5
			c-0.24,2.88,4.14,3.29,4.91,0.66c3.57-12.18,7.13-24.36,10.7-36.54c-1.64-0.22-3.27-0.44-4.91-0.66
			c0.47,17.4-0.46,34.85-2.9,52.08c-0.69,4.91-1.51,9.8-2.43,14.67c1.64,0.22,3.27,0.44,4.91,0.66
			c-2.49-29.24,11.93-56.47,13.52-85.35c0.37-6.74,0.61-15.49-5.29-20.12c-1.31-1.03-3.82-0.96-4.18,1.1
			c-1.76,9.97-2.49,20.09-2.11,30.21c0.1,2.72,4.26,3.52,4.91,0.66c2.33-10.22,4.63-20.62,8.97-30.21c1-2.22,2.13-4.37,3.35-6.48
			c0.4-0.7,0.3-0.08,0.11-0.22c0,0-0.82,0.13-0.62-0.06c-0.01,0.01,0.2,0.35,0.27,0.52c0.52,1.19,0.76,2.58,1.08,3.83
			c1.4,5.4,2.39,10.9,3.15,16.43c0.87,6.27,1.43,12.58,2,18.88c1.64-0.22,3.27-0.44,4.91-0.66C49.4,59.87,47.33,49,46.63,37.97
			c-0.83,0.83-1.67,1.67-2.5,2.5c0.83-0.05-0.05-0.22,0.31,0.02c0.16,0.11,0.26,0.19,0.4,0.32c0.43,0.39,0.8,0.87,1.16,1.33
			c0.67,0.87,1.29,1.78,1.87,2.71c1.23,1.97,2.28,4.06,3.11,6.23c1.67,4.37,2.68,8.99,3.2,13.63c1.19,10.62,0.57,21.5-0.35,32.11
			c-0.57,6.57-1.41,13.12-2.5,19.62c1.52-0.2,3.05-0.4,4.57-0.6c-5.23-8.29-6.06-18.74-6.81-28.28C48.22,76.75,48.26,65.84,49.2,55
			c0.52-6.04,1.34-12.04,2.42-18.01c-1.64-0.22-3.27-0.44-4.91-0.66c0.47,16.39,0.71,32.8,0.11,49.2c-0.59,16.2-2,32.4-4.87,48.36
			c-0.7,3.89-1.28,7.91-2.59,11.65c-0.91,2.58-2.38,5.19-5.11,5.87c0.94,0.38,1.88,0.77,2.82,1.15c-5.13-6.75-5.75-16.17-5.92-24.34
			c-0.2-9.32,1.04-18.59,3.65-27.54c-1.64-0.22-3.27-0.44-4.91-0.66c0.75,10.74-1.51,21.59-6.69,31.06
			c-0.4,0.74-2.12,4.46-3.11,3.89c-0.39-0.22-0.69-1.3-0.84-1.8c-0.36-1.18-0.63-2.39-0.82-3.6c-0.69-4.36-0.21-8.91,1.12-13.1
			c1.54-4.85,4.33-9.19,8.11-12.59c-1.01,0.13-2.02,0.26-3.03,0.39c2.42,1.58,3.67,4.33,4.48,7c1.11,3.67,1.73,7.54,2.2,11.34
			c0.89,7.26,1.38,15-0.35,22.18c-0.78,3.25-2.05,6.39-4.08,9.07c-0.39,0.52-0.83,1.05-1.35,1.44c-0.22,0.16-0.46,0.28-0.7,0.39
			c-0.37,0.17-0.29-0.11-0.08,0.1c-1.02-1.05-1.39-3.1-1.78-4.48c-2.12-7.6-0.9-15.22,0.14-22.88c0.58-4.25,1.1-8.55,0.74-12.84
			c-0.19-2.2-0.55-4.41-1.24-6.51c-0.65-1.99-1.48-4.29-3.51-5.24c-1.59-0.75-3.03-0.09-3.67,1.49c-2.3,5.61-3.11,11.81-2.34,17.82
			c0.16,1.23,0.83,2.3,2.17,2.46c1.16,0.14,2.49-0.55,2.74-1.79c1.94-9.31,3.32-18.73,4.15-28.21c0.24-2.77-4.5-3.46-4.91-0.66
			c-2.24,15.13-4.4,30.47-1.67,45.69c0.45,2.49,4.23,2.27,4.82,0c3.69-14.21,6.79-28.57,9.3-43.04c0.23-1.33-0.36-2.69-1.75-3.08
			c-1.25-0.34-2.78,0.42-3.08,1.75c-3.79,17.15-6.44,34.55-7.92,52.05c-0.42,4.95-0.74,9.9-0.96,14.86
			c-0.13,2.92,4.06,3.25,4.91,0.66c4.55-13.75,5.42-28.42,7.26-42.69c1.85-14.43,4.07-28.81,6.92-43.08
			c1.62-8.11,3.46-16.18,5.54-24.19c-1.64-0.22-3.27-0.44-4.91-0.66c-1.51,17.32-3.43,34.61-5.79,51.83
			c-0.67,4.89-1.38,9.78-2.11,14.66c1.64,0.22,3.27,0.44,4.91,0.66c1.33-22.72,4.98-45.26,10.89-67.24
			c1.67-6.22,3.53-12.38,5.55-18.49c-1.64-0.22-3.27-0.44-4.91-0.66c-0.91,19.07-2.59,38.1-5.05,57.03
			c-0.69,5.33-1.46,10.64-2.28,15.95c1.61,0,3.21,0,4.82,0c-4.22-19.21-0.89-39.06,4.13-57.78c-1.52,0.2-3.05,0.4-4.57,0.6
			c4.94,6.93,5.58,15.91,6.33,24.12c0.88,9.68,1.19,19.41,0.94,29.14c1.67,0,3.33,0,5,0c-2.01-17.55-1.59-35.36,1.38-52.77
			c-1.64-0.22-3.27-0.44-4.91-0.66c1.28,11.07,2.16,22.18,2.65,33.31c1.64-0.22,3.27-0.44,4.91-0.66
			c-0.91-6.57-1.12-13.23-0.77-19.85c-1.55,0.42-3.11,0.84-4.66,1.26c4.29,5.94,6.73,13.07,8.82,20.03
			c1.85,6.16,3.37,13.34-0.26,19.16c1.52,0.2,3.05,0.4,4.57,0.6c-1.71-11.91-2.34-23.97-1.99-36c-1.67,0-3.33,0-5,0
			c2.39,25.27,4.72,50.77,2.19,76.12c-0.33,3.33-0.69,6.69-1.29,9.98c-0.48,2.61-1.17,5.25-3.14,7.14c1.39,0.37,2.79,0.74,4.18,1.1
			c-4.78-13.64-6.41-28.14-4.8-42.5c-1.67,0-3.33,0-5,0c0.58,13.5,0.76,27.93-5.9,40.13c1.14-0.3,2.28-0.6,3.42-0.9
			c-2.03-1.54-2.75-4.42-3.26-6.77c-0.74-3.44-1.17-6.96-1.41-10.47c-0.5-7.32-0.08-14.69,1.3-21.89c-1.64-0.22-3.27-0.44-4.91-0.66
			c1.73,13.54,0.25,27.34-4.42,40.18c-1.03,2.83-2.1,5.86-3.79,8.37c-1.01,1.5-3.68,3.66-5.38,1.85c-0.83-0.88-1.14-2.28-1.47-3.4
			c-0.41-1.4-0.73-2.82-0.97-4.26c-0.49-2.91-0.54-5.9-0.3-8.84c0.54-6.59,2.96-12.92,6.82-18.26c-0.94,0.38-1.88,0.77-2.82,1.15
			c1.6,0.52,2.27,2.55,2.65,4.04c0.62,2.44,0.78,4.99,0.69,7.5c-0.19,5.13-1.77,10.11-4.47,14.46c1.31-0.17,2.62-0.34,3.93-0.51
			c-1.29-1.65-1.14-4.2-0.98-6.16c0.23-2.76,0.78-5.52,1.43-8.21c1.36-5.56,3.44-10.88,6.2-15.89c-1.52-0.2-3.05-0.4-4.57-0.6
			c2.23,10.07,0.93,20.82-3.65,30.07c0.94-0.38,1.88-0.77,2.82-1.15c0.44,0.09,0.48,0.86,0.32-0.03c-0.05-0.27-0.07-0.84-0.1-1.28
			c-0.08-1.35-0.14-2.69-0.16-4.04c-0.05-2.78,0.03-5.56,0.24-8.32c0.41-5.4,1.35-10.74,2.75-15.97c-1.64-0.22-3.27-0.44-4.91-0.66
			c-1.2,11.39-3.44,22.66-6.59,33.67c1.64,0.22,3.27,0.44,4.91,0.66c1.91-16.62,4.48-33.16,7.65-49.59c0.26-1.32-0.37-2.7-1.75-3.08
			c-1.27-0.35-2.76,0.43-3.08,1.75c-3.68,15.23-6.04,30.77-7.07,46.41c-0.19,2.89,4.11,3.28,4.91,0.66
			c6.39-21,12.22-42.17,17.49-63.48c1.49-6.04,2.94-12.1,4.34-18.16c0.67-2.9-2.91-4.13-4.57-1.93c-2.82,3.75-4.72,8.08-6.29,12.48
			c-1.64,4.58-3.02,9.27-4.29,13.97c-2.64,9.73-4.65,19.63-6.01,29.61c-0.78,5.73-1.37,11.48-1.74,17.25
			c-0.18,2.77,4.43,3.46,4.91,0.66c3.3-19.13,6.6-38.27,10.68-57.25c1.15-5.36,2.37-10.72,3.66-16.05
			c-1.64-0.22-3.27-0.44-4.91-0.66c-1.37,27.87-2.73,55.73-4.1,83.6c-0.38,7.8-0.76,15.59-1.15,23.39
			c-0.14,2.79,4.33,3.44,4.91,0.66c4.3-20.37,8.6-40.74,12.91-61.11c1.22-5.76,2.43-11.52,3.65-17.29c0.66-3.13-3.98-4.46-4.82-1.33
			c-5.09,18.92-7.47,38.42-9.54,57.86c1.67,0,3.33,0,5,0c1.07-18.88,2.41-37.74,4.03-56.58c0.46-5.35,0.94-10.69,1.44-16.04
			c-1.67,0-3.33,0-5,0c0.41,19.8,0.9,39.77,5.48,59.13c0.65,2.73,5,2.16,4.91-0.66c-0.28-8.9-0.27-17.81,0.04-26.71
			c0.16-4.45,0.39-8.9,0.7-13.34c0.15-2.22,0.33-4.44,0.52-6.66c0.18-2.13,0.57-4.3,0.59-6.44c0.01-1.28-0.35-2.57-1.24-3.52
			c-0.66-0.71-1.53-1.05-2.29-1.61c-1.08-0.79-1.69-2.22-1.43-3.54c-1.61,0-3.21,0-4.82,0c2.08,9.48,4.3,18.94,6.67,28.36
			c1.19,4.75,2.42,9.49,3.69,14.22c0.61,2.29,1.23,4.57,1.86,6.85c0.53,1.92,1.54,4.23,1.12,6.26c-0.22,1.07-0.89,2.01-1.45,2.92
			c-0.74,1.2-1.47,2.39-2.21,3.59c-1.47,2.39-2.94,4.78-4.41,7.17c1.55,0.42,3.11,0.84,4.66,1.26c-0.86-15.96-0.15-32.01,2.23-47.82
			c-1.64-0.22-3.27-0.44-4.91-0.66c1.17,17.41,1.49,34.86,0.95,52.3c1.67,0,3.33,0,5,0c-0.63-9.74-0.84-19.51-0.61-29.27
			c0.07-3.25-4.77-3.18-5,0c-0.48,6.62-1.14,13.23-2.05,19.81c-0.45,3.24-0.94,6.47-1.49,9.69c-0.27,1.61-0.56,3.22-0.86,4.83
			c-0.13,0.7-0.25,1.4-0.4,2.1c-0.05,0.25-0.07,0.66-0.22,0.86c-0.13,0.18,0.22-0.22,0.09-0.15c-0.84,0.43-2.23,0.36-3.15,0.41
			c-1.12,0.07-2.27,0.1-3.38-0.07c-2.23-0.34-3.64-1.4-4.18-3.63c-0.7-2.91-0.76-6.07-0.8-9.04c-0.05-3.22,0.12-6.44,0.42-9.64
			c0.7-7.36,2.19-14.62,3.67-21.86c-1.64-0.22-3.27-0.44-4.91-0.66c1.6,11.96,0.47,24.08-3.34,35.53c1.22-0.5,2.45-1,3.67-1.49
			c0.19,0.1,0.02,0.21,0.02-0.15c0-0.19-0.05-0.73-0.06-1.05c-0.04-1.3-0.04-2.6-0.01-3.89c0.05-2.51,0.2-5.02,0.43-7.52
			c0.46-4.95,1.27-9.85,2.22-14.72c1.93-9.95,4.44-19.79,6.18-29.78c0.98-5.65,1.72-11.34,2-17.07c0.13-2.78-4.36-3.45-4.91-0.66
			c-3.7,18.68-7.4,37.36-11.1,56.04c-1.06,5.36-2.12,10.72-3.18,16.08c-0.26,1.32,0.38,2.7,1.75,3.08c1.26,0.35,2.77-0.43,3.08-1.75
			c2.48-10.68,4.79-21.4,6.93-32.15c0.51-2.54-2.24-4.03-4.18-2.43c-3.26,2.68-5.99,5.97-8.06,9.64c1.55,0.42,3.11,0.84,4.66,1.26
			c0-2.99,0.7-5.86,2.11-8.5c-1.55-0.42-3.11-0.84-4.66-1.26c0.38,10.01-0.1,20.02-0.93,29.99c-0.41,4.95-0.9,9.9-1.41,14.84
			c-0.19,1.9-0.28,3.85-0.78,5.7c-0.28,1.04-0.8,2.4-1.79,2.63c-1.3,0.3-2.6-1.16-3.02-2.29c-0.86-2.29,0.01-5.02,0.61-7.26
			c-1.22,0.5-2.45,1-3.67,1.49c3.16,1.72,6,4.02,8.19,6.9c0.3-1.14,0.6-2.28,0.9-3.42c-1.43,0.74-3.33-0.46-4.18-1.78
			c-1.44-2.22-1.36-5.17-1.38-7.72c-1.55,0.42-3.11,0.84-4.66,1.26c3.19,5.01,5.96,10.26,8.31,15.72c0.49,1.13,2.1,1.47,3.12,1.02
			c1.21-0.53,1.66-1.68,1.45-2.95c-0.82-4.87-0.85-9.91-0.07-14.78c0.21-1.33-0.34-2.69-1.75-3.08c-1.2-0.33-2.85,0.41-3.08,1.75
			c-1.04,6.24-2.07,12.48-3.11,18.72c1.64,0.22,3.27,0.44,4.91,0.66c0.8-6.69,1.61-13.38,2.41-20.06c0.22-1.86-2.3-3.16-3.76-2.16
			c-0.75,0.51-1.5,1.02-2.25,1.54c1.22,0.5,2.45,1,3.67,1.49c-0.49-1.85-0.5-3.66-0.02-5.51c-1.64-0.22-3.27-0.44-4.91-0.66
			c-0.81,12.99-1.51,26.36,2.58,38.91c0.69,2.1,3.36,2.4,4.57,0.6c6.81-10.17,11.57-21.69,13.93-33.7c0.24-1.22-0.24-2.46-1.45-2.95
			c-1.08-0.43-2.57-0.11-3.12,1.02c-2.5,5.12-4.65,10.4-6.4,15.82c-0.86,2.65,3.42,4.55,4.57,1.93c3.17-7.19,6.34-14.39,9.51-21.58
			c-1.55-0.42-3.11-0.84-4.66-1.26c-1.13,8.52-2.86,16.95-5.1,25.24c1.61,0.44,3.21,0.89,4.82,1.33c1.61-6.09,4.07-11.86,7.34-17.25
			c-1.55-0.42-3.11-0.84-4.66-1.26c-0.81,6.43-2.36,12.77-4.49,18.89c-0.45,1.27,0.51,2.73,1.75,3.08c1.42,0.39,2.57-0.49,3.08-1.75
			c2.48-6.19,5.56-12.13,9.12-17.77c-1.44-0.84-2.88-1.68-4.32-2.52c-2.57,4.91-5.14,9.83-7.71,14.74
			c-1.25,2.39,1.99,5.28,3.93,3.03c3.38-3.92,6.75-7.83,10.13-11.75c-1.39-0.81-2.79-1.62-4.18-2.43
			c-1.51,5.44-3.65,10.61-6.44,15.52c-1.59,2.8,2.66,5.29,4.32,2.52c2.61-4.36,5.22-8.72,7.82-13.07c1.21-2.03-1.33-4.94-3.42-3.42
			c-2.74,1.99-5.49,3.98-8.23,5.97c1.14,1.14,2.28,2.28,3.42,3.42c1.98-3.7,4.34-7.15,7.12-10.29c2.12-2.39-1.3-5.88-3.54-3.54
			c-3.52,3.69-7.01,7.42-10.56,11.08c-0.38,0.39-0.96,1.17-1.5,1.13c0.03,0-0.78-0.59-0.99-0.76c-1.73-1.48-3.37-2.61-5.71-2.76
			c-3.31-0.22-11.99,2.18-9.38,7.07c1.05,1.96,3.83,2.66,5.73,3.51c2.35,1.05,4.7,2.1,7.05,3.15c0.64-1.52,1.28-3.05,1.93-4.57
			c-1.16-0.41-2.37-0.54-3.59-0.64c-0.86-0.07-1.85-0.03-2.66-0.38c-0.33-0.14-0.91-0.56-0.99-0.85c0.09,0.35-0.13,0.14,0.27-0.11
			c0.33-0.21,0.65-0.45,0.98-0.67c3.5-2.4,7.03-5.04,9.06-8.86c3.96-7.44,1.59-16.05,3.92-23.86c-1.52,0.2-3.05,0.4-4.57,0.6
			c2.14,4.01,3.47,8.47,3.78,13.01c0.16,2.27,0.12,4.57-0.19,6.83c-0.14,0.99-0.28,2.04-0.63,2.99c-0.1,0.27-0.24,0.53-0.37,0.77
			c-0.09,0.18-0.32,0.22-0.05,0.2c0.83,0.83,1.67,1.67,2.5,2.5c-0.13-8.01,1.3-15.89,4.17-23.37c-1.64-0.22-3.27-0.44-4.91-0.66
			c1.23,14.19,1.07,28.48-0.49,42.64c1.64-0.22,3.27-0.44,4.91-0.66c-0.72-3.28-0.97-6.58-0.83-9.93c0.05-1.24-1.19-2.65-2.5-2.5
			c-0.94,0.11-1.88,0.22-2.82,0.32c0.8,1.05,1.61,2.11,2.41,3.16c0.25-1.24,0.51-2.49,0.76-3.73c-1.64-0.22-3.27-0.44-4.91-0.66
			c0.11,5.07,0.76,10.11,1.94,15.04c0.48,1.98,3.64,2.56,4.57,0.6c8.28-17.6,6.2-37.46,1.49-55.73c-1.4-5.41-3.01-10.75-4.62-16.1
			c-0.93-3.07-5.75-1.76-4.82,1.33c5.22,17.31,10.82,35.59,7.87,53.86c-0.78,4.86-2.13,9.65-4.23,14.12c1.52,0.2,3.05,0.4,4.57,0.6
			c-1.08-4.51-1.67-9.08-1.77-13.71c-0.06-2.72-4.33-3.52-4.91-0.66c-0.25,1.24-0.51,2.49-0.76,3.73c-0.29,1.42,0.68,3.36,2.41,3.16
			c0.94-0.11,1.88-0.22,2.82-0.32c-0.83-0.83-1.67-1.67-2.5-2.5c-0.16,3.78,0.2,7.56,1.01,11.26c0.26,1.2,1.58,1.97,2.74,1.79
			c1.31-0.2,2.03-1.18,2.17-2.46c1.56-14.16,1.72-28.45,0.49-42.64c-0.25-2.86-3.89-3.33-4.91-0.66c-3.02,7.86-4.49,16.28-4.35,24.7
			c0.02,1.27,1.13,2.61,2.5,2.5c2.98-0.25,4.72-2.53,5.43-5.28c0.73-2.82,0.94-5.89,0.88-8.79c-0.13-6.02-1.71-11.93-4.55-17.24
			c-1.04-1.95-3.98-1.39-4.57,0.6c-2,6.71-0.44,13.93-2.55,20.58c-0.99,3.13-3.17,5.49-5.74,7.45c-2.74,2.09-7.18,4.02-5.89,8.26
			c0.62,2.02,2.46,3.56,4.42,4.22c2.03,0.68,4.24,0.3,6.26,1.02c2.64,0.93,4.52-3.41,1.93-4.57c-2.06-0.92-4.11-1.84-6.17-2.75
			c-1.03-0.46-2.06-0.92-3.08-1.38c-0.44-0.2-0.89-0.38-1.32-0.59c-0.22-0.09-0.42-0.2-0.62-0.32c0.04,0.67,0.08,1.34,0.13,2.01
			c0.06,0.03,1.12-0.51,1.19-0.53c0.4-0.15,0.79-0.3,1.2-0.42c0.82-0.26,1.7-0.51,2.57-0.43c1.4,0.13,2.34,1.34,3.4,2.15
			c1.51,1.15,3.29,1.71,5.16,1.16c1.9-0.56,3.25-2.24,4.56-3.61c3.12-3.27,6.25-6.55,9.37-9.82c-1.18-1.18-2.36-2.36-3.54-3.54
			c-3.06,3.46-5.73,7.24-7.91,11.31c-1.09,2.03,1.26,4.98,3.42,3.42c2.74-1.99,5.49-3.98,8.23-5.97c-1.14-1.14-2.28-2.28-3.42-3.42
			c-2.61,4.36-5.22,8.72-7.82,13.07c1.44,0.84,2.88,1.68,4.32,2.52c2.99-5.26,5.33-10.88,6.95-16.71c0.64-2.3-2.5-4.38-4.18-2.43
			c-3.38,3.92-6.75,7.83-10.13,11.75c1.31,1.01,2.62,2.02,3.93,3.03c2.57-4.91,5.14-9.83,7.71-14.74c1.49-2.85-2.6-5.25-4.32-2.52
			c-3.79,6.02-6.98,12.36-9.62,18.96c1.61,0.44,3.21,0.89,4.82,1.33c2.29-6.56,3.81-13.32,4.67-20.22c0.33-2.6-3.48-3.2-4.66-1.26
			c-3.48,5.73-6.13,11.96-7.85,18.44c-0.82,3.11,3.98,4.44,4.82,1.33c2.36-8.73,4.09-17.6,5.28-26.57c0.32-2.42-3.69-3.47-4.66-1.26
			c-3.17,7.19-6.34,14.39-9.51,21.58c1.52,0.64,3.05,1.28,4.57,1.93c1.62-5.01,3.58-9.89,5.9-14.62c-1.52-0.64-3.05-1.28-4.57-1.93
			c-2.28,11.64-6.83,22.66-13.42,32.51c1.52,0.2,3.05,0.4,4.57,0.6c-3.96-12.14-3.18-25.03-2.4-37.59c0.18-2.84-4.21-3.36-4.91-0.66
			c-0.7,2.7-0.7,5.47,0.02,8.16c0.39,1.47,2.33,2.41,3.67,1.49c0.75-0.51,1.5-1.02,2.25-1.54c-1.25-0.72-2.51-1.44-3.76-2.16
			c-0.8,6.69-1.61,13.38-2.41,20.06c-0.33,2.77,4.45,3.44,4.91,0.66c1.04-6.24,2.07-12.48,3.11-18.72
			c-1.61-0.44-3.21-0.89-4.82-1.33c-0.93,5.83-0.91,11.62,0.07,17.44c1.52-0.64,3.05-1.28,4.57-1.93
			c-2.35-5.46-5.13-10.71-8.31-15.72c-1.3-2.04-4.69-1.3-4.66,1.26c0.05,4.05,0.31,8.34,3.06,11.57c2.46,2.88,6.62,4.02,10.03,2.24
			c1.1-0.57,1.69-2.38,0.9-3.42c-2.72-3.58-6.02-6.55-9.98-8.7c-1.4-0.76-3.25-0.11-3.67,1.49c-1.34,5.08-2.06,10.97,2.74,14.48
			c1.84,1.34,4.28,1.82,6.43,0.97c2.22-0.87,3.57-2.74,4.37-4.92c0.79-2.14,0.91-4.5,1.14-6.75c0.3-2.97,0.61-5.93,0.89-8.9
			c0.55-5.77,1.04-11.55,1.35-17.33c0.35-6.61,0.47-13.22,0.22-19.84c-0.09-2.37-3.44-3.54-4.66-1.26
			c-1.82,3.41-2.78,7.15-2.79,11.02c0,2.45,3.43,3.44,4.66,1.26c1.88-3.34,4.32-6.2,7.28-8.63c-1.39-0.81-2.79-1.62-4.18-2.43
			c-2.14,10.75-4.45,21.47-6.93,32.15c1.61,0.44,3.21,0.89,4.82,1.33c3.7-18.68,7.4-37.36,11.1-56.04
			c1.06-5.36,2.12-10.72,3.18-16.08c-1.64-0.22-3.27-0.44-4.91-0.66c-1.01,21.19-8.66,41.37-10.47,62.47
			c-0.25,2.88-0.38,5.78-0.37,8.67c0.01,2.62-0.12,5.91,2.55,7.35c1.48,0.8,3.15,0.07,3.67-1.49c3.94-11.82,5.17-24.51,3.52-36.86
			c-0.16-1.23-0.82-2.3-2.17-2.46c-1.16-0.14-2.49,0.55-2.74,1.79c-1.5,7.36-2.97,14.74-3.75,22.22c-0.38,3.68-0.59,7.38-0.51,11.09
			c0.07,3.41,0.14,7.19,1.13,10.48c1.92,6.42,8.58,7.28,14.33,6.59c1.57-0.19,3.15-0.39,4.38-1.5c1.37-1.23,1.61-3.02,1.93-4.73
			c0.68-3.61,1.29-7.24,1.84-10.88c1.27-8.38,2.22-16.81,2.83-25.27c-1.67,0-3.33,0-5,0c-0.22,9.76-0.02,19.52,0.61,29.27
			c0.21,3.19,4.9,3.24,5,0c0.54-17.44,0.22-34.9-0.95-52.3c-0.08-1.24-0.89-2.3-2.17-2.46c-1.11-0.13-2.56,0.55-2.74,1.79
			c-2.45,16.27-3.3,32.72-2.41,49.15c0.13,2.45,3.32,3.43,4.66,1.26c1.34-2.18,2.68-4.36,4.03-6.54c1.26-2.04,2.69-4.05,3.74-6.21
			c2.27-4.66,0.05-9.7-1.21-14.34c-2.65-9.76-5.15-19.57-7.49-29.41c-1.32-5.56-2.59-11.13-3.82-16.7c-0.52-2.36-4.33-2.41-4.82,0
			c-0.77,3.82,0.85,7.49,4.22,9.47c0.15,0.09,0.48,0.19,0.59,0.32c-0.02-0.03-0.11-0.47-0.04,0.01c0.03,0.18-0.01,0.4-0.02,0.58
			c-0.07,1.11-0.22,2.23-0.32,3.34c-0.22,2.3-0.41,4.6-0.59,6.9c-0.69,9.04-1.06,18.11-1.12,27.18c-0.03,5.11,0.03,10.22,0.2,15.33
			c1.64-0.22,3.27-0.44,4.91-0.66c-4.48-18.93-4.9-38.45-5.3-57.81c-0.07-3.27-4.7-3.16-5,0c-1.76,18.83-3.26,37.68-4.49,56.55
			c-0.35,5.36-0.67,10.71-0.98,16.07c-0.08,1.35,1.2,2.5,2.5,2.5c1.47,0,2.36-1.15,2.5-2.5c2.02-19.01,4.39-38.04,9.36-56.53
			c-1.61-0.44-3.21-0.89-4.82-1.33c-4.3,20.37-8.6,40.74-12.91,61.11c-1.22,5.76-2.43,11.52-3.65,17.29
			c1.64,0.22,3.27,0.44,4.91,0.66c1.37-27.87,2.73-55.73,4.1-83.6c0.38-7.8,0.76-15.59,1.15-23.39c0.14-2.81-4.25-3.4-4.91-0.66
			c-4.57,18.87-8.16,37.96-11.52,57.08c-0.95,5.41-1.88,10.81-2.82,16.22c1.64,0.22,3.27,0.44,4.91,0.66
			c1.26-19.51,4.97-38.9,11.16-57.45c1.58-4.73,3.48-9.32,6.49-13.33c-1.52-0.64-3.05-1.28-4.57-1.93
			C40.58,97.66,35.08,118.92,29,140.01c-1.72,5.98-3.49,11.95-5.3,17.91c1.64,0.22,3.27,0.44,4.91,0.66
			c1.01-15.2,3.32-30.27,6.89-45.08c-1.61-0.44-3.21-0.89-4.82-1.33c-3.26,16.87-5.87,33.86-7.83,50.92
			c-0.14,1.22,1.06,2.32,2.17,2.46c1.23,0.15,2.39-0.57,2.74-1.79c3.28-11.45,5.52-23.16,6.77-35c0.3-2.84-4.2-3.33-4.91-0.66
			c-1.67,6.27-2.7,12.72-3.05,19.2c-0.17,3.17-0.17,6.35-0.01,9.52c0.14,2.62,0.24,6.42,3.5,7.09c1.03,0.21,2.31-0.12,2.82-1.15
			c5.2-10.5,6.68-22.48,4.15-33.92c-0.46-2.1-3.56-2.43-4.57-0.6c-3.18,5.76-5.58,11.97-7.01,18.39
			c-1.29,5.79-2.83,12.85,1.14,17.92c1.03,1.32,3.17,0.72,3.93-0.51c3.38-5.45,5.19-11.84,5.18-18.25
			c-0.01-5.45-0.99-13.13-7.03-15.1c-1.13-0.37-2.19,0.27-2.82,1.15c-4.05,5.6-6.45,12.17-7.32,19.01
			c-0.43,3.36-0.41,6.75,0.02,10.1c0.44,3.37,1.08,7.16,2.82,10.14c1.86,3.18,5.62,4.44,9.07,3.16c3.49-1.3,5.55-4.35,7.03-7.62
			c3.15-6.96,5.4-14.32,6.65-21.86c1.43-8.62,1.66-17.38,0.55-26.05c-0.16-1.23-0.83-2.3-2.17-2.46c-1.15-0.14-2.51,0.55-2.74,1.79
			c-1.56,8.12-2.08,16.42-1.37,24.66c0.33,3.82,0.79,7.73,1.73,11.45c0.87,3.45,2.43,6.49,5.3,8.66c1.06,0.8,2.83,0.18,3.42-0.9
			c7.12-13.02,7.21-28.21,6.59-42.65c-0.06-1.35-1.11-2.5-2.5-2.5c-1.48,0-2.35,1.15-2.5,2.5c-1.65,14.74,0.08,29.83,4.98,43.83
			c0.62,1.77,2.76,2.47,4.18,1.1c4.23-4.05,4.67-10.34,5.35-15.8c0.82-6.53,1.29-13.11,1.5-19.69c0.42-13.12-0.21-26.25-1.21-39.33
			C64.68,82.05,64,74.74,63.3,67.42c-0.3-3.16-4.9-3.27-5,0c-0.37,12.49,0.39,24.96,2.17,37.33c0.32,2.26,3.54,2.24,4.57,0.6
			c4.2-6.73,3.09-14.97,1-22.21c-2.19-7.59-4.89-15.56-9.56-22.02c-1.44-1.99-4.52-1.33-4.66,1.26c-0.38,7.09-0.02,14.15,0.95,21.18
			c0.17,1.21,1.66,1.95,2.74,1.79c1.17-0.18,2.22-1.19,2.17-2.46c-0.49-11.13-1.38-22.24-2.65-33.31c-0.14-1.24-0.84-2.3-2.17-2.46
			c-1.13-0.13-2.53,0.55-2.74,1.79c-3.05,17.87-3.62,36.09-1.56,54.1c0.15,1.34,1.04,2.5,2.5,2.5c1.38,0,2.47-1.14,2.5-2.5
			c0.25-10.05-0.08-20.11-1.03-30.11c-0.83-8.76-1.65-18.28-6.92-25.67c-1.2-1.68-3.98-1.62-4.57,0.6
			c-4.09,15.26-7.07,31.15-6.02,47.02c0.3,4.51,0.92,9,1.89,13.42c0.51,2.3,4.44,2.47,4.82,0c2.96-19.17,5.16-38.46,6.53-57.8
			c0.39-5.5,0.71-11,0.98-16.51c0.14-2.92-4.06-3.25-4.91-0.66c-7.27,21.95-12.25,44.62-14.93,67.59
			c-0.76,6.47-1.32,12.97-1.7,19.47c-0.16,2.77,4.49,3.47,4.91,0.66c2.65-17.55,4.89-35.17,6.67-52.83
			c0.51-4.99,0.98-9.99,1.41-14.99c0.25-2.84-4.21-3.35-4.91-0.66c-3.72,14.29-6.62,28.78-9,43.35c-2.34,14.4-4,28.87-5.85,43.33
			c-1.01,7.87-2.37,15.73-4.87,23.28c1.64,0.22,3.27,0.44,4.91,0.66c0.79-17.18,2.71-34.3,5.8-51.22c0.88-4.81,1.85-9.59,2.9-14.36
			c-1.61-0.44-3.21-0.89-4.82-1.33c-2.51,14.47-5.61,28.83-9.3,43.04c1.61,0,3.21,0,4.82,0c-2.56-14.26-0.43-28.85,1.67-43.03
			c-1.64-0.22-3.27-0.44-4.91-0.66c-0.79,9.03-2.12,18-3.97,26.88c1.64,0.22,3.27,0.44,4.91,0.66c-0.72-5.65,0-11.22,2.16-16.49
			c-1.22,0.5-2.45,1-3.67,1.49c0.55,0.26,0.72,0.88,0.92,1.44c0.37,1.01,0.67,2.04,0.9,3.09c0.41,1.87,0.55,3.78,0.56,5.69
			c0.02,4.12-0.6,8.2-1.17,12.28c-0.59,4.25-1.19,8.53-1.04,12.83c0.15,4.44,1.03,8.91,2.71,13.03c0.76,1.87,1.93,3.6,4.02,4.1
			c2.16,0.51,4.24-0.55,5.81-1.96c2.81-2.54,4.62-6.49,5.78-10.03c2.53-7.74,2.28-16.3,1.43-24.29c-0.5-4.74-1.16-9.61-2.52-14.19
			c-1.2-4.05-3.22-7.81-6.83-10.17c-0.96-0.63-2.23-0.33-3.03,0.39c-8.34,7.5-12.24,19.16-10.58,30.19c0.4,2.64,0.99,5.68,2.83,7.73
			c2.22,2.48,5.68,2.22,7.98,0.01c2.13-2.04,3.49-5.14,4.73-7.77c1.39-2.95,2.57-6.01,3.49-9.14c2.02-6.89,2.81-14.17,2.31-21.34
			c-0.19-2.74-4.09-3.48-4.91-0.66c-2.77,9.5-4.08,19.45-3.82,29.34c0.13,4.74,0.55,9.53,1.49,14.19c0.88,4.34,2.4,8.65,5.11,12.2
			c0.7,0.92,1.65,1.44,2.82,1.15c6.63-1.65,8.81-8.94,10.01-14.84c1.72-8.43,3.02-16.94,4.01-25.48c1.94-16.84,2.58-33.8,2.59-50.74
			c0.01-9.62-0.19-19.23-0.46-28.84c-0.08-2.69-4.38-3.55-4.91-0.66c-2.04,11.16-3.17,22.47-3.32,33.81
			c-0.14,10.96,0.46,22.12,2.38,32.92c0.99,5.6,2.66,11.14,5.72,15.98c1.04,1.65,4.19,1.65,4.57-0.6
			c2.1-12.55,3.34-25.25,3.59-37.97c0.21-10.37-0.33-21.24-4.3-30.96c-1.12-2.74-2.44-5.38-4.11-7.82c-1.67-2.44-3.84-5.76-7.2-5.56
			c-1.28,0.08-2.59,1.08-2.5,2.5c0.73,11.46,2.82,22.81,6.28,33.76c0.37,1.18,1.49,1.98,2.74,1.79c1.13-0.17,2.28-1.2,2.17-2.46
			c-1.15-12.6-2.3-25.3-5.58-37.56c-0.68-2.54-1.37-5.85-4.23-6.78c-3.23-1.04-5.25,1.84-6.57,4.29c-2.8,5.19-4.96,10.73-6.72,16.36
			c-2.03,6.47-3.54,13.08-5.04,19.68c1.64,0.22,3.27,0.44,4.91,0.66c-0.37-9.67,0.25-19.35,1.93-28.88
			c-1.39,0.37-2.79,0.74-4.18,1.1c4.64,3.63,4.11,10.67,3.86,15.93c-0.34,7.04-1.49,14-2.96,20.89c-2.97,13.84-7.24,27.4-9.43,41.4
			c-1.23,7.85-1.83,15.79-1.15,23.73c0.11,1.24,0.87,2.3,2.17,2.46c1.14,0.14,2.51-0.55,2.74-1.79c3.31-17.46,5.2-35.2,5.56-52.97
			c0.1-5.04,0.08-10.08-0.05-15.11c-0.08-2.81-4.11-3.41-4.91-0.66c-3.57,12.18-7.13,24.36-10.7,36.54
			c1.64,0.22,3.27,0.44,4.91,0.66c1.52-18.36,5-36.52,10.29-54.17c-1.64-0.22-3.27-0.44-4.91-0.66
			c-1.67,16.51-2.49,33.09-2.45,49.69c0.01,2.84,4.11,3.37,4.91,0.66c1.45-4.94,2.2-10.08,2.22-15.24c0.01-2.85-4.1-3.35-4.91-0.66
			c-3.44,11.37-4.22,23.32-2.48,35.06c0.35,2.39,4.45,2.38,4.82,0c1.72-11.17,3.45-22.34,5.17-33.5
			c1.69-10.94,3.23-21.91,5.11-32.81c1.02-5.93,2.31-11.83,4.39-17.49c-1.64-0.22-3.27-0.44-4.91-0.66c0.4,3.5,0.79,6.99,1.19,10.49
			c0.36,3.17,4.73,3.25,5,0c0.56-6.73,1.39-13.43,2.51-20.1c-1.64-0.22-3.27-0.44-4.91-0.66c-0.69,6.23-0.15,12.55,1.51,18.59
			c0.66,2.39,4.15,2.36,4.82,0c2.03-7.12,2.28-14.59,0.84-21.84c-0.24-1.2-1.6-1.96-2.74-1.79c-1.29,0.19-2.06,1.18-2.17,2.46
			c-0.3,3.49-2.72,6.52-4.07,9.66c-1.4,3.25-2.15,6.71-2.24,10.25c-0.19,7.07,2.28,14.01,6.87,19.36c0.85,0.99,2.69,0.95,3.54,0
			c4.33-4.83,4.14-11.35,3.08-17.37c-0.49-2.75-0.94-6.14-3.16-8.09c-2.45-2.15-5.94-1.55-7.96,0.87c-2.06,2.48-2.8,5.77-3.48,8.85
			c-0.72,3.27-1.2,6.67-0.91,10.02c0.14,1.61,0.4,3.22,0.9,4.76c0.55,1.72,1.28,3.73,2.89,4.74c3.59,2.25,6.32-1.82,7.53-4.62
			c3.08-7.12,3.57-15.2,1.2-22.62c-0.46-1.45-2.27-2.43-3.67-1.49c-3.9,2.61-5.13,7.5-5.93,11.87c-0.94,5.14-1,10.32-0.23,15.48
			c0.6,3.99,1.76,8.23,4.66,11.19c1.32,1.35,3.43,2.74,5.39,2.74c2,0,3.95-2.77,4.97-4.25c2.27-3.29,3.21-7.35,3.51-11.28
			c0.3-3.89,0.11-8.26-0.97-12.03c-0.63-2.22-1.99-4.18-4.23-4.97c-2.07-0.73-4.4-0.09-6.16,1.11c-3.7,2.53-5.84,6.9-7.51,10.93
			c-3.3,8-3.95,17.09-1.99,25.51c0.48,2.05,1.13,4.05,1.93,5.99c0.9,2.16,1.84,4.38,3.79,5.81c2.12,1.55,4.92,1.28,6.52-0.87
			c1.29-1.72,1.85-4.19,2.31-6.27c1.9-8.67,0.44-18.33-4.47-25.81c-1.39-2.11-3.47-3.84-6.16-3.09c-2.18,0.61-3.59,2.63-4.42,4.61
			c-1.78,4.27-2.37,9.08-1.8,13.67c0.29,2.3,0.79,4.55,1.64,6.72c0.79,2.02,1.73,4.18,3.33,5.71c1.64,1.57,3.96,2.35,6.17,1.58
			c2.18-0.76,3.69-2.62,4.83-4.55c4.61-7.81,6.03-17.29,4.33-26.15c-0.41-2.14-1.03-4.23-1.84-6.25c-0.54-1.37-1.61-1.98-3.08-1.75
			c-4.91,0.77-6.82,6.54-7.97,10.65c-1.43,5.16-1.96,10.62-1.49,15.96c0.21,2.42,0.43,5.16,1.32,7.44c1.06,2.7,4.3,3.62,6.43,1.49
			c1.74-1.75,1.9-4.26,2.06-6.58c0.19-2.65,0.18-5.32-0.01-7.97c-0.45-6.07-1.8-12.04-4.09-17.67c-0.5-1.24-1.65-2.16-3.08-1.75
			c-3.01,0.87-3.83,3.88-4.58,6.56c-0.87,3.11-1.58,6.26-2.14,9.43c-1.11,6.35-1.62,12.79-1.51,19.23c0.06,3.22,4.95,3.22,5,0
			c0.25-16.08,0.03-32.16-0.65-48.22c-0.05-1.1-0.74-2.11-1.84-2.41c-0.98-0.27-2.39,0.15-2.82,1.15
			c-3.16,7.29-3.86,15.27-4.64,23.1c-0.82,8.22-1.32,16.48-1.52,24.74c-0.11,4.66-0.11,9.33-0.02,13.99c0.03,1.35,1.13,2.5,2.5,2.5
			c1.48,0,2.34-1.15,2.5-2.5c1.49-12.96,2.42-25.97,2.79-39.01c0.08-2.87-4.11-3.33-4.91-0.66c-3.34,11.18-4.88,22.89-4.54,34.55
			c0.04,1.35,1.12,2.5,2.5,2.5c1.49,0,2.33-1.15,2.5-2.5c2.32-17.97,4.64-35.94,6.96-53.91c0.66-5.11,1.32-10.22,1.98-15.33
			c0.16-1.21-1.07-2.32-2.17-2.46c-1.23-0.15-2.39,0.57-2.74,1.79C30,37.98,28.4,43.5,26.79,49.03c1.64,0.22,3.27,0.44,4.91,0.66
			c0.85-7.38,3.13-14.58,6.61-21.13c-1.52-0.64-3.05-1.28-4.57-1.93c-0.91,5.62-2.28,11.15-4.12,16.54
			c1.61,0.44,3.21,0.89,4.82,1.33c1.72-5.7,3.81-11.27,6.29-16.68c1.01-2.21-1.09-4.69-3.42-3.42c-0.67,0.37-1.34,0.73-2.02,1.1
			c-2.85,1.55-0.34,5.73,2.52,4.32c3.29-1.62,6.65-3.04,10.11-4.26c-0.64-1.52-1.28-3.05-1.93-4.57c-4.2,3-8.22,6.26-12.01,9.77
			c1.18,1.18,2.36,2.36,3.54,3.54c1.23-1.18,2.47-2.37,3.7-3.55C43.55,28.51,40.02,24.97,37.69,27.2L37.69,27.2z"/>
	</g>
</g>
<g>
	<g>
		<path class="st0" d="M33.52,161.98c-1.47-3.49-1.64-7.18-1.72-10.92c-0.05-2.3-3.57-3.63-4.66-1.26
			c-1.77,3.85-3.95,7.48-6.53,10.84c1.52,0.2,3.05,0.4,4.57,0.6c-0.54-2.28-0.9-4.66-0.72-7.01c0.11-1.49,0.55-3.05,1.85-3.79
			c-1.22-0.5-2.45-1-3.67-1.49c0.88,5.51,0.9,11.22,0.06,16.74c1.64,0.22,3.27,0.44,4.91,0.66c0.95-9.67,2.87-19.23,5.66-28.54
			c0.92-3.09-3.9-4.41-4.82-1.33c-2.91,9.74-4.84,19.74-5.83,29.87c-0.27,2.77,4.49,3.45,4.91,0.66c0.98-6.48,0.96-12.92-0.06-19.4
			c-0.26-1.64-2.4-2.21-3.67-1.49c-5.63,3.19-4.68,11.18-3.43,16.45c0.23,0.95,1.14,1.68,2.08,1.79c1.08,0.13,1.85-0.36,2.49-1.19
			c2.58-3.37,4.76-6.99,6.53-10.84c-1.55-0.42-3.11-0.84-4.66-1.26c0.09,4.13,0.28,8.39,1.9,12.25c0.52,1.24,1.65,2.14,3.08,1.75
			C32.94,164.74,34.04,163.24,33.52,161.98L33.52,161.98z"/>
	</g>
</g>
<path class="st1" d="M35,82.98c5.22-4.43,6.84-4.11,11.48,1.86c2.23,2.86,4.88,5.39,7.1,8.25c4.79,6.19,3.27,19.57-2.64,24.51
	c-6.8,5.67-22.75,0.7-24.91-7.71c-0.4-1.56-1.86-3.01-1.84-4.49c0.06-3.56-1.72-7.72,3.49-9.95c1.76-0.75,2.44-4,3.94-5.88
	c0.11,2.21-0.11,4.2-0.33,6.18c2.72-0.9,4.19-1.94,5.33-3.26C39.31,89.39,38.38,84.34,35,82.98z"/>
<path class="st2" d="M35.29,83.3c4.75,1.2,5.93,6.25,2.48,9.36c-1.46,1.32-3.34,2.36-6.82,3.26c0.28-1.99,0.56-3.97,0.85-6.34
	C32.83,87.28,33.85,85.37,35.29,83.3z"/>
</svg>
