<svg version="1.1" id="Layer_1" xmlns="http://www.w3.org/2000/svg" xmlns:xlink="http://www.w3.org/1999/xlink" x="0px" y="0px"
	 width="100%" viewBox="0 0 50 50" enable-background="new 0 0 50 50" xml:space="preserve">
<path fill="#000000" opacity="1.000000" stroke="none" 
	d="
M37.000000,1.000000 
	C41.654682,1.000000 46.309361,1.000000 50.982021,1.000000 
	C50.982021,17.611860 50.982021,34.223743 50.982021,50.917816 
	C34.431248,50.917816 17.862026,50.917816 1.146393,50.917816 
	C1.146393,34.334286 1.146393,17.667309 1.146393,1.000000 
	C5.067235,1.000000 9.056955,1.000000 13.524355,1.401937 
	C14.992855,4.050905 15.938223,6.319453 16.988577,8.538301 
	C17.861835,10.383042 18.901405,13.740984 19.793304,13.716646 
	C24.283691,13.594120 29.754082,16.221449 33.053684,11.799420 
	C35.249561,8.856573 35.744015,4.644169 37.000000,1.000000 
M14.265556,39.262272 
	C14.604865,40.406986 14.647387,41.783962 15.331846,42.658562 
	C19.642111,48.166237 25.668161,48.337162 31.993814,48.064163 
	C38.832336,47.769039 43.628353,42.124752 42.456703,35.161198 
	C41.317726,35.161198 40.176159,35.161198 38.253021,35.030266 
	C36.248158,36.090836 34.098598,36.949261 32.270958,38.257423 
	C29.218140,40.442528 20.111881,39.633301 17.387444,36.882610 
	C16.415794,35.901600 14.986622,35.373745 13.766290,34.639046 
	C13.491896,35.018097 13.217502,35.397144 12.943108,35.776196 
	C13.597760,36.818993 14.252413,37.861790 14.265556,39.262272 
z"/>
<path fill="#D70BB1" opacity="1.000000" stroke="none" 
	d="
M36.531376,1.000000 
	C35.744015,4.644169 35.249561,8.856573 33.053684,11.799420 
	C29.754082,16.221449 24.283691,13.594120 19.793304,13.716646 
	C18.901405,13.740984 17.861835,10.383042 16.988577,8.538301 
	C15.938223,6.319453 14.992855,4.050905 14.001017,1.401937 
	C21.354250,1.000000 28.708502,1.000000 36.531376,1.000000 
z"/>
<path fill="#D9BA94" opacity="1.000000" stroke="none" 
	d="
M39.034592,35.161198 
	C40.176159,35.161198 41.317726,35.161198 42.456703,35.161198 
	C43.628353,42.124752 38.832336,47.769039 31.993814,48.064163 
	C25.668161,48.337162 19.642111,48.166237 15.331846,42.658562 
	C14.647387,41.783962 14.604865,40.406986 14.923851,39.272964 
	C21.602770,42.193348 27.873499,42.538338 34.001949,40.129227 
	C36.018810,39.336388 37.375843,36.865028 39.034592,35.161198 
z"/>
<path fill="#BE9057" opacity="1.000000" stroke="none" 
	d="
M38.643806,35.095734 
	C37.375843,36.865028 36.018810,39.336388 34.001949,40.129227 
	C27.873499,42.538338 21.602770,42.193348 15.244606,39.094124 
	C14.252413,37.861790 13.597760,36.818993 12.943108,35.776196 
	C13.217502,35.397144 13.491896,35.018097 13.766290,34.639046 
	C14.986622,35.373745 16.415794,35.901600 17.387444,36.882610 
	C20.111881,39.633301 29.218140,40.442528 32.270958,38.257423 
	C34.098598,36.949261 36.248158,36.090836 38.643806,35.095734 
z"/>
</svg>