<?xml version="1.0" encoding="utf-8"?>
<!-- Generator: Adobe Illustrator 28.3.0, SVG Export Plug-In . SVG Version: 6.00 Build 0)  -->
<svg version="1.1" xmlns="http://www.w3.org/2000/svg" xmlns:xlink="http://www.w3.org/1999/xlink" x="0px" y="0px"
	 viewBox="0 0 80 200" style="enable-background:new 0 0 80 200;" xml:space="preserve">
<style type="text/css">
	.st0{fill:#010101;}
	.st1{fill:#110A0F;}
	.st2{fill:#130B11;}
	.st3{fill:#F1F2F2;}
	.st4{fill:#C03D96;}
	.st5{fill:#D8BA94;}
	.st6{display:none;}
	.st7{display:inline;fill:#F3F2F1;}
</style>
<g id="Layer_1">
	<path class="st0" d="M41.6,200c-14.4,0-28,0-41.6,0C0,133.33,0,66.67,0,0c26.67,0,53.33,0,80,0c0,66.67,0,133.33,0,200
		C67.47,200,54.93,200,41.6,200 M25.96,60.99c-1.88,8.43-2.98,21.42-5.79,24.43c-8.34,8.94-5.49,25.56-5.59,39.81
		c-0.04,5.93,2.3,11.71,2.94,17.95c3.46,33.64,28.99,53.53,39.86,30.83c9.46-19.73,11.88-73.28,4.22-98.03
		c-3.55-11.46-7.79-21.58-11.35-33.02c-7.43-23.85-10.01-25.14-19.4-6.18C29.58,44.43,28.3,52.07,25.96,60.99z"/>
	<path d="M16.04,2.83h47.91c6.6,0,12,5.4,12,12v169.41c0,6.6-5.4,12-12,12H16.04c-6.6,0-12-5.4-12-12V14.83
		C4.04,8.23,9.44,2.83,16.04,2.83z"/>
	<path class="st1" d="M44.03,94.73c-3.96-4.84-8.18-7.51-13.56-2.84"/>
	<path class="st2" d="M31.39,93.94c-1.05,3.5-5.55,1.2-7.43,4.37c-1.78-6.34,2.98-3.87,5.87-4.43
		C30.56,93.88,30.8,93.89,31.39,93.94z"/>
	<path class="st3" d="M30.23,109.15c0.82,3.21,2.68,4.42,5.83,4.01c3.81-0.49,7.63-0.88,11.67-1.66c2.48-1.61,4.74-2.87,7.47-4.4
		c0.61,5.51-2.82,12.17-6.7,12.6c-5.11,0.56-10.53,0.45-15.53-0.68c-4.89-1.1-7.5-5.39-7.91-10.79
		C26.28,108.47,28.07,108.81,30.23,109.15z"/>
	<path class="st4" d="M32.17,110.61c2.16-0.94,2.83-1.54,1.65-4.52c-1.83-4.6-4.74-6.87-8.99-8.59c-1.52-0.62-2.58-2.63-3.57-4.19
		c-0.77-1.21-1.11-2.7-1.76-4.38c4.61-1.09,3.16-9,8.91-9.51c0,4.44,0,8.37,0,12.3c2.46-4.16,8.42-8.98,12.56-9.27
		c7.99-0.56,8.89-0.12,12.18,6.15c1.16-0.44,2.35-0.9,3.53-1.35c-1.01-2.47-1.97-4.86-3.26-8.03c7.13,2.21,9.41,9.43,5.58,14.24
		c-1.67,2.09-3.72,3.88-5.3,6.03c-1.98,2.68-3.65,5.59-5.67,8.73c1.45,0.11,2.43,0.18,3.62,0.62c-1.35,1.5-2.91,2.64-4.93,3.71
		c-3.43-0.05-6.56-0.61-9.35,0.13C34.67,113.4,33.38,112.62,32.17,110.61z"/>
	<path class="st5" d="M26.88,109.51c1.55,2.2,2.84,2.98,5.54,2.26c2.79-0.74,5.92-0.18,9.29,0.18c1.78,2.15,3.17,3.92,4.56,5.69
		c-0.02,0.61-0.04,1.22-0.06,1.83c-6.92-0.43-14.72,2.39-19.82-4.95c-1.29-1.86-1.89-4.2-2.81-6.33c0.48-0.24,0.96-0.48,1.44-0.72
		C25.53,108.09,26.03,108.71,26.88,109.51z"/>
	<path class="st5" d="M48.52,119.28c-1.78-1.72-3.17-3.49-4.49-5.58c1.63-1.45,3.19-2.58,4.91-4.02c1.95-0.8,3.74-1.31,5.6-1.83
		C55.42,114.19,53.73,117.36,48.52,119.28z"/>
</g>
<g id="Layer_1_copy" class="st6">
	<path class="st7" d="M35.29,83.3"/>
	<path class="st7" d="M30.95,95.92"/>
</g>
</svg>
