<svg version="1.1" id="Layer_1" xmlns="http://www.w3.org/2000/svg" xmlns:xlink="http://www.w3.org/1999/xlink" x="0px" y="0px"
	 width="100%" viewBox="0 0 50 50" enable-background="new 0 0 50 50" xml:space="preserve">
<path fill="#000000" opacity="1.000000" stroke="none" 
	d="
M21.275888,50.721638 
	C15.013788,51.000000 9.026449,50.936356 3.042118,51.042408 
	C1.441335,51.070778 0.924192,50.909348 0.937617,49.050110 
	C1.048074,33.752811 1.055716,18.453928 0.934904,3.156786 
	C0.918373,1.063646 1.670661,0.962777 3.333497,0.968648 
	C18.465120,1.022074 33.597183,1.033667 48.728592,0.955656 
	C50.537220,0.946332 51.067184,1.280851 51.054558,3.218836 
	C50.955956,18.350006 50.928146,33.482800 51.074989,48.613186 
	C51.097858,50.969810 50.312012,51.089546 48.396530,51.046902 
	C42.579498,50.917385 36.757740,51.000000 30.468912,51.000000 
	C27.160357,46.143745 32.935543,47.247612 34.311554,44.897812 
	C35.094185,44.204361 35.691738,43.847595 36.625179,43.375202 
	C37.415337,43.153816 37.880829,43.152470 38.675941,43.353352 
	C39.799480,43.973454 40.075180,44.883228 40.889999,45.655220 
	C41.681793,45.762329 41.883625,45.516163 41.462830,44.774292 
	C41.136768,44.435627 41.000317,44.300014 40.663177,43.950756 
	C39.135689,42.520874 37.404049,42.588749 35.491508,42.121418 
	C32.582157,37.896278 32.757439,35.909359 36.514469,32.017052 
	C39.292747,29.138735 42.169018,26.410961 43.345493,22.390545 
	C43.690456,21.211689 44.027973,20.170513 42.790119,18.646627 
	C42.669422,20.884512 41.886715,22.441355 39.923298,22.970779 
	C37.914623,23.512411 36.448627,22.550797 34.991474,21.292448 
	C29.920647,16.913454 23.916069,17.241611 19.267036,22.080427 
	C18.691477,22.679485 18.121321,23.286299 17.574930,23.912180 
	C16.497459,25.146404 15.598670,26.815590 13.552048,26.118515 
	C11.592669,25.451151 10.818859,23.818636 10.626180,21.866282 
	C10.528430,20.875814 10.761500,19.872433 10.526327,18.885170 
	C6.476859,24.506966 7.059380,27.007931 13.176657,30.262127 
	C18.112932,32.888069 19.677835,35.596523 18.886234,40.765041 
	C18.385069,41.436108 18.054802,41.840004 17.608671,42.000042 
	C16.026188,42.567722 14.944790,43.592388 15.799514,45.247276 
	C16.874008,47.327671 18.222389,45.676323 19.788403,45.051907 
	C20.904709,44.806740 21.639944,44.912567 22.655041,45.473778 
	C24.235439,47.807896 22.928450,49.135990 21.275888,50.721638 
z"/>
<path fill="#D9BA94" opacity="1.000000" stroke="none" 
	d="
M21.449980,51.000000 
	C21.482897,49.512222 20.902256,47.579414 23.086710,46.015404 
	C25.238602,43.881237 27.502708,44.850903 29.877241,44.275864 
	C32.151974,44.159527 34.034801,44.287895 35.815308,45.863289 
	C37.469101,48.247322 35.835655,47.960808 34.606598,48.001282 
	C32.494453,48.070827 29.984688,47.282104 29.639372,50.717331 
	C27.299986,51.000000 24.599974,51.000000 21.449980,51.000000 
z"/>
<path fill="#D70BB1" opacity="1.000000" stroke="none" 
	d="
M36.295776,46.016640 
	C34.243805,47.526203 32.579678,45.908253 30.514503,46.003632 
	C27.972288,44.864582 25.770601,43.850147 23.177307,45.833138 
	C22.952339,46.075199 22.919050,45.992344 22.959236,45.973503 
	C22.228123,45.977638 21.456821,46.000610 20.304989,46.089935 
	C17.884567,47.153339 16.531616,46.715508 16.139053,43.980492 
	C16.351444,42.964905 16.716721,42.424191 17.646006,41.540161 
	C18.394400,35.996517 15.801991,32.908432 11.100484,32.041042 
	C5.870122,31.076077 7.100744,25.576038 4.151025,23.129559 
	C5.866110,21.758879 6.877471,19.870245 7.957423,18.023247 
	C8.181450,17.640102 8.625105,17.386120 8.964936,17.069815 
	C10.305731,15.821836 9.201033,12.382286 12.685190,13.016357 
	C14.152973,13.283475 14.038855,14.231562 13.883155,15.209211 
	C13.724174,16.207455 11.440554,16.350414 12.209967,17.153801 
	C14.541994,19.588808 10.033837,23.802336 14.591105,25.321156 
	C15.646386,21.187370 21.140146,16.206738 25.473001,16.069330 
	C29.980400,15.926386 35.194187,14.384916 37.144814,20.974977 
	C37.800194,23.189131 39.513042,21.593609 40.747402,21.043055 
	C42.719364,20.163513 40.431137,19.250341 40.765224,18.356709 
	C38.711914,17.924801 38.962822,16.336412 39.013039,14.854483 
	C39.041031,14.028248 39.009323,13.069241 40.173573,13.088700 
	C40.752728,13.098380 41.477058,13.316279 41.878784,13.705306 
	C47.356155,19.009497 46.729164,25.820148 40.613373,31.191792 
	C37.789371,33.672180 33.610703,35.671787 35.664978,40.967476 
	C36.688572,41.758274 37.409092,42.329418 37.284546,43.682308 
	C36.974598,44.622475 36.782978,45.244740 36.295776,46.016640 
z"/>
<path fill="#CEA97B" opacity="1.000000" stroke="none" 
	d="
M18.167049,42.560242 
	C16.254818,44.758617 16.845453,45.758495 19.570770,46.096958 
	C19.204506,47.236469 18.484556,48.316658 17.722654,49.459789 
	C15.696021,48.088615 13.071529,46.903210 13.970648,43.499214 
	C14.272780,42.355354 12.246365,41.387070 13.645334,40.418320 
	C15.320253,39.258488 16.253468,41.157604 17.757034,41.407722 
	C18.013910,41.061703 18.001337,40.975285 17.958183,40.981941 
	C18.325445,41.323624 18.490240,41.752934 18.167049,42.560242 
z"/>
<path fill="#B98A50" opacity="1.000000" stroke="none" 
	d="
M41.732716,42.744480 
	C42.080650,42.953373 42.562984,43.001644 42.793446,43.076694 
	C44.044815,45.162346 42.796623,46.476223 41.239929,47.944878 
	C39.014736,47.731377 36.774315,47.622032 38.806496,44.442116 
	C39.309574,42.918232 40.140438,42.404514 41.732716,42.744480 
z"/>
<path fill="#D9BA94" opacity="1.000000" stroke="none" 
	d="
M42.044632,42.578377 
	C41.233253,43.249443 40.385860,43.545509 39.228340,43.979446 
	C38.529713,44.078793 38.141201,44.040264 37.459457,44.000977 
	C36.788708,43.265915 36.411198,42.531620 36.016914,41.481983 
	C37.474403,40.332443 39.394703,42.560101 40.925266,40.191738 
	C41.404305,39.450481 41.880360,41.321182 42.044632,42.578377 
z"/>
<path fill="#D9BA94" opacity="1.000000" stroke="none" 
	d="
M41.075363,48.411102 
	C41.550774,46.662411 42.216984,45.239552 42.953552,43.484222 
	C46.310371,44.132282 43.626118,46.345078 43.821850,47.891937 
	C44.045673,49.660805 42.296555,48.856525 41.075363,48.411102 
z"/>
<path fill="#000000" opacity="1.000000" stroke="none" 
	d="
M23.352306,46.042294 
	C24.842127,41.928986 27.205252,42.301937 30.007755,45.676514 
	C28.028522,46.003242 25.890396,46.006317 23.352306,46.042294 
z"/>
<path fill="#0E010C" opacity="1.000000" stroke="none" 
	d="
M29.927683,29.813854 
	C28.406263,31.283430 26.847002,31.866087 26.106285,29.620962 
	C25.613413,28.127060 26.125811,26.456274 27.905928,26.138981 
	C30.831251,25.617561 29.749767,27.997786 29.927683,29.813854 
z"/>
<path fill="#000000" opacity="1.000000" stroke="none" 
	d="
M18.243622,42.851624 
	C17.693102,42.364864 17.461538,41.885761 17.572502,41.197632 
	C18.520992,41.121037 19.126955,41.253471 19.732918,41.385906 
	C19.342806,41.877033 18.952692,42.368160 18.243622,42.851624 
z"/>
</svg>