<?xml version="1.0" encoding="utf-8"?>
<!-- Generator: Adobe Illustrator 28.3.0, SVG Export Plug-In . SVG Version: 6.00 Build 0)  -->
<svg version="1.1" xmlns="http://www.w3.org/2000/svg" xmlns:xlink="http://www.w3.org/1999/xlink" x="0px" y="0px"
	 viewBox="0 0 80 200" style="enable-background:new 0 0 80 200;" xml:space="preserve">
<style type="text/css">
	.st0{fill:#010101;}
	.st1{fill:#110A0F;}
	.st2{fill:#130B11;}
	.st3{fill:#D8BA94;}
	.st4{fill:#C03D96;}
	.st5{fill:#CFAA7C;}
	.st6{display:none;}
	.st7{display:inline;fill:#F3F2F1;}
</style>
<g id="Layer_1">
	<path class="st0" d="M41.6,200c-14.4,0-28,0-41.6,0C0,133.33,0,66.67,0,0c26.67,0,53.33,0,80,0c0,66.67,0,133.33,0,200
		C67.47,200,54.93,200,41.6,200 M25.96,60.99c-1.88,8.43-2.98,21.42-5.79,24.43c-8.34,8.94-5.49,25.56-5.59,39.81
		c-0.04,5.93,2.3,11.71,2.94,17.95c3.46,33.64,28.99,53.53,39.86,30.83c9.46-19.73,11.88-73.28,4.22-98.03
		c-3.55-11.46-7.79-21.58-11.35-33.02c-7.43-23.85-10.01-25.14-19.4-6.18C29.58,44.43,28.3,52.07,25.96,60.99z"/>
	<path d="M16.04,2.83h47.91c6.6,0,12,5.4,12,12v169.41c0,6.6-5.4,12-12,12H16.04c-6.6,0-12-5.4-12-12V14.83
		C4.04,8.23,9.44,2.83,16.04,2.83z"/>
	<path class="st1" d="M44.03,94.73c-3.96-4.84-8.18-7.51-13.56-2.84"/>
	<path class="st2" d="M31.39,93.94c-1.05,3.5-5.55,1.2-7.43,4.37c-1.78-6.34,2.98-3.87,5.87-4.43
		C30.56,93.88,30.8,93.89,31.39,93.94z"/>
	<path class="st3" d="M27.25,110.26c1.55,2.2,2.84,2.98,5.54,2.26c2.79-0.74,5.92-0.18,9.29,0.18c1.78,2.15,3.17,3.92,4.56,5.69
		c-0.02,0.61-0.04,1.22-0.06,1.83c-6.92-0.43-14.72,2.39-19.82-4.95c-1.29-1.86-1.89-4.2-2.81-6.33c0.48-0.24,0.96-0.48,1.44-0.72
		C25.89,108.85,26.4,109.46,27.25,110.26z"/>
	<path class="st3" d="M48.52,119.28c-1.78-1.72-3.17-3.49-4.49-5.58c1.63-1.45,3.19-2.58,4.91-4.02c1.95-0.8,3.74-1.31,5.6-1.83
		C55.42,114.19,53.73,117.36,48.52,119.28z"/>
	<path class="st4" d="M51.04,112.29c-2.05,1.51-3.72-0.11-5.78-0.01c-2.54-1.14-4.74-2.15-7.34-0.17c-0.22,0.24-0.26,0.16-0.22,0.14
		c-0.73,0-1.5,0.03-2.65,0.12c-2.42,1.06-3.77,0.63-4.17-2.11c0.21-1.02,0.58-1.56,1.51-2.44c0.75-5.54-1.84-8.63-6.55-9.5
		c-5.23-0.96-4-6.47-6.95-8.91c1.72-1.37,2.73-3.26,3.81-5.11c0.22-0.38,0.67-0.64,1.01-0.95c1.34-1.25,0.24-4.69,3.72-4.05
		c1.47,0.27,1.35,1.22,1.2,2.19c-0.16,1-2.44,1.14-1.67,1.94c2.33,2.44-2.18,6.65,2.38,8.17c1.06-4.13,6.55-9.11,10.88-9.25
		c4.51-0.14,9.72-1.68,11.67,4.91c0.66,2.21,2.37,0.62,3.6,0.07c1.97-0.88-0.32-1.79,0.02-2.69c-2.05-0.43-1.8-2.02-1.75-3.5
		c0.03-0.83,0-1.79,1.16-1.77c0.58,0.01,1.3,0.23,1.71,0.62c5.48,5.3,4.85,12.11-1.27,17.49c-2.82,2.48-7,4.48-4.95,9.78
		c1.02,0.79,1.74,1.36,1.62,2.71C51.72,110.9,51.53,111.52,51.04,112.29z"/>
	<path class="st3" d="M51.7,120.88c0.48-1.75,1.14-3.17,1.88-4.93c3.36,0.65,0.67,2.86,0.87,4.41
		C54.67,122.13,52.92,121.33,51.7,120.88z"/>
	<path class="st3" d="M51.7,122.59c-0.81,0.67-1.66,0.97-2.82,1.4c-0.7,0.1-1.09,0.06-1.77,0.02c-0.67-0.74-1.05-1.47-1.44-2.52
		c1.46-1.15,3.38,1.08,4.91-1.29C51.05,119.46,51.53,121.33,51.7,122.59z"/>
	<path class="st5" d="M30.78,116.08c-3.14,2.2-2.17,3.2,2.31,3.54c-0.6,1.14-1.78,2.22-3.04,3.36c-3.33-1.37-7.64-2.56-6.16-5.96
		c0.5-1.14-2.83-2.11-0.53-3.08c2.75-1.16,4.28,0.74,6.75,0.99c0.42-0.35,0.4-0.43,0.33-0.43
		C31.04,114.85,31.31,115.27,30.78,116.08z"/>
	<path class="st2" d="M43.12,97.3c-1.52,1.47-3.08,2.05-3.82-0.19c-0.49-1.49,0.02-3.16,1.8-3.48
		C44.02,93.11,42.94,95.49,43.12,97.3z"/>
</g>
<g id="Layer_1_copy" class="st6">
	<path class="st7" d="M35.29,83.3"/>
	<path class="st7" d="M30.95,95.92"/>
</g>
</svg>
