<svg version="1.1" id="Layer_1" xmlns="http://www.w3.org/2000/svg" xmlns:xlink="http://www.w3.org/1999/xlink" x="0px" y="0px"
	 width="100%" viewBox="0 0 50 50" enable-background="new 0 0 50 50" xml:space="preserve">
<path fill="#000000" opacity="1.000000" stroke="none" 
	d="
M36.011639,51.000000 
	C24.009508,51.000000 12.509784,51.000000 1.007545,51.000000 
	C1.005030,34.337090 1.005030,17.674175 1.002514,1.008446 
	C17.662512,1.005631 34.325024,1.005631 50.990654,1.002814 
	C50.993767,17.662109 50.993767,34.324223 50.993767,51.000000 
	C46.171352,51.000000 41.342701,51.000000 36.011639,51.000000 
M36.813789,46.012493 
	C41.637730,44.135841 43.319679,40.968601 42.438114,34.633915 
	C40.579865,35.157669 38.789936,35.662167 36.262890,36.025387 
	C35.284035,35.953491 34.305183,35.881599 32.857445,35.775265 
	C34.874660,32.637489 36.550232,29.730330 38.529652,27.047337 
	C40.113106,24.901056 42.168285,23.108772 43.834309,21.016232 
	C47.667385,16.201841 45.378536,8.982423 38.253014,6.773282 
	C39.539654,9.939760 40.508911,12.325135 41.514496,14.799921 
	C40.335667,15.252134 39.147518,15.707923 37.989399,16.152191 
	C34.699272,9.880500 33.792900,9.436656 25.805708,10.001629 
	C21.665594,10.294479 15.703444,15.108413 13.246238,19.270710 
	C13.246238,15.342039 13.246238,11.413368 13.246238,6.973053 
	C7.490078,7.484570 8.940144,15.394885 4.333015,16.482689 
	C4.982807,18.156672 5.320702,19.646061 6.092220,20.859819 
	C7.081646,22.416391 8.142437,24.435726 9.660688,25.051025 
	C13.907214,26.772009 16.814728,29.045341 18.647188,33.642265 
	C19.834871,36.621696 19.160604,37.225845 16.318153,37.791637 
	C15.810198,37.177021 15.302241,36.562408 14.794285,35.947792 
	C14.313668,36.188519 13.833052,36.429245 13.352435,36.669971 
	C14.269657,38.791611 14.867658,41.135014 16.160364,42.995796 
	C21.262980,50.340740 29.059641,47.511726 35.983131,47.945961 
	C36.002892,47.335484 36.022655,46.725010 36.813789,46.012493 
z"/>
<path fill="#D70BB1" opacity="1.000000" stroke="none" 
	d="
M16.999989,38.166664 
	C19.160604,37.225845 19.834871,36.621696 18.647188,33.642265 
	C16.814728,29.045341 13.907214,26.772009 9.660688,25.051025 
	C8.142437,24.435726 7.081646,22.416391 6.092220,20.859819 
	C5.320702,19.646061 4.982807,18.156672 4.333015,16.482689 
	C8.940144,15.394885 7.490078,7.484570 13.246238,6.973053 
	C13.246238,11.413368 13.246238,15.342039 13.246238,19.270710 
	C15.703444,15.108413 21.665594,10.294479 25.805708,10.001629 
	C33.792900,9.436656 34.699272,9.880500 37.989399,16.152191 
	C39.147518,15.707923 40.335667,15.252134 41.514496,14.799921 
	C40.508911,12.325135 39.539654,9.939760 38.253014,6.773282 
	C45.378536,8.982423 47.667385,16.201841 43.834309,21.016232 
	C42.168285,23.108772 40.113106,24.901056 38.529652,27.047337 
	C36.550232,29.730330 34.874660,32.637489 32.857445,35.775265 
	C34.305183,35.881599 35.284035,35.953491 36.473373,36.395363 
	C35.121494,37.899113 33.559135,39.032887 31.545216,40.106129 
	C28.113073,40.055355 24.980883,39.495808 22.195246,40.237629 
	C19.498314,40.955826 18.208965,40.175156 16.999989,38.166664 
z"/>
<path fill="#D9BA94" opacity="1.000000" stroke="none" 
	d="
M16.659071,37.979149 
	C18.208965,40.175156 19.498314,40.955826 22.195246,40.237629 
	C24.980883,39.495808 28.113073,40.055355 31.481930,40.420967 
	C33.260941,42.569069 34.651676,44.341801 36.042416,46.114532 
	C36.022655,46.725010 36.002892,47.335484 35.983131,47.945961 
	C29.059641,47.511726 21.262980,50.340740 16.160364,42.995796 
	C14.867658,41.135014 14.269657,38.791611 13.352435,36.669971 
	C13.833052,36.429245 14.313668,36.188519 14.794285,35.947792 
	C15.302241,36.562408 15.810198,37.177021 16.659071,37.979149 
z"/>
<path fill="#D9BA94" opacity="1.000000" stroke="none" 
	d="
M36.428101,46.063515 
	C34.651676,44.341801 33.260941,42.569069 31.933487,40.481499 
	C33.559135,39.032887 35.121494,37.899113 36.841934,36.466003 
	C38.789936,35.662167 40.579865,35.157669 42.438114,34.633915 
	C43.319679,40.968601 41.637730,44.135841 36.428101,46.063515 
z"/>
</svg>