<?xml version="1.0" encoding="utf-8"?>
<!-- Generator: Adobe Illustrator 28.3.0, SVG Export Plug-In . SVG Version: 6.00 Build 0)  -->
<svg version="1.1" xmlns="http://www.w3.org/2000/svg" xmlns:xlink="http://www.w3.org/1999/xlink" x="0px" y="0px"
	 viewBox="0 0 80 200" style="enable-background:new 0 0 80 200;" xml:space="preserve">
<style type="text/css">
	.st0{fill:#010101;}
	.st1{fill:#D8BA94;}
	.st2{fill:#110A0F;}
	.st3{display:none;}
	.st4{display:inline;fill:#F3F2F1;}
</style>
<g id="Layer_1">
	<path class="st0" d="M41.6,200c-14.4,0-28,0-41.6,0C0,133.33,0,66.67,0,0c26.67,0,53.33,0,80,0c0,66.67,0,133.33,0,200
		C67.47,200,54.93,200,41.6,200 M25.96,60.99c-1.88,8.43-2.98,21.42-5.79,24.43c-8.34,8.94-5.49,25.56-5.59,39.81
		c-0.04,5.93,2.3,11.71,2.94,17.95c3.46,33.64,28.99,53.53,39.86,30.83c9.46-19.73,11.88-73.28,4.22-98.03
		c-3.55-11.46-7.79-21.58-11.35-33.02c-7.43-23.85-10.01-25.14-19.4-6.18C29.58,44.43,28.3,52.07,25.96,60.99z"/>
	<path d="M15.79,2.13H63.7c6.6,0,12,5.4,12,12v169.41c0,6.6-5.4,12-12,12H15.79c-6.6,0-12-5.4-12-12V14.13
		C3.79,7.53,9.19,2.13,15.79,2.13z"/>
	<path class="st1" d="M32.43,90.55c-0.41-5.24,3.77-7.46,6.65-9.92c2.52-2.15,6.92,0.32,7.79,2.27c1.91,4.31,6.03,6.34,8.34,10.27
		c3.9,6.63,2.66,20.5-3.51,24.92c-7.34,5.26-21.75,0.14-24.59-8.14c-0.87-2.55-1.46-4.92-1.86-7.54c-0.57-3.79,1.09-5.74,4.69-7
		c2.65-3.41,5.49-4.89,9.2-2.98C37.42,90.75,34.52,92.72,32.43,90.55z"/>
	<path class="st2" d="M44.03,94.73c-3.96-4.84-8.18-7.51-13.56-2.84"/>
	<path class="st1" d="M25.26,104.07c-0.2-1.07,2.37-24.27,5.85-9.96c1.49,1.52,0.34,2.24-1.16,2.96"/>
</g>
<g id="Layer_1_copy" class="st3">
	<path class="st4" d="M35.29,83.3"/>
	<path class="st4" d="M30.95,95.92"/>
</g>
</svg>
