<svg version="1.1" id="Layer_1" xmlns="http://www.w3.org/2000/svg" xmlns:xlink="http://www.w3.org/1999/xlink" x="0px" y="0px"
	 width="100%" viewBox="0 0 50 50" enable-background="new 0 0 50 50" xml:space="preserve">
<path fill="#000000" opacity="1.000000" stroke="none" 
	d="
M28.000162,51.000000 
	C19.500111,51.000000 11.498063,50.900681 3.501477,51.065804 
	C1.347027,51.110294 0.918689,50.649303 0.936030,48.499607 
	C1.057024,33.500591 1.056977,18.499676 0.936068,3.500658 
	C0.918743,1.351510 1.350630,0.918686 3.500372,0.936028 
	C18.499388,1.057027 33.500298,1.056973 48.499317,0.936072 
	C50.648407,0.918749 51.081314,1.350559 51.063972,3.500348 
	C50.942966,18.499365 50.943027,33.500275 51.063919,48.499294 
	C51.081242,50.648331 50.655922,51.124607 48.498398,51.066025 
	C41.836651,50.885147 35.166874,51.000000 28.000162,51.000000 
z"/>
<path fill="#D9BA94" opacity="1.000000" stroke="none" 
	d="
M17.081573,17.318752 
	C16.668585,12.074225 20.849642,9.861213 23.735981,7.396216 
	C26.252125,5.247376 30.658684,7.715248 31.523664,9.663372 
	C33.436169,13.970757 37.548897,16.006931 39.859333,19.932652 
	C43.761662,26.563198 42.522644,40.433567 36.353348,44.849010 
	C29.009743,50.104908 14.602465,44.992622 11.764313,36.712002 
	C10.891716,34.166107 10.302717,31.793629 9.908067,29.176044 
	C9.336416,25.384474 10.999672,23.441048 14.599755,22.172417 
	C17.250351,18.764420 20.090042,17.278105 23.799587,19.191154 
	C22.073286,17.526358 19.165422,19.491407 17.081573,17.318752 
z"/>
<path fill="#0C010A" opacity="1.000000" stroke="none" 
	d="
M16.963753,17.014431 
	C20.472017,17.297073 24.333317,16.094893 27.032412,19.914762 
	C28.076029,21.391739 29.237795,22.546926 28.692993,25.250513 
	C24.732252,20.414700 20.510895,17.735794 15.130749,22.413820 
	C14.982915,21.598900 14.999711,21.109377 15.032318,20.252747 
	C15.906259,19.259214 15.977126,18.147232 16.794155,17.149435 
	C16.991081,16.924868 17.007114,17.010464 16.963753,17.014431 
z"/>
<path fill="#D9BA94" opacity="1.000000" stroke="none" 
	d="
M16.624336,16.963324 
	C18.116224,18.481817 16.963268,19.204597 15.465084,19.919640 
	C15.262625,18.845230 14.226801,17.280453 16.624336,16.963324 
z"/>
</svg>