<svg version="1.1" id="Layer_1" xmlns="http://www.w3.org/2000/svg" xmlns:xlink="http://www.w3.org/1999/xlink" x="0px" y="0px"
	 width="100%" viewBox="0 0 50 50" enable-background="new 0 0 50 50" xml:space="preserve">
<path fill="#000000" opacity="1.000000" stroke="none" 
	d="
M29.000290,51.000000 
	C20.166897,51.000000 11.831707,50.904015 3.501518,51.065712 
	C1.347846,51.107513 0.918670,50.649662 0.936017,48.499733 
	C1.057041,33.500721 1.056950,18.499809 0.936091,3.500794 
	C0.918776,1.351965 1.350241,0.918664 3.500234,0.936013 
	C18.499249,1.057046 33.500156,1.056943 48.499172,0.936097 
	C50.647923,0.918784 51.081341,1.350143 51.063988,3.500198 
	C50.942947,18.499212 50.943066,33.500118 51.063896,48.499134 
	C51.081207,50.647793 50.657013,51.129284 48.498421,51.066032 
	C42.170521,50.880585 35.833687,51.000000 29.000290,51.000000 
z"/>
<path fill="#D9BA94" opacity="1.000000" stroke="none" 
	d="
M18.311642,18.143021 
	C16.700953,18.011343 17.154613,20.712891 15.648941,19.734755 
	C14.532478,19.009460 15.379395,18.057047 16.146898,16.789288 
	C17.860439,13.958872 19.305918,11.099690 21.967911,8.962063 
	C25.516062,6.112832 29.692678,6.133096 31.780457,9.963376 
	C33.171169,12.514802 35.465622,13.971697 36.933483,16.591034 
	C36.766472,17.245693 36.627483,17.453922 36.476280,17.585329 
	C36.919147,17.816961 37.243103,17.471237 37.864380,17.201160 
	C43.330933,21.824913 41.928829,28.126442 41.981075,34.059116 
	C42.045055,41.325153 37.226013,45.913189 29.828693,46.024296 
	C23.494453,46.119434 17.263567,46.527664 13.130370,40.083942 
	C10.143724,35.427719 9.557704,30.446938 10.120312,25.242678 
	C10.321082,23.385502 12.394679,22.929922 13.982151,23.064678 
	C15.953419,23.232010 16.996616,22.416151 17.886852,20.459290 
	C18.260859,19.848579 18.471930,19.581247 18.744003,19.079922 
	C18.804287,18.845366 18.696983,18.380014 18.311642,18.143021 
z"/>
<path fill="#0E010C" opacity="1.000000" stroke="none" 
	d="
M37.809761,17.028286 
	C36.907738,20.111639 33.053772,18.082699 31.447079,20.874868 
	C29.925966,15.296868 34.003048,17.464685 36.472496,16.977177 
	C37.096924,16.975546 37.300602,16.990450 37.809761,17.028286 
z"/>
<path fill="#0E010C" opacity="1.000000" stroke="none" 
	d="
M22.543528,17.717405 
	C23.368420,19.946138 23.368420,19.946138 18.555138,20.065205 
	C18.023735,19.625128 17.997135,19.133911 17.948418,18.274361 
	C17.926300,17.906025 17.952045,17.964066 17.923077,17.951170 
	C19.227009,17.273918 20.643703,17.545439 22.543528,17.717405 
z"/>
<path fill="#0E010C" opacity="1.000000" stroke="none" 
	d="
M25.671141,19.445236 
	C26.798912,20.485292 28.202660,20.799084 27.368584,21.989428 
	C26.195290,23.663881 26.099913,21.640499 25.563667,21.255217 
	C24.530224,20.512711 22.558884,20.591406 23.544920,18.350716 
	C24.465511,18.458052 24.850002,18.693451 25.671141,19.445236 
z"/>
<path fill="#000000" opacity="1.000000" stroke="none" 
	d="
M22.911011,17.576719 
	C21.674246,17.901953 20.299477,17.936356 18.409409,17.954515 
	C19.324308,16.254284 21.090376,17.082062 22.911011,17.576719 
z"/>
<path fill="#000000" opacity="1.000000" stroke="none" 
	d="
M26.058704,19.642654 
	C25.717592,19.735718 25.327396,19.509823 24.509111,18.753284 
	C25.170935,17.806614 25.939022,17.954294 26.058704,19.642654 
z"/>
</svg>