<?xml version="1.0" encoding="utf-8"?>
<!-- Generator: Adobe Illustrator 28.3.0, SVG Export Plug-In . SVG Version: 6.00 Build 0)  -->
<svg version="1.1" xmlns="http://www.w3.org/2000/svg" xmlns:xlink="http://www.w3.org/1999/xlink" x="0px" y="0px"
	 viewBox="0 0 80 200" style="enable-background:new 0 0 80 200;" xml:space="preserve">
<style type="text/css">
	.st0{fill:#010101;}
	.st1{fill:#110A0F;}
	.st2{fill:#D8BA94;}
	.st3{fill:#130B11;}
	.st4{display:none;}
	.st5{display:inline;fill:#F3F2F1;}
</style>
<g id="Layer_1">
	<path class="st0" d="M41.6,200c-14.4,0-28,0-41.6,0C0,133.33,0,66.67,0,0c26.67,0,53.33,0,80,0c0,66.67,0,133.33,0,200
		C67.47,200,54.93,200,41.6,200 M25.96,60.99c-1.88,8.43-2.98,21.42-5.79,24.43c-8.34,8.94-5.49,25.56-5.59,39.81
		c-0.04,5.93,2.3,11.71,2.94,17.95c3.46,33.64,28.99,53.53,39.86,30.83c9.46-19.73,11.88-73.28,4.22-98.03
		c-3.55-11.46-7.79-21.58-11.35-33.02c-7.43-23.85-10.01-25.14-19.4-6.18C29.58,44.43,28.3,52.07,25.96,60.99z"/>
	<path d="M15.79,2.13H63.7c6.6,0,12,5.4,12,12v169.41c0,6.6-5.4,12-12,12H15.79c-6.6,0-12-5.4-12-12V14.13
		C3.79,7.53,9.19,2.13,15.79,2.13z"/>
	<path class="st1" d="M44.03,94.73c-3.96-4.84-8.18-7.51-13.56-2.84"/>
	<path class="st2" d="M32.47,90.48c-1.61-0.13-1.16,2.57-2.66,1.59c-1.12-0.73-0.27-1.68,0.5-2.95c1.71-2.83,3.16-5.69,5.82-7.83
		c3.55-2.85,7.72-2.83,9.81,1c1.39,2.55,3.69,4.01,5.15,6.63c-0.17,0.65-0.31,0.86-0.46,0.99c0.44,0.23,0.77-0.11,1.39-0.38
		c5.47,4.62,4.06,10.93,4.12,16.86c0.06,7.27-4.76,11.85-12.15,11.97c-6.33,0.1-12.57,0.5-16.7-5.94
		c-2.99-4.66-3.57-9.64-3.01-14.84c0.2-1.86,2.27-2.31,3.86-2.18c1.97,0.17,3.01-0.65,3.9-2.61c0.37-0.61,0.59-0.88,0.86-1.38
		C32.96,91.18,32.85,90.71,32.47,90.48z"/>
	<path class="st3" d="M41.57,90.16c1.7,3.16,1.7,3.16-8.2,3.33c-1.09-0.62-1.15-1.32-1.25-2.54c-0.05-0.52,0.01-0.44-0.05-0.46
		C34.76,89.53,37.67,89.91,41.57,90.16z"/>
	<path class="st3" d="M52.36,88.99c-0.92,2.49-4.84,0.85-6.47,3.11c-1.55-4.51,2.6-2.76,5.11-3.15
		C51.64,88.94,51.85,88.96,52.36,88.99z"/>
</g>
<g id="Layer_1_copy" class="st4">
	<path class="st5" d="M35.29,83.3"/>
	<path class="st5" d="M30.95,95.92"/>
</g>
</svg>
