<svg version="1.1" id="Layer_1" xmlns="http://www.w3.org/2000/svg" xmlns:xlink="http://www.w3.org/1999/xlink" x="0px" y="0px"
	 width="100%" viewBox="0 0 50 50" enable-background="new 0 0 50 50" xml:space="preserve">
<path fill="#000000" opacity="1.000000" stroke="none" 
	d="
M28.000162,51.000000 
	C18.666779,51.000000 9.833448,51.000000 1.000090,51.000000 
	C1.000060,34.333382 1.000060,17.666761 1.000030,1.000108 
	C17.666611,1.000072 34.333221,1.000072 50.999874,1.000036 
	C50.999916,17.666603 50.999916,34.333206 50.999958,50.999905 
	C43.500072,51.000000 36.000145,51.000000 28.000162,51.000000 
M18.280861,17.210047 
	C20.847649,17.775906 23.424519,18.301188 25.974447,18.934881 
	C26.649487,19.102638 27.361069,20.024572 27.852530,19.884869 
	C31.273731,18.912357 34.641384,17.751459 37.368465,16.864799 
	C35.978645,15.027803 34.308319,11.736553 31.673410,9.682895 
	C29.595028,8.062994 25.200056,6.465883 23.823154,7.502025 
	C20.845968,9.742403 19.145538,13.679431 16.181213,17.006529 
	C15.859202,17.926418 15.537191,18.846310 15.215181,19.766199 
	C15.581975,19.861853 15.948769,19.957506 16.315563,20.053160 
	C16.763441,19.271141 17.211319,18.489124 18.280861,17.210047 
M40.888176,21.094429 
	C38.449963,24.680439 37.137943,22.650349 36.337154,20.109594 
	C33.495491,21.979773 30.943611,23.659237 29.149569,24.839947 
	C22.475153,20.553768 16.232771,25.183565 8.978517,23.751625 
	C10.239592,29.811913 10.571882,34.982044 12.445028,39.515530 
	C14.843395,45.320187 29.534948,48.867981 35.288425,44.985352 
	C38.176731,43.036221 40.997814,39.475613 41.713722,36.179882 
	C42.741436,31.448746 41.818344,26.293850 40.888176,21.094429 
z"/>
<path fill="#D9BA94" opacity="1.000000" stroke="none" 
	d="
M41.308109,21.207142 
	C41.818344,26.293850 42.741436,31.448746 41.713722,36.179882 
	C40.997814,39.475613 38.176731,43.036221 35.288425,44.985352 
	C29.534948,48.867981 14.843395,45.320187 12.445028,39.515530 
	C10.571882,34.982044 10.239592,29.811913 8.978517,23.751625 
	C16.232771,25.183565 22.475153,20.553768 29.149569,24.839947 
	C30.943611,23.659237 33.495491,21.979773 36.337154,20.109594 
	C37.137943,22.650349 38.449963,24.680439 41.308109,21.207142 
z"/>
<path fill="#D9BA94" opacity="1.000000" stroke="none" 
	d="
M16.922852,16.922445 
	C19.145538,13.679431 20.845968,9.742403 23.823154,7.502025 
	C25.200056,6.465883 29.595028,8.062994 31.673410,9.682895 
	C34.308319,11.736553 35.978645,15.027803 37.368465,16.864799 
	C34.641384,17.751459 31.273731,18.912357 27.852530,19.884869 
	C27.361069,20.024572 26.649487,19.102638 25.974447,18.934881 
	C23.424519,18.301188 20.847649,17.775906 17.787535,17.260918 
	C17.170422,17.182007 17.046637,17.052227 16.922852,16.922445 
z"/>
<path fill="#D9BA94" opacity="1.000000" stroke="none" 
	d="
M17.476704,17.509447 
	C17.211319,18.489124 16.763441,19.271141 16.315563,20.053160 
	C15.948769,19.957506 15.581975,19.861853 15.215181,19.766199 
	C15.537191,18.846310 15.859202,17.926418 16.552032,16.964487 
	C17.046637,17.052227 17.170422,17.182007 17.476704,17.509447 
z"/>
</svg>