<svg version="1.1" id="Layer_1" xmlns="http://www.w3.org/2000/svg" xmlns:xlink="http://www.w3.org/1999/xlink" x="0px" y="0px"
	 width="100%" viewBox="0 0 50 50" enable-background="new 0 0 50 50" xml:space="preserve">
<path fill="#000000" opacity="1.000000" stroke="none" 
	d="
M26.000059,51.000000 
	C17.333384,51.000000 9.166719,51.000000 1.000041,51.000000 
	C1.000027,34.333355 1.000027,17.666708 1.000013,1.000047 
	C17.666643,1.000031 34.333286,1.000031 50.999947,1.000016 
	C50.999962,17.666639 50.999962,34.333279 50.999981,50.999962 
	C42.833355,51.000000 34.666714,51.000000 26.000059,51.000000 
M33.263535,21.010887 
	C32.484608,20.275732 31.823215,19.174728 30.903076,18.879108 
	C28.774357,18.195200 26.407598,17.267241 24.349884,17.633196 
	C22.416201,17.977093 20.704048,19.788118 19.006798,21.099104 
	C18.524841,21.471378 18.435854,22.352409 17.711195,23.739267 
	C15.272153,23.898033 12.833111,24.056801 10.278604,24.223085 
	C9.033639,32.568336 10.420542,40.935043 17.880375,44.346367 
	C23.134502,46.749039 31.078917,46.212128 36.698822,44.057625 
	C42.516556,41.827282 43.883904,29.423868 41.083832,21.153023 
	C39.584064,21.732605 37.683472,25.712366 36.847687,20.659393 
	C35.898499,20.828480 34.949314,20.997564 33.263535,21.010887 
M32.464619,16.987581 
	C34.399429,17.343649 36.334244,17.699717 39.298565,18.245249 
	C36.426991,15.559094 33.741070,14.016122 32.544044,11.702740 
	C30.685078,8.110078 27.798485,5.912758 24.524652,7.265730 
	C20.838825,8.788968 17.577211,11.879094 16.701153,17.842207 
	C19.429331,16.833445 21.287767,15.780336 23.254822,15.505987 
	C26.099916,15.109174 29.356491,13.382252 32.464619,16.987581 
z"/>
<path fill="#D9BA94" opacity="1.000000" stroke="none" 
	d="
M34.000126,21.166651 
	C34.949314,20.997564 35.898499,20.828480 36.847687,20.659393 
	C37.683472,25.712366 39.584064,21.732605 41.083496,21.155853 
	C43.883904,29.423868 42.516556,41.827282 36.698822,44.057625 
	C31.078917,46.212128 23.134502,46.749039 17.880375,44.346367 
	C10.420542,40.935043 9.033639,32.568336 10.278604,24.223085 
	C12.833111,24.056801 15.272153,23.898033 18.377892,23.369728 
	C22.192539,23.737837 26.028038,21.241343 28.520292,24.982027 
	C29.467077,24.422449 30.458389,23.911552 31.365343,23.279589 
	C32.286919,22.637438 33.125309,21.875904 34.000126,21.166651 
z"/>
<path fill="#D9BA94" opacity="1.000000" stroke="none" 
	d="
M32.040611,16.941074 
	C29.356491,13.382252 26.099916,15.109174 23.254822,15.505987 
	C21.287767,15.780336 19.429331,16.833445 16.701153,17.842207 
	C17.577211,11.879094 20.838825,8.788968 24.524652,7.265730 
	C27.798485,5.912758 30.685078,8.110078 32.544044,11.702740 
	C33.741070,14.016122 36.426991,15.559094 39.298565,18.245249 
	C36.334244,17.699717 34.399429,17.343649 32.040611,16.941074 
z"/>
<path fill="#D70BB1" opacity="1.000000" stroke="none" 
	d="
M33.631828,21.088768 
	C33.125309,21.875904 32.286919,22.637438 31.365343,23.279589 
	C30.458389,23.911552 29.467077,24.422449 28.520292,24.982027 
	C26.028038,21.241343 22.192539,23.737837 18.605619,23.000156 
	C18.435854,22.352409 18.524841,21.471378 19.006798,21.099104 
	C20.704048,19.788118 22.416201,17.977093 24.349884,17.633196 
	C26.407598,17.267241 28.774357,18.195200 30.903076,18.879108 
	C31.823215,19.174728 32.484608,20.275732 33.631828,21.088768 
z"/>
</svg>