<svg version="1.1" id="Layer_1" xmlns="http://www.w3.org/2000/svg" xmlns:xlink="http://www.w3.org/1999/xlink" x="0px" y="0px"
	 width="100%" viewBox="0 0 50 50" enable-background="new 0 0 50 50" xml:space="preserve">
<path fill="#000000" opacity="1.000000" stroke="none" 
	d="
M30.000561,51.000000 
	C20.833736,51.000000 12.165387,50.907166 3.501632,51.065586 
	C1.348854,51.104950 0.918640,50.650204 0.935997,48.499928 
	C1.057067,33.500927 1.056900,18.500034 0.936132,3.501030 
	C0.918834,1.352758 1.349562,0.918627 3.499993,0.935988 
	C18.498989,1.057079 33.499886,1.056884 48.498886,0.936146 
	C50.646965,0.918854 51.081387,1.349325 51.064022,3.499909 
	C50.942909,18.498905 50.943134,33.499802 51.063843,48.498802 
	C51.081127,50.646690 50.658649,51.134594 48.498596,51.066002 
	C42.504654,50.875660 36.500721,51.000000 30.000561,51.000000 
z"/>
<path fill="#D9BA94" opacity="1.000000" stroke="none" 
	d="
M39.703617,22.610870 
	C40.590885,23.058914 41.560818,23.136311 41.714973,23.531740 
	C43.947342,29.257942 41.440140,39.912186 37.018299,43.903915 
	C29.933374,50.299679 14.679151,45.681274 11.741875,36.937061 
	C10.529368,33.327454 10.188275,29.973249 9.960555,26.375427 
	C9.791207,23.699863 11.452284,23.950285 13.563472,23.906883 
	C17.680620,20.232500 21.912474,19.013609 26.661261,21.367054 
	C28.663399,22.359291 30.371784,22.236776 32.330818,21.492287 
	C34.791794,20.557045 37.212238,20.794781 39.703617,22.610870 
z"/>
<path fill="#D70BB1" opacity="1.000000" stroke="none" 
	d="
M39.990944,22.482374 
	C37.466774,23.376810 34.861931,22.670624 32.267284,23.717024 
	C30.672630,24.360136 28.962404,24.999588 26.636536,23.311529 
	C23.087582,20.735792 18.765739,23.432230 14.388103,23.893240 
	C14.243304,17.887394 17.621861,14.542073 23.114649,13.960872 
	C30.525312,13.176739 36.885544,14.183218 39.990944,22.482374 
z"/>
</svg>