<svg version="1.1" id="Layer_1" xmlns="http://www.w3.org/2000/svg" xmlns:xlink="http://www.w3.org/1999/xlink" x="0px" y="0px"
	 width="100%" viewBox="0 0 50 50" enable-background="new 0 0 50 50" xml:space="preserve">
<path fill="#000000" opacity="1.000000" stroke="none" 
	d="
M30.000561,51.000000 
	C20.000404,51.000000 10.500421,51.000000 1.000328,51.000000 
	C1.000218,34.333508 1.000218,17.667013 1.000109,1.000390 
	C17.666466,1.000260 34.332932,1.000260 50.999550,1.000130 
	C50.999699,17.666437 50.999699,34.332874 50.999847,50.999657 
	C44.166912,51.000000 37.333824,51.000000 30.000561,51.000000 
M16.070974,34.999001 
	C14.288254,34.656590 12.505533,34.314175 11.293242,34.081326 
	C11.699473,39.483238 14.310260,43.769161 19.201435,44.870872 
	C24.195768,45.995823 29.616638,46.113537 34.726723,45.549107 
	C38.601002,45.121170 42.032711,38.462006 41.424568,32.950874 
	C38.694035,34.474140 36.430260,35.737019 34.025764,36.193909 
	C35.006191,34.342716 36.397770,32.596275 36.900436,30.623356 
	C40.207077,17.645119 36.165337,12.801417 23.226973,14.031503 
	C22.283710,14.121181 21.388166,14.632540 20.449018,14.859035 
	C15.169514,16.132305 14.275198,18.080133 14.031809,23.475899 
	C13.837589,27.781599 14.853718,31.413120 16.070974,34.999001 
z"/>
<path fill="#D70BB1" opacity="1.000000" stroke="none" 
	d="
M16.833399,34.999969 
	C14.853718,31.413120 13.837589,27.781599 14.031809,23.475899 
	C14.275198,18.080133 15.169514,16.132305 20.449018,14.859035 
	C21.388166,14.632540 22.283710,14.121181 23.226973,14.031503 
	C36.165337,12.801417 40.207077,17.645119 36.900436,30.623356 
	C36.397770,32.596275 35.006191,34.342716 33.881031,36.945938 
	C29.918526,38.131641 26.094959,38.520489 22.284781,39.012917 
	C19.132305,39.420341 17.271727,38.211090 16.833399,34.999969 
z"/>
<path fill="#D9BA94" opacity="1.000000" stroke="none" 
	d="
M16.452187,34.999485 
	C17.271727,38.211090 19.132305,39.420341 22.284781,39.012917 
	C26.094959,38.520489 29.918526,38.131641 33.951393,37.348930 
	C36.430260,35.737019 38.694035,34.474140 41.424568,32.950874 
	C42.032711,38.462006 38.601002,45.121170 34.726723,45.549107 
	C29.616638,46.113537 24.195768,45.995823 19.201435,44.870872 
	C14.310260,43.769161 11.699473,39.483238 11.293242,34.081326 
	C12.505533,34.314175 14.288254,34.656590 16.452187,34.999485 
z"/>
</svg>