<svg version="1.1" id="Layer_1" xmlns="http://www.w3.org/2000/svg" xmlns:xlink="http://www.w3.org/1999/xlink" x="0px" y="0px"
	 width="100%" viewBox="0 0 50 50" enable-background="new 0 0 50 50" xml:space="preserve">
<path fill="#000000" opacity="1.000000" stroke="none" 
	d="
M26.000059,51.000000 
	C17.333384,51.000000 9.166719,51.000000 1.000041,51.000000 
	C1.000027,34.333355 1.000027,17.666708 1.000013,1.000047 
	C17.666643,1.000031 34.333286,1.000031 50.999947,1.000016 
	C50.999962,17.666639 50.999962,34.333279 50.999981,50.999962 
	C42.833355,51.000000 34.666714,51.000000 26.000059,51.000000 
M37.001762,8.527035 
	C35.660526,7.020711 34.294342,4.216469 32.982548,4.241683 
	C28.296871,4.331745 23.273232,4.590274 19.129305,6.455450 
	C17.450644,7.211013 13.746046,10.352649 15.188199,14.586524 
	C16.641781,18.853951 17.555885,23.305136 18.716007,27.712463 
	C19.998219,28.541945 21.491459,29.525448 23.001942,30.481709 
	C27.024117,33.028080 32.933842,31.667965 34.737057,27.432632 
	C36.618000,23.014734 37.871532,18.333664 39.627914,13.857326 
	C40.712212,11.093872 39.484154,10.001867 37.001762,8.527035 
M42.990688,36.608231 
	C41.622311,36.516499 39.596245,35.804531 38.997917,36.438992 
	C36.213032,39.392048 33.022137,40.411846 29.077181,40.046272 
	C26.447369,39.802570 23.776655,39.993481 21.124289,40.002033 
	C19.045012,40.008739 16.965574,40.477489 16.435623,37.261372 
	C16.276884,36.298027 13.909376,35.698647 11.483308,34.327526 
	C13.339988,38.140755 14.184184,40.789398 15.749016,42.905022 
	C19.427776,47.878639 24.775503,48.343082 30.538797,48.079330 
	C37.755085,47.749088 41.407375,44.914532 42.990688,36.608231 
z"/>
<path fill="#D70BB1" opacity="1.000000" stroke="none" 
	d="
M37.061222,8.939892 
	C39.484154,10.001867 40.712212,11.093872 39.627914,13.857326 
	C37.871532,18.333664 36.618000,23.014734 34.737057,27.432632 
	C32.933842,31.667965 27.024117,33.028080 23.001942,30.481709 
	C21.491459,29.525448 19.998219,28.541945 18.716007,27.712463 
	C17.555885,23.305136 16.641781,18.853951 15.188199,14.586524 
	C13.746046,10.352649 17.450644,7.211013 19.129305,6.455450 
	C23.273232,4.590274 28.296871,4.331745 32.982548,4.241683 
	C34.294342,4.216469 35.660526,7.020711 37.061222,8.939892 
z"/>
<path fill="#D9BA94" opacity="1.000000" stroke="none" 
	d="
M42.994392,37.023903 
	C41.407375,44.914532 37.755085,47.749088 30.538797,48.079330 
	C24.775503,48.343082 19.427776,47.878639 15.749016,42.905022 
	C14.184184,40.789398 13.339988,38.140755 11.483308,34.327526 
	C13.909376,35.698647 16.276884,36.298027 16.435623,37.261372 
	C16.965574,40.477489 19.045012,40.008739 21.124289,40.002033 
	C23.776655,39.993481 26.447369,39.802570 29.077181,40.046272 
	C33.022137,40.411846 36.213032,39.392048 38.997917,36.438992 
	C39.596245,35.804531 41.622311,36.516499 42.994392,37.023903 
z"/>
</svg>