<?xml version="1.0" encoding="utf-8"?>
<!-- Generator: Adobe Illustrator 28.3.0, SVG Export Plug-In . SVG Version: 6.00 Build 0)  -->
<svg version="1.1" xmlns="http://www.w3.org/2000/svg" xmlns:xlink="http://www.w3.org/1999/xlink" x="0px" y="0px"
	 viewBox="0 0 80 200" style="enable-background:new 0 0 80 200;" xml:space="preserve">
<style type="text/css">
	.st0{fill:#010101;}
	.st1{fill:#110A0F;}
	.st2{fill:#130B11;}
	.st3{fill:#D8BA94;}
	.st4{fill:#C03D96;}
	.st5{display:none;}
	.st6{display:inline;fill:#F3F2F1;}
</style>
<g id="Layer_1">
	<path class="st0" d="M41.6,200c-14.4,0-28,0-41.6,0C0,133.33,0,66.67,0,0c26.67,0,53.33,0,80,0c0,66.67,0,133.33,0,200
		C67.47,200,54.93,200,41.6,200 M25.96,60.99c-1.88,8.43-2.98,21.42-5.79,24.43c-8.34,8.94-5.49,25.56-5.59,39.81
		c-0.04,5.93,2.3,11.71,2.94,17.95c3.46,33.64,28.99,53.53,39.86,30.83c9.46-19.73,11.88-73.28,4.22-98.03
		c-3.55-11.46-7.79-21.58-11.35-33.02c-7.43-23.85-10.01-25.14-19.4-6.18C29.58,44.43,28.3,52.07,25.96,60.99z"/>
	<path d="M16.04,2.83h47.91c6.6,0,12,5.4,12,12v169.41c0,6.6-5.4,12-12,12H16.04c-6.6,0-12-5.4-12-12V14.83
		C4.04,8.23,9.44,2.83,16.04,2.83z"/>
	<path class="st1" d="M44.03,94.73c-3.96-4.84-8.18-7.51-13.56-2.84"/>
	<path class="st2" d="M31.39,93.94c-1.05,3.5-5.55,1.2-7.43,4.37c-1.78-6.34,2.98-3.87,5.87-4.43
		C30.56,93.88,30.8,93.89,31.39,93.94z"/>
	<path class="st3" d="M30.23,109.15c0.82,3.21,2.68,4.42,5.83,4.01c3.81-0.49,7.63-0.88,11.67-1.66c2.48-1.61,4.74-2.87,7.47-4.4
		c0.61,5.51-2.82,12.17-6.7,12.6c-5.11,0.56-10.53,0.45-15.53-0.68c-4.89-1.1-7.5-5.39-7.91-10.79
		C26.28,108.47,28.07,108.81,30.23,109.15z"/>
	<path class="st4" d="M47.6-7.79c2.42,1.06,3.65,2.15,2.57,4.92c-1.76,4.48-3.01,9.16-4.89,13.58c-1.8,4.24-7.71,5.6-11.74,3.05
		c-1.51-0.96-3-1.94-4.29-2.77c-1.16-4.41-2.07-8.86-3.53-13.13c-1.44-4.23,2.26-7.38,3.94-8.13c4.14-1.87,9.17-2.12,13.85-2.21
		C44.83-12.52,46.2-9.71,47.6-7.79z"/>
</g>
<g id="Layer_1_copy" class="st5">
	<path class="st6" d="M35.29,83.3"/>
	<path class="st6" d="M30.95,95.92"/>
</g>
</svg>
