<svg width="52" height="52" viewBox="0 0 52 52" fill="none" xmlns="http://www.w3.org/2000/svg">
<path d="M39.3334 20.0668C39.3334 20.9468 38.6134 21.6668 37.7334 21.6668H14.2667C13.3867 21.6668 12.6667 20.9468 12.6667 20.0668V20.0534C12.6667 17.0001 15.1334 14.5334 18.1867 14.5334H33.8C36.8534 14.5334 39.3334 17.0134 39.3334 20.0668Z" fill="url(#paint0_linear_2004_569)"/>
<path d="M12.6667 25.2667V31.9467C12.6667 35.0001 15.1334 37.4667 18.1867 37.4667H33.8C36.8534 37.4667 39.3334 34.9867 39.3334 31.9334V25.2667C39.3334 24.3867 38.6134 23.6667 37.7334 23.6667H14.2667C13.3867 23.6667 12.6667 24.3867 12.6667 25.2667ZM20.6667 33.0001H18C17.4534 33.0001 17 32.5467 17 32.0001C17 31.4534 17.4534 31.0001 18 31.0001H20.6667C21.2134 31.0001 21.6667 31.4534 21.6667 32.0001C21.6667 32.5467 21.2134 33.0001 20.6667 33.0001ZM29.3334 33.0001H24C23.4534 33.0001 23 32.5467 23 32.0001C23 31.4534 23.4534 31.0001 24 31.0001H29.3334C29.88 31.0001 30.3334 31.4534 30.3334 32.0001C30.3334 32.5467 29.88 33.0001 29.3334 33.0001Z" fill="url(#paint1_linear_2004_569)"/>
<defs>
<linearGradient id="paint0_linear_2004_569" x1="26" y1="21.6668" x2="26" y2="14.5334" gradientUnits="userSpaceOnUse">
<stop stop-color="#F77062"/>
<stop offset="1" stop-color="#FE5196"/>
</linearGradient>
<linearGradient id="paint1_linear_2004_569" x1="26" y1="37.4667" x2="26" y2="23.6667" gradientUnits="userSpaceOnUse">
<stop stop-color="#F77062"/>
<stop offset="1" stop-color="#FE5196"/>
</linearGradient>
</defs>
</svg>
