<svg width="52" height="52" viewBox="0 0 52 52" fill="none" xmlns="http://www.w3.org/2000/svg">
<path d="M39.2265 32.3332C38.7865 35.8799 35.8798 38.7865 32.3332 39.2265C30.1865 39.4932 28.1865 38.9065 26.6265 37.7599C25.7332 37.1065 25.9465 35.7199 27.0132 35.3999C31.0265 34.1865 34.1865 31.0132 35.4132 26.9999C35.7332 25.9465 37.1198 25.7332 37.7732 26.6132C38.9065 28.1865 39.4932 30.1865 39.2265 32.3332Z" fill="url(#paint0_linear_2005_1899)"/>
<path d="M23.32 12.6667C17.44 12.6667 12.6667 17.4401 12.6667 23.3201C12.6667 29.2001 17.44 33.9734 23.32 33.9734C29.2 33.9734 33.9733 29.2001 33.9733 23.3201C33.96 17.4401 29.2 12.6667 23.32 12.6667ZM22.0667 21.8267L25.28 22.9467C26.44 23.3601 27 24.1734 27 25.4267C27 26.8667 25.8533 28.0534 24.4533 28.0534H24.3333V28.1201C24.3333 28.6667 23.88 29.1201 23.3333 29.1201C22.7867 29.1201 22.3333 28.6667 22.3333 28.1201V28.0401C20.8533 27.9734 19.6667 26.7334 19.6667 25.1867C19.6667 24.6401 20.12 24.1867 20.6667 24.1867C21.2133 24.1867 21.6667 24.6401 21.6667 25.1867C21.6667 25.6667 22.0133 26.0534 22.44 26.0534H24.44C24.7467 26.0534 24.9867 25.7734 24.9867 25.4267C24.9867 24.9601 24.9067 24.9334 24.6 24.8267L21.3867 23.7067C20.24 23.3067 19.6667 22.4934 19.6667 21.2267C19.6667 19.7867 20.8133 18.6001 22.2133 18.6001H22.3333V18.5467C22.3333 18.0001 22.7867 17.5467 23.3333 17.5467C23.88 17.5467 24.3333 18.0001 24.3333 18.5467V18.6267C25.8133 18.6934 27 19.9334 27 21.4801C27 22.0267 26.5467 22.4801 26 22.4801C25.4533 22.4801 25 22.0267 25 21.4801C25 21.0001 24.6533 20.6134 24.2267 20.6134H22.2267C21.92 20.6134 21.68 20.8934 21.68 21.2401C21.6667 21.6934 21.7467 21.7201 22.0667 21.8267Z" fill="url(#paint1_linear_2005_1899)"/>
<defs>
<linearGradient id="paint0_linear_2005_1899" x1="32.679" y1="39.2902" x2="32.679" y2="26.0642" gradientUnits="userSpaceOnUse">
<stop stop-color="#F77062"/>
<stop offset="1" stop-color="#FE5196"/>
</linearGradient>
<linearGradient id="paint1_linear_2005_1899" x1="23.32" y1="33.9734" x2="23.32" y2="12.6667" gradientUnits="userSpaceOnUse">
<stop stop-color="#F77062"/>
<stop offset="1" stop-color="#FE5196"/>
</linearGradient>
</defs>
</svg>
