<svg width="52" height="52" viewBox="0 0 52 52" fill="none" xmlns="http://www.w3.org/2000/svg">
<path d="M28.4468 10.2738C28.2899 10.1524 28.104 10.0678 27.9046 10.0273C27.7053 9.98675 27.4984 9.99144 27.3014 10.041C27.1044 10.0905 26.9231 10.1834 26.7728 10.3118C26.6224 10.4403 26.5074 10.6005 26.4375 10.779L22.9375 19.7287L19.0939 16.2605C18.9648 16.144 18.8106 16.0542 18.6416 15.9971C18.4725 15.94 18.2924 15.9169 18.1131 15.9294C17.9338 15.9419 17.7593 15.9896 17.6012 16.0694C17.4431 16.1492 17.305 16.2593 17.1959 16.3924C13.75 20.5969 12 24.8265 12 28.9629C12 32.4205 13.475 35.7366 16.1005 38.1815C18.726 40.6264 22.287 42 26 42C29.713 42 33.274 40.6264 35.8995 38.1815C38.525 35.7366 40 32.4205 40 28.9629C40 20.1554 31.9198 12.9627 28.4468 10.2738ZM34.8916 30.3466C34.5616 32.0632 33.6747 33.6444 32.3503 34.8774C31.026 36.1104 29.3278 36.936 27.4843 37.2429C27.4144 37.2541 27.3436 37.2595 27.2727 37.2592C26.9535 37.2591 26.6459 37.1473 26.411 36.946C26.1762 36.7446 26.0311 36.4684 26.0047 36.1721C25.9783 35.8759 26.0724 35.5812 26.2684 35.3465C26.4643 35.1118 26.7479 34.9543 27.0627 34.9051C29.6989 34.4918 31.9357 32.4088 32.3827 29.9495C32.4393 29.6395 32.6257 29.3631 32.9011 29.1811C33.1765 28.9992 33.5182 28.9265 33.8511 28.9792C34.184 29.0318 34.4809 29.2055 34.6763 29.4619C34.8717 29.7183 34.9497 30.0366 34.8932 30.3466H34.8916Z" fill="url(#paint0_linear_2005_1919)"/>
<defs>
<linearGradient id="paint0_linear_2005_1919" x1="26" y1="42" x2="26" y2="10" gradientUnits="userSpaceOnUse">
<stop stop-color="#F77062"/>
<stop offset="1" stop-color="#FE5196"/>
</linearGradient>
</defs>
</svg>
