<svg width="52" height="52" viewBox="0 0 52 52" fill="none" xmlns="http://www.w3.org/2000/svg">
<path d="M19.6 12.6667H23.0667C27.3333 12.6667 30 15.3334 30 19.6001V25.0001H21.6667C21.12 25.0001 20.6667 25.4534 20.6667 26.0001C20.6667 26.5467 21.12 27.0001 21.6667 27.0001H30V32.4001C30 36.6667 27.3333 39.3334 23.0667 39.3334H19.6133C15.3467 39.3334 12.68 36.6667 12.68 32.4001V19.6001C12.6667 15.3334 15.3333 12.6667 19.6 12.6667Z" fill="url(#paint0_linear_2005_1922)"/>
<path d="M35.9201 25L33.1601 22.24C32.9601 22.04 32.8667 21.7866 32.8667 21.5333C32.8667 21.28 32.9601 21.0133 33.1601 20.8266C33.5467 20.44 34.1867 20.44 34.5734 20.8266L39.0401 25.2933C39.4267 25.68 39.4267 26.32 39.0401 26.7066L34.5734 31.1733C34.1867 31.56 33.5467 31.56 33.1601 31.1733C32.7734 30.7866 32.7734 30.1466 33.1601 29.76L35.9201 27H30.0001V25H35.9201V25Z" fill="url(#paint1_linear_2005_1922)"/>
<defs>
<linearGradient id="paint0_linear_2005_1922" x1="21.34" y1="39.3334" x2="21.34" y2="12.6667" gradientUnits="userSpaceOnUse">
<stop stop-color="#F77062"/>
<stop offset="1" stop-color="#FE5196"/>
</linearGradient>
<linearGradient id="paint1_linear_2005_1922" x1="34.6651" y1="31.4633" x2="34.6651" y2="20.5366" gradientUnits="userSpaceOnUse">
<stop stop-color="#F77062"/>
<stop offset="1" stop-color="#FE5196"/>
</linearGradient>
</defs>
</svg>
