<svg width="52" height="52" viewBox="0 0 52 52" fill="none" xmlns="http://www.w3.org/2000/svg">
<path fill-rule="evenodd" clip-rule="evenodd" d="M26 10C34.816 10 42 17.184 42 26C42 30.64 40 34.816 36.816 37.744C36.832 37.76 36.832 37.76 36.832 37.776C36.672 37.92 36.496 38.064 36.32 38.208L36.32 38.208C36.2546 38.2516 36.1966 38.3026 36.136 38.356C36.1076 38.381 36.0786 38.4065 36.048 38.432C35.76 38.672 35.456 38.896 35.136 39.12C35.1025 39.144 35.0704 39.1679 35.0388 39.1914C34.9651 39.2465 34.8945 39.2992 34.816 39.344C34.6027 39.4827 34.3893 39.6071 34.176 39.7316C34.0693 39.7938 33.9627 39.856 33.856 39.92C33.8133 39.9444 33.7707 39.9711 33.7271 39.9983C33.6564 40.0426 33.5833 40.0884 33.504 40.128C33.168 40.304 32.832 40.464 32.496 40.608L32.496 40.608C32.368 40.672 32.24 40.736 32.112 40.784C31.888 40.88 31.6498 40.9618 31.4116 41.0436C31.2924 41.0844 31.1733 41.1253 31.056 41.168C30.928 41.2 30.8 41.248 30.672 41.296L30.672 41.296C30.4006 41.3904 30.1118 41.4587 29.8249 41.5265C29.7228 41.5507 29.6208 41.5748 29.52 41.6C29.4519 41.6085 29.3883 41.6261 29.3268 41.6431C29.2728 41.658 29.2204 41.6725 29.168 41.68C28.72 41.776 28.272 41.84 27.808 41.888C27.744 41.904 27.68 41.92 27.616 41.92C27.088 41.968 26.544 42 26 42C25.456 42 24.912 41.968 24.368 41.92C24.304 41.904 24.24 41.888 24.176 41.888C23.712 41.84 23.264 41.776 22.816 41.68C22.688 41.664 22.576 41.632 22.464 41.6C22.08 41.504 21.696 41.408 21.312 41.296C21.184 41.264 21.056 41.216 20.928 41.168C20.576 41.056 20.224 40.928 19.872 40.784C19.744 40.736 19.616 40.672 19.488 40.608L19.488 40.608C19.136 40.464 18.8 40.304 18.48 40.128C18.424 40.096 18.364 40.06 18.304 40.024C18.244 39.988 18.184 39.952 18.128 39.92C17.792 39.744 17.472 39.552 17.168 39.344C17.112 39.304 17.06 39.268 17.008 39.232C16.956 39.196 16.904 39.16 16.848 39.12C16.7785 39.0688 16.7082 39.0176 16.6376 38.9662C16.3993 38.7927 16.1582 38.6171 15.936 38.432C15.8706 38.3884 15.8126 38.3374 15.752 38.284C15.7236 38.259 15.6946 38.2335 15.664 38.208C15.597 38.1477 15.5243 38.0902 15.4508 38.0319C15.3487 37.9511 15.245 37.869 15.152 37.776C15.168 37.76 15.168 37.76 15.168 37.744C12 34.816 10 30.64 10 26C10 17.184 17.184 10 26 10ZM18.096 33.952C22.464 31.04 29.568 31.04 33.904 33.952C34.608 34.416 35.2 34.96 35.664 35.552C38.096 33.088 39.6 29.712 39.6 26C39.6 18.496 33.504 12.4 26 12.4C18.496 12.4 12.4 18.496 12.4 26C12.4 29.712 13.904 33.088 16.336 35.552C16.816 34.96 17.392 34.416 18.096 33.952ZM20 23.8876C20 20.5755 22.688 17.8875 26 17.8875C29.312 17.8875 32 20.5755 32 23.8876C31.984 27.1356 29.44 29.7596 26.208 29.8716H26.176H26.064H25.92C22.544 29.7756 20 27.1356 20 23.8876Z" fill="url(#paint0_linear_2005_1914)"/>
<defs>
<linearGradient id="paint0_linear_2005_1914" x1="26" y1="42" x2="26" y2="10" gradientUnits="userSpaceOnUse">
<stop stop-color="#F77062"/>
<stop offset="1" stop-color="#FE5196"/>
</linearGradient>
</defs>
</svg>
