<svg width="112" height="114" viewBox="0 0 112 114" fill="none" xmlns="http://www.w3.org/2000/svg">
<g opacity="0.25" filter="url(#filter0_d_139_16860)">
<path d="M102 51C102 74.7482 82.7482 94 59 94C35.2518 94 16 74.7482 16 51C16 27.2518 35.2518 8 59 8C82.7482 8 102 27.2518 102 51Z" fill="url(#paint0_linear_139_16860)"/>
</g>
<path d="M43.5073 75.8493H60.7803V77.9991H66.7125V79.9697H60.9548L60.9339 79.2531L60.9112 78.6816L60.9025 78.5186L60.899 78.4559L60.892 78.343L60.8885 78.3126L60.789 78.2517L60.6181 78.2176L60.4732 78.2015L60.1435 78.1729L59.9097 78.1603L59.6654 78.1478L59.5241 78.1424L59.2292 78.1299L59.0617 78.1245L58.7145 78.1155L58.5209 78.1101L58.1178 78.1012L57.8945 78.0976L57.4321 78.0887L57.1792 78.0851L56.6557 78.0779L56.3696 78.0743L55.7816 78.069L55.4623 78.0654L54.8063 78.06L54.4521 78.0564L53.7263 78.051L53.3372 78.0492L52.5364 78.0439L52.1089 78.0421L43.3503 77.9955L43.2979 76.9672L43.2456 75.9389L39.4944 75.8367V73.6995H43.5073M86.6026 68.325H84.3345V69.6059L83.3312 69.5575L82.328 69.5092L82.2268 71.8757L81.979 71.8686L80.2343 71.8184L80.1854 73.8338L80.1348 75.8493H76.1341V77.9991H66.887V75.8493H70.7254V73.6995H78.4023V69.5898L82.5025 69.4894L82.5531 67.8323L82.6037 66.1752H84.5089V64.2045H86.6026M37.4007 69.579V71.7288H39.3199V73.6995H37.5926L37.5402 72.7589L37.4879 71.8184L35.8304 71.8094L35.2389 71.8041L35.2738 71.779L35.3192 71.7396L35.382 71.6249L35.4099 71.5604L35.4448 71.3938L35.4588 71.3024L35.4745 71.0749L35.4814 70.6593V69.579M33.3546 71.2272L33.3668 71.3329L33.4087 71.4852L33.4366 71.5533L33.5325 71.6464L33.5919 71.6894L33.7192 71.7324L33.7035 71.7288L33.5692 71.6894L33.5238 71.6607L33.4488 71.6016L33.4261 71.5622L33.372 71.3777L33.3563 71.2362L33.3005 70.7435M84.4217 71.6088L84.3414 71.6948L84.3362 71.6984L84.4374 71.555L84.5351 71.1914L84.5962 70.7435L84.5403 71.2362M33.3877 46.2895V42.187L34.391 42.1332L35.3942 42.0795L35.3959 42.049L35.4483 44.1397L35.5024 46.2895H33.3877V52.9181H31.294V46.2895M62.874 31.9575H64.7933V29.9761L66.8433 30.0263L68.8934 30.0764L68.9458 31.017L68.9981 31.9575H69.8618H70.7254V33.9281H78.2278V34.9583V35.9884L79.1874 35.9275L80.1471 35.8648V37.8515L81.2375 37.9053L82.328 37.959L82.3769 40.064L82.4257 42.169H83.4673H84.5089V44.1218L86.5154 44.2293L86.5643 46.4239L86.6131 48.6185H88.6963V50.7683H90.6156V61.8756H88.6963V64.0254H86.6026V59.5466H88.6963V50.7683H86.6026V48.6185H84.6834V44.1397H82.4152V43.1024L82.4135 42.7835L82.4083 42.608L82.4048 42.5381L82.3803 42.2962L82.3542 42.2246L82.2896 42.1153L82.2373 42.092L82.1134 42.0633L82.0227 42.0616L81.8185 42.058L81.6475 42.0526L81.5533 42.049L81.1555 42.0329L80.9758 42.0239L80.3215 41.9899V40.0192H78.4023V36.0851L70.8126 35.9884L70.7603 35.0568L70.708 34.127L69.8879 34.0715L69.0679 34.0177L68.9632 31.9575H64.7933V33.9281H62.874V31.9575H60.9548V30.9274V29.9868H62.874M47.1713 46.4687H48.916V53.2764H47.1713V55.247H44.4093L43.3276 55.2381L42.6838 55.2219L42.4238 55.2112L42.1743 55.2004L42.0679 55.1951L41.8707 55.1807L41.7922 55.1736L41.6544 55.1592L41.609 55.1521L41.5375 55.1359L41.5305 55.127L41.4851 55.0052L41.459 54.86L41.4485 54.7633L41.4136 54.3154V53.0972H39.4944V48.6185H41.4136V46.4687H42.8094V45.0354H47.1713M67.4104 46.4687H68.9807V48.6185H70.8999V53.0972H68.8062V55.247H65.957L64.8404 55.2381L64.1791 55.2219L63.9104 55.2112L63.6522 55.2004L63.544 55.1951L63.3399 55.1807L63.2596 55.1736L63.1183 55.1592L63.0712 55.1521L62.9979 55.1359L62.9909 55.127L62.9456 55.0141L62.9194 54.8815L62.9089 54.7956L62.874 54.396V54.1632L62.8653 53.8514L62.8461 53.6777L62.8287 53.6078L62.7885 53.4734L62.7589 53.4215L62.6891 53.3229L62.642 53.2853L62.5373 53.219L62.4692 53.194L62.3244 53.1509L62.232 53.1384L62.0383 53.1151L61.9196 53.108L61.6701 53.1008L61.5218 53.099L60.9548 53.0972V46.4866L61.8708 46.4328L62.7868 46.3791L62.895 45.0354H67.4104M53.4524 51.1266H55.5461V49.3351H57.4793L57.4287 50.7235L57.4112 51.1516L57.399 51.3881L57.3903 51.4849L57.3746 51.6622L57.3641 51.7321L57.3414 51.8593L57.3257 51.9076L57.2559 52.0635L57.2018 52.1011L57.0762 52.1567L56.9855 52.1692L56.804 52.2194L56.7133 52.2731L56.6819 52.3125L56.6296 52.4003L56.6139 52.4576L56.5929 52.583V53.0972H52.58V52.6493L52.5608 52.429L52.5259 52.3251L52.4928 52.291L52.416 52.2355L52.3584 52.2212L52.231 52.2015H52.1438L51.8943 52.1764L51.7931 52.1047L51.7652 52.0133L51.7408 51.9112L51.732 51.8414L51.7198 51.6873L51.7146 51.587L51.7094 51.3702V51.234L51.7076 50.9438V49.3351H53.4524M43.5073 47.1853V48.7976H41.5881V50.066L43.202 50.014L44.8159 49.9621L44.9223 48.2602H45.6097L45.9918 48.2476L46.1523 48.2172L46.1977 48.1813L46.2692 48.0935L46.2832 48.0201L46.2989 47.8499V47.1853M62.874 47.1853V48.4984L62.8845 49.0198L62.8985 49.3333L62.9107 49.464L62.9351 49.7041L62.949 49.7865L62.9805 49.9209L62.9962 49.9388L63.0712 49.971L63.1619 49.9836L63.3748 50.0051L63.5213 50.0122L63.8371 50.023H64.0221L64.4059 50.0212L64.6101 50.014L66.1018 49.9621L66.203 47.1853M43.6992 36.0779L43.6469 37.0185L43.5945 37.959H39.5816L39.4071 39.9297L38.4911 39.9834L37.5751 40.0372V41.9899H36.4847H35.3994L35.4465 41.0494L35.4989 40.0192H37.5751V38.0486H39.4944V36.0779H41.5444H43.5945V34.0177L44.5978 34.0786L45.601 34.1395V36.0779M53.5396 29.9868L53.4803 28.9119L53.421 27.837H57.1879H60.9548V29.8973L57.2036 29.9492L53.4524 30.0012V31.9575H51.7076V29.9868M31.3813 64.1149L32.3845 64.1687L33.3877 64.2224V65.1988V66.1752H35.307V69.579H33.3877V68.325H31.294V66.1752L30.6398 66.1734L30.46 66.1716L30.0622 66.1393L29.968 66.1286L29.797 66.1035L29.5929 66.0623L29.2003 65.9548V52.9181H31.2888M51.5331 34.1073H45.601V31.9575H51.5331V34.1073Z" fill="#040204"/>
<path d="M39.4944 75.8368L43.2456 75.9389L43.2979 76.9672L43.3503 77.9955L52.1089 78.0421L52.5364 78.0439L53.3372 78.0493L53.7263 78.0511L54.4521 78.0564L54.8063 78.06L55.4623 78.0654L55.7816 78.069L56.3696 78.0743L56.6557 78.0779L57.1792 78.0851L57.4321 78.0887L57.8945 78.0976L58.1178 78.1012L58.5209 78.1102L58.7145 78.1155L59.0617 78.1245L59.2292 78.1299L59.5241 78.1424L59.6654 78.1478L59.9097 78.1603L60.1435 78.1729L60.4732 78.2015L60.6181 78.2177L60.789 78.2517L60.8885 78.3126L60.892 78.3431L60.899 78.4559L60.9025 78.5186L60.9112 78.6817L60.9339 79.2531L60.9548 79.9697H66.7125V77.9991H60.7803V75.8493H60.9548V77.8199H66.7125V75.8493H66.8869V77.9991H76.1341V75.8493H80.1348L80.1854 73.8339L80.2343 71.8184L81.979 71.8686L82.2547 71.8757L82.7206 71.8847L82.9404 71.8883L83.3016 71.8847L83.4708 71.8811L83.743 71.8614L83.8686 71.8489L84.0623 71.8112L84.1513 71.7897L84.2821 71.7288L84.3414 71.6948L84.3641 71.6697L84.3292 71.7342L84.2734 71.77L84.1687 71.874L84.2123 71.9044H84.2908L84.3833 71.9546L84.4322 72.0334L84.4514 72.0943L84.4845 72.2305L84.495 72.3165L84.5089 72.5046V73.3233L86.5154 73.4308L86.5712 74.2226L86.5974 74.7099L86.6009 74.9804L86.5939 75.0915L86.573 75.2957L86.552 75.3763L86.5032 75.525L86.4648 75.5824L86.3793 75.6827L86.32 75.7185L86.1926 75.7812L86.1124 75.7991L85.9379 75.8314L85.8297 75.8385L85.6012 75.8493H84.5089V77.8199L81.979 77.8414L80.9828 77.854L80.3861 77.8647L80.1418 77.8719L79.9063 77.8773L79.8051 77.8809L79.6166 77.8862L79.5416 77.8898L79.4073 77.897L79.3619 77.9006L79.2869 77.9059L79.2747 77.9095L79.0514 77.9471L78.8542 77.9704L78.76 77.9776L78.5855 78.0242L78.5035 78.1012L78.4738 78.1711L78.425 78.3359L78.4075 78.4613L78.3796 78.7426L78.3674 78.9396L78.3151 79.8802L74.0055 79.9285L69.696 79.9751L69.6437 81.0034L69.5913 82.03L48.916 82.1231V79.9697H41.2391L41.2199 79.5667L41.2147 79.1672L41.2217 78.8805L41.2304 78.773L41.2164 78.5365L41.1676 78.4022L41.1187 78.3466L41.0018 78.2427L40.9128 78.1997L40.7139 78.1209L40.5779 78.0887L40.2812 78.0313L40.0911 78.0098L39.681 77.9704L39.4298 77.9561L38.8907 77.931L38.5696 77.9239L37.8874 77.9095L37.4879 77.9059L36.284 77.8934L35.5285 77.8826L35.2005 77.8773L34.883 77.8719L34.7417 77.8701L34.4695 77.8647L34.3561 77.8629L34.1415 77.8576L34.0595 77.8558L33.9129 77.8504L33.8675 77.8486L33.2133 77.8199V75.8493H31.294V73.3412H33.3877V72.6246L33.4017 72.252L33.4296 72.0836L33.4575 72.0316L33.5238 71.9438L33.5762 71.9223L33.6966 71.8883L33.7803 71.8829L34.1729 71.8596L33.7908 71.7826L33.6896 71.7253L33.7035 71.7288L33.7803 71.7468L33.9932 71.77L34.1118 71.7808L34.4259 71.7933L34.5951 71.7969L35.0278 71.8041L35.8304 71.8095L37.4879 71.8184L37.5402 72.759L37.5926 73.6995H39.3199V71.7288H39.4944M25.0129 75.491H24.9833L25.0129 74.898M93.0582 74.6096V75.491L93.0547 74.5505V74.5487M26.0162 68.7191L27.0194 68.7729L27.1939 70.7435H31.1196V72.9829H28.2756L27.5829 72.9865L27.1677 72.9918L26.9845 72.9954L26.6321 73.0044L26.4785 73.0116L26.1854 73.0259L26.0615 73.0348L25.826 73.0528L25.73 73.0635L25.5521 73.0868L25.4823 73.1011L25.3566 73.1298L25.3148 73.1459L25.2397 73.18L25.2223 73.1979L25.1403 73.3627L25.0932 73.5418L25.0757 73.6475L25.1002 73.162H23.3258H23.0815L22.6156 73.1531L22.3888 73.1477L21.9928 73.1298L21.8061 73.1208L21.5234 73.0958L21.2757 73.0528L21.2233 73.0331L21.1448 72.9489L21.1099 72.8987L21.0593 72.7393L21.0384 72.6479L21.014 72.3953L21 71.8883V70.8331H25.0129V69.7492V68.6654M92.971 70.7435L95.1083 70.7937L97.2456 70.8438V72.0925L97.2317 72.3989L97.2229 72.5368L97.1863 72.741L97.1636 72.8306L97.1008 72.9489L96.9699 73.0528L96.9508 73.0599L96.8757 73.0743L96.8321 73.0814L96.71 73.0958L96.5809 73.1083L96.2092 73.1298L96.0103 73.1405L95.5392 73.1531L94.7698 73.162H94.5604L94.2045 73.1638L94.0388 73.1656L93.7631 73.171L93.6357 73.1746L93.4316 73.1871L93.3374 73.1925L93.196 73.2104L93.1315 73.2212L93.0425 73.2462L93.0041 73.2606L92.9605 73.2964L92.9518 73.4451L92.9675 73.4845L92.9919 73.6189L92.957 73.4971L92.9064 73.4254L92.786 73.2946L92.6936 73.248L92.4859 73.1674L92.3394 73.1405L92.0183 73.094L91.8055 73.0814L91.3466 73.0599L91.057 73.0546L90.4341 73.0456L90.0555 73.0402L88.9877 73.0277L88.3299 73.0187L88.0508 73.0151L87.7821 73.0098L87.6652 73.008L87.4419 73.0044H87.3494L87.1784 73.0008L87.1173 72.999L87.0092 72.9972L86.9795 72.9954L86.7527 72.9632L86.662 72.8969L86.6393 72.8199L86.6061 72.63L86.6079 72.4687L86.6096 72.2932L86.6148 72.1839L86.6236 71.951L86.6305 71.8112L86.6846 70.7435H90.7028L90.7551 69.7134L90.8075 68.6833H92.8663M35.4814 69.3999H37.5751V71.7288H37.4007V69.579H35.307V66.1752H35.4814M33.3773 71.3992L33.3738 71.3902L33.372 71.3777M33.3005 70.7435L33.3546 71.2236L33.3005 70.9549L33.2272 70.8403L33.1522 70.8044L32.9725 70.7471L32.9358 70.7435M84.8212 70.7704L84.748 70.8044L84.6276 70.8833L84.5962 70.946L84.5613 71.0481L84.5962 70.7435H84.994M33.3877 64.2225V65.1988V64.2225ZM29.7238 34.1073H32.6898V35.4814L32.6881 35.7179L32.6863 35.8289L32.6794 36.0117L32.6706 36.1819L32.6288 36.3968L32.6008 36.4882L32.5101 36.5885L32.2973 36.6817L32.2397 36.6978L32.0757 36.7229L31.9884 36.7354L31.7773 36.7534L31.5592 36.7677L31.0637 36.7749H30.8177L30.3763 36.7498L30.2768 36.7408L30.1146 36.7193L30.0396 36.7068L29.9418 36.6763L29.9052 36.6602L29.8459 36.5581L29.8197 36.4954L29.7778 36.2983L29.7604 36.1872L29.7377 35.8934L29.7238 35.347V34.1073H28.4937L28.1692 34.1037L28.0174 34.1001L27.7766 34.0822L27.6649 34.0679L27.494 34.0213L27.4172 33.9927L27.3055 33.9031L27.2567 33.8511L27.1904 33.7078L27.1625 33.629L27.1311 33.4176L27.1188 33.3029L27.1101 33.0145L27.1066 32.4753V31.0618H29.7238M32.6898 31.0618H35.307V34.1073H33.9513L33.6425 34.0984L33.4942 34.0912L33.2377 34.0715L33.1208 34.0607L32.9446 34.0339L32.8713 34.0195L32.8067 33.9873L32.7893 33.9712L32.7614 33.8314L32.7474 33.7454L32.7247 33.4928L32.7143 33.3567L32.6986 33.0234L32.6898 32.4717V31.0761L29.811 30.9722L29.7098 27.8371H32.6898M75.6543 23.0018H75.745L75.8899 23.0107L76.026 23.0197L76.1865 23.0788L76.2528 23.1164L76.3243 23.2598L76.4046 23.6127L76.436 23.7811L76.4499 24.2075L76.3993 24.7772L76.2807 25.329H78.4023V27.6579H76.2528L75.7695 27.6489L75.5374 27.6418L75.1431 27.6221L74.9617 27.6113L74.6999 27.5845L74.6459 27.5773L74.5673 27.563L74.5342 27.554L74.5063 27.5379L74.4976 27.5307L74.4818 27.4698L74.4749 27.4322L74.4609 27.3175L74.447 27.1921L74.4243 26.8051L74.4138 26.5938L74.3981 26.076L74.3894 25.2089V23H75.4589M43.5073 26.9413H41.4136V24.0749H43.5073M23.6311 75.5053L23.4095 75.5286L23.3275 75.5465L23.1844 75.5895L23.3258 75.5465L23.406 75.5286L23.6241 75.5053L24.0376 75.491H24.0533L23.6311 75.5053Z" fill="#54A093"/>
<path d="M37.4007 66.9598L37.4146 67.3934L37.446 67.5833L37.4809 67.6424L37.5699 67.7427L37.6449 67.7732L37.8176 67.8287L37.945 67.8556L38.4527 67.9344L38.7912 67.9667H38.9046L39.0948 67.9881L39.1908 68.0222L39.2274 68.0509L39.2885 68.1171L39.3077 68.1637L39.3373 68.2622L39.3408 68.325L39.3705 68.6313L39.3949 68.8122L39.4071 68.8624L39.4734 69.2207L39.5554 69.2906L39.6793 69.3318L39.7683 69.3479L39.9602 69.3766L40.0754 69.3855L40.3144 69.3999H40.4452L40.7593 69.4016L40.9285 69.4052L40.9966 69.4106L41.2251 69.4393L41.2932 69.4787L41.3996 69.5772L41.431 69.665L41.4834 69.871L41.513 70.0269L41.5933 70.3888L41.6648 70.5357L41.7311 70.5751L41.8881 70.6342L42.0225 70.6432L42.1656 70.6521H42.2563L42.4465 70.6539H42.5634L43.0728 70.6664L43.2979 70.6951L43.3694 70.7256L43.4881 70.799L43.5247 70.8599L43.5858 70.9997L43.6102 71.1018L43.7201 71.5497H68.8062V69.3999H69.7466L70.0833 69.3927L70.2718 69.3784L70.3485 69.3658L70.6172 69.2959L70.6975 69.2243L70.8301 69.0559L70.8597 68.9215L70.8999 68.617V67.9667H78.4023V66.1751H80.496V64.0433L81.4992 63.9895L82.5025 63.9358L82.5531 62.2786L82.6037 60.6215H83.5563L83.8494 60.6233L84.0099 60.6287L84.0745 60.6322L84.2978 60.6573L84.3624 60.686L84.4636 60.7523L84.4828 60.8096L84.5089 60.9386V61.0335L84.5752 61.4277L84.6904 61.6212L84.7898 61.6874L85.0166 61.8003L85.1789 61.8308L85.5331 61.8755H86.6026V64.2045H84.5089V66.1751H82.6037L82.5531 67.8323L82.5025 69.4894L78.4023 69.5898V73.6995H70.7254V75.8493H66.7125V77.8199H60.9548V75.8493H43.5073V73.6995H39.4944V71.7288H37.5751V69.3999H35.4814V66.1751H37.4007M32.5904 61.8845L32.7858 61.9042L32.866 61.9221L33.0126 61.9633L33.0684 61.9956L33.1714 62.0672L33.208 62.1174L33.2708 62.2285L33.29 62.3001L33.3197 62.4542L33.3232 62.5527L33.3249 62.7605L33.3162 62.886L33.2953 63.1529L33.2778 63.3123L33.1975 64.0253H35.3069V66.1751H33.3877V64.2224L32.3845 64.1687L31.3813 64.1149L31.3621 61.8755H32.2327M31.294 53.5218L31.2888 52.918H31.294M37.5751 41.9899V41.0135V40.0371V41.9899Z" fill="#71C9CC"/>
<path d="M33.3005 61.786L34.3037 61.8398L34.8202 61.881L35.054 61.9186L35.129 61.9473L35.2494 62.0136L35.2808 62.0619L35.3244 62.1694L35.3279 62.2429L35.3576 62.5421L35.382 62.7212L35.3942 62.7714L35.4605 63.1297L35.5216 63.1995L35.6123 63.2407L35.6751 63.2569L35.9769 63.3088H36.1654L36.7185 63.3357L37.0011 63.3841L37.1023 63.4217L37.2785 63.5077L37.3274 63.5668L37.4007 63.6958V63.7764L37.4896 63.8982L37.6537 63.9556L37.8037 63.9753L37.9677 63.9932L38.0689 63.9986L38.287 64.0111L38.4196 64.0147L38.697 64.0218L38.8628 64.0236L39.2065 64.0254H41.4136V65.1756L41.4188 65.7076L41.4276 65.9979L41.438 66.1161L41.4624 66.3347L41.4816 66.4189L41.527 66.5747L41.5602 66.6321L41.6317 66.7342L41.6788 66.77L41.7835 66.8291L41.8498 66.847L41.9911 66.8775L42.0783 66.8829L42.265 66.8918H42.3784L42.7832 66.8972L43.0066 66.9097L43.0955 66.9241L43.2613 66.9545L43.3258 66.9814L43.4427 67.0387L43.4864 67.0817L43.5649 67.1749L43.591 67.2376L43.6364 67.3755L43.6486 67.4633L43.6713 67.6514L43.6765 67.7661L43.6818 68.0133V69.2154L48.6107 69.2727L49.9524 69.2871L50.5735 69.2906L51.1825 69.296H51.4668L52.0199 69.2978H52.2712H52.7545H52.9638L53.3634 69.296L53.5239 69.2942L53.8223 69.2906L53.9269 69.2871L54.1084 69.2817L54.1503 69.2781L54.3963 69.2674L54.6754 69.2602L54.8656 69.2566L55.2774 69.2512L55.5286 69.2477L56.0573 69.2423L56.3609 69.2405L56.9872 69.2351L57.331 69.2333L58.0393 69.2297L58.4162 69.2279L59.983 69.2226H60.8152L66.8695 69.2208L66.9219 68.1011L66.9742 66.9814L68.8062 66.8739V65.6396L68.8201 65.1505L68.8428 64.8549L68.8603 64.7331L68.8969 64.5073L68.9179 64.4303L68.965 64.3049L68.9894 64.2888L69.0749 64.2655L69.1778 64.2512L69.2494 64.244L69.4064 64.2314L69.5023 64.2261L69.7047 64.2153L69.8216 64.2117L70.3259 64.1956L70.6207 64.192L71.2349 64.1867L71.5629 64.1885L72.5068 64.1849L73.0773 64.1705L73.3129 64.1598L73.5379 64.1472L73.6357 64.1419L73.8189 64.1275L73.8921 64.1186L74.0247 64.1025L74.0701 64.0935L74.1469 64.0756L74.1608 64.0666L74.2463 63.9358L74.3004 63.7818L74.3231 63.6797L74.4068 63.2157L74.4225 62.9469L74.4766 61.9652L78.4896 61.786L78.5419 60.6753L78.5925 59.5646L79.5015 59.5108L80.4088 59.4571L80.4611 58.2478L80.5117 57.0386L81.0718 57.0404L81.4015 57.0493L81.7069 57.0637L81.8883 57.0744L82.6735 57.1246L83.0695 57.155L84.5089 57.2715V59.3586L84.5229 60.283L84.5438 60.7828L84.5613 60.9745L84.6014 61.3203L84.6276 61.4349L84.6747 61.5926L84.5752 61.4277L84.5089 61.0336V60.9387L84.4828 60.8097L84.4636 60.7524L84.3624 60.6861L84.2978 60.6574L84.0745 60.6323L84.0099 60.6287L83.8494 60.6234L83.5563 60.6216H82.6037L82.5531 62.2787L82.5025 63.9358L81.4992 63.9896L80.496 64.0433V66.1752H78.4023V67.9667H70.8999V68.617L70.8598 68.9216L70.8301 69.056L70.6975 69.2244L70.6172 69.296L70.3485 69.3659L70.2718 69.3784L70.0833 69.3928L69.7466 69.3999H68.8062V71.5497H43.7202L43.6102 71.1019L43.5858 70.9997L43.5247 70.86L43.4881 70.7991L43.3695 70.7256L43.2979 70.6952L43.0729 70.6665L42.5634 70.654H42.4465L42.2563 70.6522H42.1656L42.0225 70.6432L41.8882 70.6343L41.7311 70.5752L41.6648 70.5357L41.5933 70.3888L41.513 70.027L41.4834 69.8711L41.431 69.6651L41.3996 69.5773L41.2932 69.4788L41.2252 69.4393L40.9966 69.4107L40.9286 69.4053L40.7593 69.4017L40.4453 69.3999H40.3144L40.0754 69.3856L39.9602 69.3766L39.7683 69.348L39.6793 69.3318L39.5554 69.2906L39.4734 69.2208L39.4071 68.8625L39.3949 68.8123L39.3705 68.6314L39.3408 68.325L39.3373 68.2623L39.3077 68.1638L39.2885 68.1172L39.2274 68.0509L39.1908 68.0223L39.0948 67.9882L38.9046 67.9667H38.7912L38.4528 67.9345L37.945 67.8557L37.8177 67.8288L37.6449 67.7732L37.5699 67.7428L37.4809 67.6425L37.446 67.5833L37.4146 67.3934L37.4007 66.9599V66.1752H35.307V64.0254H33.1976L33.2778 63.3124L33.2953 63.153L33.3162 62.886L33.3249 62.7606L33.3232 62.5528L33.3197 62.4543L33.29 62.3002L33.2708 62.2285L33.208 62.1175L33.1714 62.0673L33.0684 61.9957L33.0126 61.9634L32.8661 61.9222L32.7858 61.9043L32.5904 61.8846L32.2327 61.8756H31.294V58.6509H33.1993M85.0167 61.7932L85.1126 61.8129L85.5349 61.8756H85.5331L85.1789 61.8308L85.0167 61.8004L84.973 61.7789" fill="#B5E9D3"/>
<path d="M32.21 70.6897L32.3392 70.6969L32.5555 70.7094L32.6567 70.7148L32.819 70.7309L32.9725 70.7471L33.1522 70.8044L33.2272 70.8402L33.3005 70.9549L33.3546 71.2254L33.3738 71.3902L33.4889 71.607L33.7908 71.7825L34.1729 71.8596L33.7803 71.8829L33.6966 71.8882L33.5762 71.9223L33.5238 71.9438L33.4575 72.0316L33.4296 72.0835L33.4017 72.2519L33.3878 72.6246V73.3412H31.2941V75.8493H33.2133V77.8199L33.8676 77.8486L33.9129 77.8504L34.0595 77.8557L34.1415 77.8575L34.3561 77.8629L34.4695 77.8647L34.7417 77.8701L34.883 77.8719L35.2005 77.8772L35.5286 77.8826L36.284 77.8934L37.4879 77.9059L37.8875 77.9095L38.5697 77.9238L38.8907 77.931L39.4298 77.9561L39.6811 77.9704L40.0911 78.0098L40.2813 78.0313L40.5779 78.0886L40.714 78.1209L40.9129 78.1997L41.0018 78.2427L41.1187 78.3466L41.1676 78.4021L41.2164 78.5365L41.2304 78.773L41.2217 78.8805L41.2147 79.1671L41.2199 79.5666L41.2391 79.9697H48.916V82.1231L69.5913 82.0299L69.6437 81.0034L69.696 79.9751L74.0056 79.9285L78.3151 79.8801L78.3674 78.9396L78.3796 78.7425L78.4076 78.4613L78.425 78.3359L78.4739 78.171L78.5035 78.1012L78.5855 78.0241L78.76 77.9776L78.8542 77.9704L79.0514 77.9471L79.2747 77.9095L79.2869 77.9059L79.3619 77.9005L79.4073 77.8969L79.5416 77.8898L79.6167 77.8862L79.8051 77.8808L79.9063 77.8772L80.1418 77.8719L80.3861 77.8647L80.9828 77.8539L81.9791 77.8414L84.509 77.8199V75.8493H85.6012L85.8297 75.8385L85.9379 75.8313L86.1124 75.7991L86.1926 75.7812L86.32 75.7185L86.3793 75.6826L86.4648 75.5823L86.5032 75.525L86.5521 75.3763L86.573 75.2957L86.5939 75.0914L86.6009 74.9804L86.5974 74.7099L86.5713 74.2226L86.5154 73.4307L84.509 73.3232V72.5045L84.495 72.3164L84.4845 72.2304L84.4514 72.0943L84.4322 72.0334L84.3833 71.9545L84.2909 71.9044H84.2123L84.1687 71.8739L84.2734 71.77L84.3292 71.7342L84.4322 71.5461L84.5351 71.1914L84.5491 71.0874L84.5962 70.9459L84.6276 70.8832L84.748 70.8044L84.8213 70.7703L85.069 70.7309L85.1423 70.7238L85.3203 70.7094L85.643 70.6915L86.6899 70.6378L86.6306 71.8112L86.6236 71.9509L86.6149 72.1838L86.6096 72.2931L86.6079 72.4687L86.6061 72.6299L86.6393 72.8198L86.662 72.8969L86.7527 72.9632L86.9795 72.9954L87.0092 72.9972L87.1174 72.999L87.1784 73.0008L87.3494 73.0044H87.4419L87.6652 73.0079L87.7821 73.0097L88.0508 73.0151L88.33 73.0187L88.9877 73.0276L90.0555 73.0402L90.4341 73.0456L91.057 73.0545L91.3466 73.0599L91.8055 73.0814L92.0184 73.0939L92.3394 73.1405L92.486 73.1674L92.6936 73.248L92.786 73.2946L92.9064 73.4254L92.957 73.497L93.0129 73.6887L93.0338 73.7926L93.0495 74.0578L93.0547 74.5504L93.0582 75.491H95.1519V77.8199H88.5393L88.487 78.85L88.4346 79.8801L87.5274 79.9339L86.6201 79.9876L86.5678 81.0088L86.5154 82.0299L80.3652 82.0765L74.2149 82.1249V84.0902H64.6188V86.24H51.5332V84.0902H43.5073V82.1195H33.3878V79.9805L29.2876 79.8801L29.1829 77.8199H25.7196L24.9554 77.8092L24.7722 77.8056L24.4372 77.7966L24.2749 77.7912L23.9853 77.7805L23.8457 77.7751L23.6102 77.7608L23.5002 77.7536L23.3275 77.7375L23.249 77.7303L23.1478 77.7124L23.0833 77.6855L23.0798 77.6533L23.0745 77.5369L23.0728 77.4706L23.0693 77.3022L23.0658 77.1212L23.0641 76.6877L23.0623 76.4709L23.0641 76.0804L23.0658 75.9926L23.0693 75.8528L23.0745 75.7149L23.078 75.6773L23.1426 75.6164L23.1844 75.5895L23.3275 75.5465L23.4095 75.5286L23.6311 75.5053L24.0533 75.491H25.0129V74.1652L25.074 73.6547L25.0932 73.5418L25.1403 73.3627L25.2223 73.1978L25.2398 73.1799L25.3148 73.1459L25.3567 73.1298L25.4823 73.1011L25.5521 73.0868L25.73 73.0635L25.826 73.0527L26.0615 73.0348L26.1854 73.0258L26.4785 73.0115L26.6321 73.0044L26.9845 72.9954L27.1677 72.9918L27.583 72.9864L28.2756 72.9829H31.1196V70.636L32.21 70.6897Z" fill="#BFD784"/>
<path d="M41.4136 59.5467H35.307V53.0973H41.4136V54.3155L41.4485 54.7634L41.459 54.8601L41.4851 55.0052L41.5305 55.1271L41.5375 55.136L41.609 55.1521L41.6544 55.1593L41.7922 55.1736L41.8707 55.1808L42.0679 55.1951L42.1743 55.2005L42.4238 55.2113L42.6838 55.222L43.3276 55.2381L44.4093 55.2471H41.4136M74.4766 53.1869L74.529 54.1274L74.5691 54.586L74.6057 54.8046L74.6319 54.8762L74.6912 54.9999L74.7314 55.0321L74.8203 55.0805L74.8779 55.0841L75.0419 55.0912L75.185 55.0984L75.267 55.1038L75.6177 55.1199L75.7852 55.1288L76.3959 55.1575L76.4447 57.3521L76.4936 59.5467H72.7668L71.3099 59.5377L70.8685 59.5306L70.6661 59.527L70.2735 59.5162L70.099 59.5109L69.7675 59.5001L69.6262 59.4947L69.3628 59.4804L69.2616 59.4732L69.0801 59.4589L69.0225 59.4517L68.9301 59.4356L68.9231 59.4267L68.8987 59.3622L68.8847 59.2798L68.8777 59.2206L68.8516 58.943L68.8411 58.7477L68.8219 58.3267L68.8149 58.0777L68.8062 57.5599V55.256L68.2915 55.2471H68.8062V53.0973H70.8999V53.0847L72.6883 53.1367M62.9909 55.1271L62.9979 55.136L63.0712 55.1521L63.1183 55.1593L63.127 55.1611L62.9613 55.1575L62.9543 55.0375M62.0383 53.1152L62.232 53.1385L62.3244 53.151L62.4692 53.194L62.5373 53.2191L62.642 53.2854L62.6891 53.323L62.7589 53.4215L62.7885 53.4735L62.8287 53.6079L62.8461 53.6777V53.6831L62.8339 53.6347L62.7885 53.4914L62.7554 53.4359L62.6839 53.332L62.6367 53.2926L62.5303 53.2209L62.464 53.1958L62.3175 53.1528L62.2267 53.1385L62.0348 53.1152M61.7225 53.1027L61.6684 53.1009L61.5218 53.0991L61.6702 53.1009M35.307 48.4394V50.5892H33.3877V48.4394M53.2779 36.078H49.4464H45.6167L45.5644 37.3769L45.5138 38.6757L43.6015 38.7276L42.7623 38.7635L42.3087 38.7975L42.1377 38.8208L41.8306 38.8692L41.7329 38.8978L41.5759 38.9605L41.5532 38.9964L41.5008 39.1899L41.4694 39.4102L41.4572 39.5553L41.4345 39.8653L41.4276 40.0408L41.4171 40.4063V40.5962L41.4136 41.9774L39.4508 42.0294L37.4879 42.0795L37.4391 44.1846L37.3902 46.2896H35.5024L35.4483 44.1398L35.3942 41.99H36.4847H37.5751V40.0372L38.4911 39.9835L39.4071 39.9297L39.5816 37.9591H43.5945L43.6469 37.0186L43.6992 36.078H45.601V34.1074H53.2779M64.7933 37.8695H62.874V36.2572H64.7933M60.9548 30.9275V31.9576H62.874V33.9282H64.46L62.7868 34.0178L62.7589 34.6448L62.7345 35.2056L62.7187 35.5639L62.7153 35.6749L62.6716 35.9025L62.6298 35.9544L62.5966 35.9741L62.5198 36.0099L62.4623 36.0225L62.3367 36.0458L62.2494 36.0529L62.061 36.0655L61.9406 36.0691L61.6771 36.0762H61.5149L61.1659 36.078H59.2101V35.1124L59.1961 34.6538L59.1699 34.4209L59.149 34.3367L59.0984 34.1862L59.0635 34.1378L58.985 34.0572L58.9344 34.0375L58.8262 34.016L58.7041 34.0017L58.6221 33.9945L58.4424 33.982L58.3342 33.9766L58.1056 33.9658L57.9748 33.9605L57.413 33.9425L57.0884 33.9372L56.4132 33.9282H53.4524V31.9576H55.6857L56.6819 31.945L57.2158 31.9217L57.4182 31.9038L57.7811 31.8644L57.898 31.8375L58.0934 31.7784L58.1283 31.7426L58.2103 31.5975L58.2574 31.4542L58.2766 31.3646L58.3377 30.9687V29.9869H54.4399L57.2036 29.9493L60.9548 29.8973M90.3539 34.0178L88.1502 34.068L87.913 34.0733L87.5099 34.0805L87.3197 34.0823L87.0022 34.0841L86.8539 34.0823L86.6096 34.0769L86.498 34.0715L86.3182 34.0572L86.2362 34.0482L86.1106 34.025L86.0548 34.0124L85.9728 33.9766L85.8995 33.939L85.8384 33.8297L85.821 33.7831L85.7913 33.6093L85.7791 33.5126L85.7599 33.26L85.7425 32.9913L85.7338 32.3177V31.9755L85.7599 31.3108L85.7687 31.155L85.7931 30.8791L85.8384 30.5459L85.9484 29.9869H90.4533M68.9632 31.9576L69.0679 34.0178L69.8879 34.0715L70.708 34.1271L70.7603 35.0569L70.8126 35.9884L78.4023 36.0852V40.0193H80.3215V41.99L80.9758 42.024L81.1555 42.033L81.5533 42.0491L81.6476 42.0527L81.8185 42.0581L82.0227 42.0616L82.1134 42.0634L82.2373 42.0921L82.2896 42.1154L82.3542 42.2247L82.3803 42.2963L82.4048 42.5382L82.4083 42.608L82.4135 42.7836L82.4152 43.1025V44.1398H84.6834V48.6185H86.6026V50.7683H88.6963V59.5467H86.6026V61.8756H85.5349L85.1126 61.8129L85.0167 61.7932L84.8649 61.7449L84.7183 61.6607L84.6834 61.6248L84.6276 61.4349L84.6014 61.3203L84.5613 60.9745L84.5438 60.7828L84.5229 60.283L84.5089 59.3586V57.2715L83.0695 57.155L82.6735 57.1246L81.8883 57.0744L81.7069 57.0637L81.4015 57.0493L81.0718 57.0404L80.5117 57.0386H82.5897V52.9181H78.5873L78.4896 48.7081L76.4988 48.6006L76.3959 46.3792L74.5639 46.2717V45.4207L74.5028 44.7561L74.4609 44.5751L74.4365 44.5052L74.3824 44.3834L74.3545 44.3548L74.201 44.2706L74.0369 44.2222L73.9357 44.2025L73.4751 44.1398H72.2957V43.1742L72.2887 42.8302L72.2747 42.6367L72.2625 42.5579L72.1945 42.2838L72.1264 42.1996L71.9659 42.0616L71.8368 42.0312L71.5472 41.99H71.3413L71.015 41.9147L70.9383 41.8467L70.9069 41.7947L70.851 41.6765L70.8284 41.5958L70.79 41.4149L70.776 41.2985L70.7533 41.0441L70.7446 40.8864L70.7324 40.5478L70.7289 40.3418L70.7254 39.9047V37.8695H67.0614V37.2568L67.0545 36.8967L67.0405 36.6997L67.0265 36.6191L66.9934 36.4686L66.9672 36.4112L66.9079 36.3037L66.866 36.2643L66.7736 36.1927L66.7125 36.1676L66.5781 36.1246L66.4926 36.1103L66.3112 36.0888L66.1995 36.0852L65.9622 36.078H64.7933V31.9576H68.9632Z" fill="#F9A1B0"/>
<path d="M48.6107 69.2727L43.6818 69.2153V68.1619V68.0132L43.6765 67.766L43.6713 67.6513L43.6486 67.4632L43.6364 67.3755L43.591 67.2375L43.5649 67.1748L43.4864 67.0816L43.4427 67.0386L43.3258 66.9813L43.2613 66.9544L43.0955 66.924L43.0066 66.9097L42.7832 66.8971L42.3784 66.8917H42.265L42.0783 66.8828L41.9911 66.8774L41.8498 66.847L41.7835 66.829L41.6788 66.7699L41.6317 66.7341L41.5602 66.632L41.527 66.5746L41.4816 66.4188L41.4624 66.3346L41.438 66.116L41.4276 65.9978L41.4188 65.7076L41.4136 65.1755V64.0253H39.4071H39.2065L38.8628 64.0235L38.697 64.0218L38.4196 64.0146L38.287 64.011L38.0689 63.9985L37.9677 63.9931L37.8037 63.9752L37.6537 63.9555L37.4896 63.8981L37.4007 63.7763V63.6957L37.3274 63.5667L37.2785 63.5076L37.1023 63.4216L37.0011 63.384L36.7185 63.3356L36.1654 63.3087H35.9769L35.6751 63.2568L35.6123 63.2407L35.5216 63.1995L35.4605 63.1296L35.3942 62.7713L35.382 62.7211L35.3576 62.542L35.3279 62.2428L35.3244 62.1693L35.2808 62.0619L35.2494 62.0135L35.129 61.9472L35.054 61.9185L34.8202 61.8809L34.3037 61.8397L33.3005 61.786L33.2499 60.2184L33.1993 58.6508H32.2467H31.294V55.7844V52.918H32.3409H33.3877V51.7536V50.5891H34.3474H35.307V49.5142V48.4393H34.3474H33.3877V47.3644V46.2895H35.389H37.3902L37.4391 44.1845L37.4879 42.0795L39.4507 42.0293L41.4136 41.9773L41.4171 40.5961V40.4062L41.4276 40.0407L41.4345 39.8652L41.4572 39.5552L41.4694 39.4101L41.5008 39.1898L41.5532 38.9963L41.5759 38.9604L41.7329 38.8977L41.8306 38.8691L42.1377 38.8207L42.3087 38.7974L42.7623 38.7634L43.6015 38.7276L45.5138 38.6756L45.5644 37.3768L45.6167 36.0779H49.4464H53.2779V35.0926V34.1073H52.4055H51.5331V33.0324V31.9575H52.4928H53.4524V30.9721V29.9868H55.895H58.3377V30.7572V30.9686L58.2766 31.3645L58.2574 31.4541L58.2103 31.5974L58.1283 31.7425L58.0934 31.7783L57.898 31.8374L57.7811 31.8643L57.4182 31.9037L57.2158 31.9216L56.6819 31.9449L55.6857 31.9575H53.4524V32.9428V33.9281H56.0555H56.4132L57.0884 33.9371L57.413 33.9425L57.9748 33.9604L58.1056 33.9657L58.3342 33.9765L58.4424 33.9819L58.6221 33.9944L58.7041 34.0016L58.8262 34.0159L58.9344 34.0374L58.985 34.0571L59.0635 34.1377L59.0984 34.1861L59.149 34.3366L59.1699 34.4208L59.1961 34.6537L59.2101 35.1123V36.0779H60.9548H61.1659L61.5149 36.0761H61.6771L61.9406 36.069L62.061 36.0654L62.2494 36.0528L62.3366 36.0457L62.4623 36.0224L62.5198 36.0098L62.5966 35.974L62.6298 35.9543L62.6716 35.9024L62.7153 35.6748L62.7187 35.5638L62.7345 35.2055L62.7589 34.6447L62.7868 34.0177L63.79 33.9639L64.7933 33.9102V34.9941V36.0779H65.8209H65.9622L66.1995 36.0851L66.3112 36.0887L66.4926 36.1102L66.5781 36.1245L66.7125 36.1675L66.7736 36.1926L66.866 36.2642L66.9079 36.3036L66.9672 36.4111L66.9934 36.4685L67.0265 36.619L67.0405 36.6996L67.0545 36.8966L67.0614 37.2567V37.8694H68.8934H70.7254V39.6466V39.9046L70.7289 40.3417L70.7324 40.5477L70.7446 40.8863L70.7533 41.044L70.776 41.2984L70.79 41.4148L70.8284 41.5957L70.851 41.6764L70.9069 41.7946L70.9383 41.8466L71.015 41.9146L71.3413 41.9899H71.5472L71.8368 42.0311L71.9659 42.0615L72.1264 42.1995L72.1945 42.2837L72.2625 42.5578L72.2747 42.6366L72.2887 42.8301L72.2957 43.1741V44.1397H73.2204H73.4751L73.9358 44.2024L74.0369 44.2221L74.201 44.2705L74.3545 44.3547L74.3842 44.3833L74.4365 44.5051L74.4609 44.575L74.5028 44.756L74.5639 45.4206V46.2716L75.4799 46.3253L76.3959 46.3791L76.4482 47.4898L76.4988 48.6005L77.495 48.6543L78.4896 48.708L78.5384 50.813L78.5873 52.918H80.5885H82.5897V54.9783V57.0385H81.5516H80.5117L80.4611 58.2477L80.4088 59.457L79.5015 59.5108L78.5925 59.5645L78.5419 60.6752L78.4896 61.786L76.4831 61.8755L74.4766 61.9651L74.4225 62.9469L74.4068 63.2156L74.3231 63.6796L74.3004 63.7817L74.2463 63.9358L74.1608 64.0665L74.1469 64.0755L74.0701 64.0934L74.0247 64.1024L73.8921 64.1185L73.8189 64.1275L73.6357 64.1418L73.5379 64.1472L73.3129 64.1597L73.0773 64.1705L72.5068 64.1848L71.5629 64.1884L71.2349 64.1866L70.6207 64.192L70.3259 64.1955L69.8216 64.2117L69.7047 64.2152L69.5023 64.226L69.4064 64.2314L69.2494 64.2439L69.1778 64.2511L69.0749 64.2654L68.9894 64.2887L68.965 64.3048L68.9179 64.4302L68.8969 64.5073L68.8603 64.733L68.8428 64.8548L68.8201 65.1504L68.8062 65.6395V66.8738L67.8902 66.9276L66.9742 66.9813L66.9219 68.101L66.8695 69.2207L60.8152 69.2225H59.983L58.4162 69.2279L58.0393 69.2297L57.331 69.2332L56.9872 69.235L56.3609 69.2404L56.0573 69.2422L55.5286 69.2476L55.2774 69.2512L54.8656 69.2565L54.6754 69.2601L54.3963 69.2673L54.1503 69.278L54.1084 69.2816L53.9269 69.287L53.8223 69.2906L53.5239 69.2941L53.3634 69.2959L52.9638 69.2977H52.7545H52.2712H52.0199L51.4668 69.2959H51.1825L50.5735 69.2906L49.9524 69.287M41.4136 57.3968V55.247H44.2924H47.1713V54.2617V53.2763H48.0436H48.916V49.8725V46.4686H48.0436H47.1713V45.752V45.0354H44.9903H42.8094V45.752V46.4686H42.1115H41.4136V47.5435V48.6184H40.454H39.4944V50.8578V53.0972H37.4007H35.307V56.3219V59.5466H38.3603H41.4136V57.3968ZM76.4447 57.352L76.3959 55.1574L75.7852 55.1287L75.6177 55.1198L75.267 55.1037L75.185 55.0983L75.0419 55.0911L74.8779 55.084L74.8203 55.0804L74.7314 55.032L74.6912 54.9998L74.6319 54.8761L74.6057 54.8045L74.5691 54.5859L74.529 54.1273L74.4766 53.1868L72.6883 53.1366L70.8999 53.0846V50.8524V48.6184H69.9403H68.9807V47.5435V46.4686H68.1955H67.4104V45.752V45.0354H65.1527H62.895L62.8409 45.7072L62.7868 46.3791L61.8708 46.4328L60.9548 46.4865V49.7919V53.0972L61.5218 53.099L61.6684 53.1008L61.9179 53.1079L62.0348 53.1151L62.2267 53.1384L62.3175 53.1527L62.464 53.1957L62.5303 53.2208L62.6367 53.2925L62.6839 53.3319L62.7554 53.4358L62.7885 53.4913L62.8339 53.6346L62.8548 53.7117L62.881 53.898L62.9089 54.2348L62.9613 55.1574L65.8837 55.2058L68.8062 55.2559V57.2821V57.5598L68.8149 58.0776L68.8219 58.3266L68.8411 58.7476L68.8516 58.9429L68.8777 59.2205L68.8847 59.2797L68.8987 59.3621L68.9231 59.4266L68.9301 59.4355L69.0225 59.4516L69.0801 59.4588L69.2616 59.4731L69.3628 59.4803L69.6262 59.4946L69.7675 59.5L70.099 59.5108L70.2735 59.5161L70.6661 59.5269L70.8685 59.5305L71.3099 59.5376L72.7668 59.5466H76.4936L76.4447 57.352ZM56.5929 52.6618V52.583L56.6139 52.4576L56.6296 52.4003L56.6819 52.3125L56.7133 52.2731L56.804 52.2193L56.9855 52.1692L57.0762 52.1566L57.2018 52.1011L57.2559 52.0635L57.3257 51.9076L57.3414 51.8593L57.3641 51.7321L57.3746 51.6622L57.3903 51.4848L57.399 51.3881L57.4112 51.1516L57.4287 50.7234L57.4793 49.335H56.5127H55.5461V50.2308V51.1265H54.4992H53.4524V50.2308V49.335H52.58H51.7076V50.7682V50.9438L51.7094 51.234V51.3702L51.7146 51.587L51.7198 51.6873L51.732 51.8413L51.7408 51.9112L51.7652 52.0133L51.7931 52.1047L51.8943 52.1764L52.1438 52.2014H52.231L52.3584 52.2211L52.416 52.2355L52.4928 52.291L52.5259 52.325L52.5608 52.429L52.58 52.6493V53.0972H54.5865H56.5929V52.6618ZM64.7933 37.0632V36.2571H63.8336H62.874V37.0632V37.8694H63.8336H64.7933V37.0632ZM41.5881 49.4318V48.7976H42.5477H43.5073V47.9914V47.1852H44.9031H46.2989V47.7227V47.8499L46.2832 48.0201L46.2692 48.0935L46.1977 48.1813L46.1523 48.2171L45.9918 48.2476L45.6097 48.2601H44.9223L44.8682 49.1111L44.8159 49.9621L43.202 50.014L41.5881 50.066V49.4318ZM62.9962 49.9388L62.9805 49.9209L62.9491 49.7865L62.9351 49.7041L62.9107 49.464L62.8985 49.3332L62.8845 49.0197L62.874 48.4984V47.1852H64.5385H66.203L66.1524 48.5736L66.1018 49.9621L64.6101 50.014L64.4059 50.0212L64.0221 50.023H63.8371L63.5213 50.0122L63.3748 50.0051L63.1619 49.9836L63.0712 49.971L62.9962 49.9388Z" fill="#FDFDF2"/>
<defs>
<filter id="filter0_d_139_16860" x="0" y="2" width="112" height="112" filterUnits="userSpaceOnUse" color-interpolation-filters="sRGB">
<feFlood flood-opacity="0" result="BackgroundImageFix"/>
<feColorMatrix in="SourceAlpha" type="matrix" values="0 0 0 0 0 0 0 0 0 0 0 0 0 0 0 0 0 0 127 0" result="hardAlpha"/>
<feOffset dx="-3" dy="7"/>
<feGaussianBlur stdDeviation="6.5"/>
<feColorMatrix type="matrix" values="0 0 0 0 0.945833 0 0 0 0 0.9675 0 0 0 0 1 0 0 0 1 0"/>
<feBlend mode="normal" in2="BackgroundImageFix" result="effect1_dropShadow_139_16860"/>
<feBlend mode="normal" in="SourceGraphic" in2="effect1_dropShadow_139_16860" result="shape"/>
</filter>
<linearGradient id="paint0_linear_139_16860" x1="59" y1="94" x2="59" y2="8" gradientUnits="userSpaceOnUse">
<stop stop-color="#F77062"/>
<stop offset="1" stop-color="#FE5196"/>
</linearGradient>
</defs>
</svg>
