<svg width="52" height="52" viewBox="0 0 52 52" fill="none" xmlns="http://www.w3.org/2000/svg">
<path d="M30.5199 16.9467L32.3999 20.7067C32.6533 21.2267 33.3333 21.72 33.9066 21.8267L37.3066 22.3867C39.4799 22.7467 39.9866 24.32 38.4266 25.8934L35.7733 28.5467C35.3333 28.9867 35.0799 29.8534 35.2266 30.48L35.9866 33.76C36.5866 36.3467 35.1999 37.36 32.9199 36L29.7333 34.1067C29.1599 33.76 28.1999 33.76 27.6266 34.1067L24.4399 36C22.1599 37.3467 20.7733 36.3467 21.3733 33.76L22.1333 30.48C22.2533 29.84 21.9999 28.9734 21.5599 28.5334L18.9066 25.88C17.3466 24.32 17.8533 22.7467 20.0266 22.3734L23.4266 21.8134C23.9999 21.72 24.6799 21.2134 24.9333 20.6934L26.8133 16.9334C27.8399 14.9067 29.4933 14.9067 30.5199 16.9467Z" fill="url(#paint0_linear_2005_1906)"/>
<path d="M20.6667 17.6667H12.6667C12.12 17.6667 11.6667 17.2134 11.6667 16.6667C11.6667 16.1201 12.12 15.6667 12.6667 15.6667H20.6667C21.2133 15.6667 21.6667 16.1201 21.6667 16.6667C21.6667 17.2134 21.2133 17.6667 20.6667 17.6667Z" fill="url(#paint1_linear_2005_1906)"/>
<path d="M16.6667 36.3333H12.6667C12.12 36.3333 11.6667 35.8799 11.6667 35.3333C11.6667 34.7866 12.12 34.3333 12.6667 34.3333H16.6667C17.2133 34.3333 17.6667 34.7866 17.6667 35.3333C17.6667 35.8799 17.2133 36.3333 16.6667 36.3333Z" fill="url(#paint2_linear_2005_1906)"/>
<path d="M14 27H12.6667C12.12 27 11.6667 26.5467 11.6667 26C11.6667 25.4533 12.12 25 12.6667 25H14C14.5467 25 15 25.4533 15 26C15 26.5467 14.5467 27 14 27Z" fill="url(#paint3_linear_2005_1906)"/>
<defs>
<linearGradient id="paint0_linear_2005_1906" x1="28.6666" y1="36.6049" x2="28.6666" y2="15.415" gradientUnits="userSpaceOnUse">
<stop stop-color="#F77062"/>
<stop offset="1" stop-color="#FE5196"/>
</linearGradient>
<linearGradient id="paint1_linear_2005_1906" x1="16.6667" y1="17.6667" x2="16.6667" y2="15.6667" gradientUnits="userSpaceOnUse">
<stop stop-color="#F77062"/>
<stop offset="1" stop-color="#FE5196"/>
</linearGradient>
<linearGradient id="paint2_linear_2005_1906" x1="14.6667" y1="36.3333" x2="14.6667" y2="34.3333" gradientUnits="userSpaceOnUse">
<stop stop-color="#F77062"/>
<stop offset="1" stop-color="#FE5196"/>
</linearGradient>
<linearGradient id="paint3_linear_2005_1906" x1="13.3333" y1="27" x2="13.3333" y2="25" gradientUnits="userSpaceOnUse">
<stop stop-color="#F77062"/>
<stop offset="1" stop-color="#FE5196"/>
</linearGradient>
</defs>
</svg>
