<svg version="1.1" id="Layer_1" xmlns="http://www.w3.org/2000/svg" xmlns:xlink="http://www.w3.org/1999/xlink" x="0px" y="0px"
	 width="100%" viewBox="0 0 50 50" enable-background="new 0 0 50 50" xml:space="preserve">
<path fill="#000000" opacity="1.000000" stroke="none" 
	d="
M42.095589,51.000000 
	C28.084620,51.000000 14.586337,51.000000 1.088055,51.000000 
	C1.058704,50.862705 1.003674,50.725422 1.003642,50.588120 
	C0.999786,34.090218 1.000000,17.592318 1.000000,1.047209 
	C17.632969,1.047209 34.266090,1.047209 50.949608,1.047209 
	C50.949608,17.630835 50.949608,34.261841 50.949608,51.000000 
	C48.203175,51.000000 45.405724,51.000000 42.095589,51.000000 
M14.265556,39.262272 
	C14.604865,40.406986 14.647387,41.783962 15.331846,42.658562 
	C19.642111,48.166237 25.668161,48.337162 31.993814,48.064163 
	C38.832336,47.769039 43.628353,42.124752 42.456703,35.161198 
	C41.317726,35.161198 40.176159,35.161198 38.253021,35.030266 
	C36.248158,36.090836 34.098598,36.949261 32.270958,38.257423 
	C29.218140,40.442528 20.111881,39.633301 17.387444,36.882610 
	C16.415794,35.901600 14.986622,35.373745 13.766290,34.639046 
	C13.491896,35.018097 13.217502,35.397144 12.943108,35.776196 
	C13.597760,36.818993 14.252413,37.861790 14.265556,39.262272 
z"/>
<path fill="#D9BA94" opacity="1.000000" stroke="none" 
	d="
M39.034592,35.161198 
	C40.176159,35.161198 41.317726,35.161198 42.456703,35.161198 
	C43.628353,42.124752 38.832336,47.769039 31.993814,48.064163 
	C25.668161,48.337162 19.642111,48.166237 15.331846,42.658562 
	C14.647387,41.783962 14.604865,40.406986 14.923851,39.272964 
	C21.602770,42.193348 27.873499,42.538338 34.001949,40.129227 
	C36.018810,39.336388 37.375843,36.865028 39.034592,35.161198 
z"/>
<path fill="#BE9057" opacity="1.000000" stroke="none" 
	d="
M38.643806,35.095734 
	C37.375843,36.865028 36.018810,39.336388 34.001949,40.129227 
	C27.873499,42.538338 21.602770,42.193348 15.244606,39.094124 
	C14.252413,37.861790 13.597760,36.818993 12.943108,35.776196 
	C13.217502,35.397144 13.491896,35.018097 13.766290,34.639046 
	C14.986622,35.373745 16.415794,35.901600 17.387444,36.882610 
	C20.111881,39.633301 29.218140,40.442528 32.270958,38.257423 
	C34.098598,36.949261 36.248158,36.090836 38.643806,35.095734 
z"/>
</svg>